<svg width="200" height="200" viewBox="0 0 200 200" fill="none" xmlns="http://www.w3.org/2000/svg">
<path d="M27.5445 113.666V99.3921H35.089V169.99H27.5445H20V113.666H27.5445Z" fill="#191919"/>
<path d="M118.37 30H80.3262V39.9146H118.37V30Z" fill="#191919"/>
<path d="M128.433 39.9146H118.37V49.8291H128.433V39.9146Z" fill="#191919"/>
<path d="M80.3161 39.9146H70.2534V49.8291H80.3161V39.9146Z" fill="#191919"/>
<path d="M146.24 49.9377H53.3785V64.2214H38.8813V169.99H160.727V64.2214H146.24V49.9377Z" fill="#333333"/>
<path d="M146.24 113.666H53.3784V125.123H146.24V113.666Z" fill="#35B55A"/>
<path d="M146.24 125.132H53.3784V150.102H146.24V125.132Z" fill="#191919"/>
<path d="M172.445 113.666V99.3921H164.901V169.99H172.445H180V113.666H172.445Z" fill="#191919"/>
<path d="M172.455 121.109H180V113.676H172.455V121.109Z" fill="#AADAF5"/>
<path d="M172.455 170H180V162.567H172.455V170Z" fill="#345FAC"/>
<path d="M153.203 170H160.748V64.0931H153.203V170Z" fill="#191919"/>
<path d="M159.162 169.99V162.557H38.8915V169.99H159.162Z" fill="#191919"/>
<path d="M164.911 128.849H172.456V121.415H164.911V128.849Z" fill="#97CA4E"/>
<path d="M128.422 75.5298H120.005V83.8232H128.422V75.5298Z" fill="#97CA4E"/>
<path d="M128.422 83.8232H120.005V92.1167H128.422V83.8232Z" fill="#18A64A"/>
<path d="M136.85 75.5298H128.433V83.8232H136.85V75.5298Z" fill="#AADAF5"/>
<path d="M136.85 83.8232H128.433V92.1167H136.85V83.8232Z" fill="#345FAC"/>
<path d="M27.5445 113.666H20V121.099H27.5445V113.666Z" fill="#345FAC"/>
<path d="M27.5445 162.557H20V169.99H27.5445V162.557Z" fill="#AADAF5"/>
<path d="M35.089 121.406H27.5444V128.839H35.089V121.406Z" fill="#97CA4E"/>
</svg>
