<svg width="200" height="200" viewBox="0 0 200 200" fill="none" xmlns="http://www.w3.org/2000/svg">
<path d="M160.665 151.313H170V141.932H160.665V151.313Z" fill="#191919"/>
<path d="M126.838 51.4897H116.334V62.0442H126.838V51.4897Z" fill="#191919"/>
<path d="M83.6761 51.4897H73.1724V62.0442H83.6761V51.4897Z" fill="#191919"/>
<path d="M116.334 30H83.676V40.5545H116.334V30Z" fill="#191919"/>
<path d="M126.838 40.9353H116.334V51.4898H126.838V40.9353Z" fill="#191919"/>
<path d="M83.6761 40.9353H73.1724V51.4898H83.6761V40.9353Z" fill="#191919"/>
<path d="M102.263 154.856H87.1914V170H102.263V154.856Z" fill="#35B55A"/>
<path d="M117.397 154.856H102.326V170H117.397V154.856Z" fill="#35B55A"/>
<path d="M132.658 113.791H58.0063V123.171H132.658V113.791Z" fill="#333333"/>
<path d="M142.004 123.171H48.6812V132.552H142.004V123.171Z" fill="#333333"/>
<path d="M151.329 132.552H39.3457V141.932H151.329V132.552Z" fill="#333333"/>
<path d="M132.658 123.161H141.994V113.78H132.658V123.161Z" fill="#35B55A"/>
<path d="M141.994 132.541H151.329V123.16H141.994V132.541Z" fill="#191919"/>
<path d="M62.0479 134.085H71.3833V124.704H62.0479V134.085Z" fill="#97CA4E"/>
<path d="M52.5754 143.466H61.9109V134.085H52.5754V143.466Z" fill="#AADAF5"/>
<path d="M151.329 141.922H160.665V132.541H151.329V141.922Z" fill="#191919"/>
<path d="M151.329 141.922H39.3457V151.302H151.329V141.922Z" fill="#333333"/>
<path d="M151.329 151.313H160.665V141.932H151.329V151.313Z" fill="#333333"/>
<path d="M30 151.313H39.3354V141.932H30V151.313Z" fill="#333333"/>
<path d="M141.994 61.6528H58.0063V113.78H141.994V61.6528Z" fill="#333333"/>
<path d="M132.658 123.161H141.994V62.0336H132.658V123.161Z" fill="#191919"/>
<path d="M71.3831 124.377H80.7185V78.4785H71.3831V124.377Z" fill="#35B55A"/>
</svg>
