<svg width="200" height="200" viewBox="0 0 200 200" fill="none" xmlns="http://www.w3.org/2000/svg">
<path d="M140.206 135.144H145.183V130.155H140.206V135.144Z" fill="#333333"/>
<path d="M145.172 140.132H150.149V135.144H145.172V140.132Z" fill="#333333"/>
<path d="M140.206 140.132H145.183V135.144H140.206V140.132Z" fill="#333333"/>
<path d="M150.3 145.11H155.277V140.122H150.3V145.11Z" fill="#333333"/>
<path d="M155.277 150.088H160.254V145.1H155.277V150.088Z" fill="#333333"/>
<path d="M150.3 150.088H155.277V145.1H150.3V150.088Z" fill="#333333"/>
<path d="M160.232 155.077H165.209V150.088H160.232V155.077Z" fill="#333333"/>
<path d="M165.339 160.055H170.316V155.066H165.339V160.055Z" fill="#333333"/>
<path d="M160.233 160.055H165.34V155.066H160.233V160.055Z" fill="#333333"/>
<path d="M170.251 164.946H175.229V159.957H170.251V164.946Z" fill="#35B55A"/>
<path d="M170.251 169.989H175.229V164.957H170.251V169.989Z" fill="#35B55A"/>
<path d="M175.012 170H179.989V129.83H175.012V170Z" fill="#35B55A"/>
<path d="M179.989 30H20V130.155H179.989V30Z" fill="#333333"/>
<path d="M160.092 70.2139H36.1753V79.8877H160.092V70.2139Z" fill="#35B55A"/>
<path d="M160.092 89.5723H36.1753V99.2461H160.092V89.5723Z" fill="#35B55A"/>
<path d="M160.092 50.8662H36.1753V60.5401H160.092V50.8662Z" fill="#35B55A"/>
<path d="M144.966 130.155V135.144H150.149V140.133H155.277L155.039 145.11L160.254 145.371L160.244 150.088H165.21V155.077H170.187L170.252 159.968H175.229V130.155H144.966Z" fill="#333333"/>
<path d="M180 30H169.181V170H180V30Z" fill="#191919"/>
</svg>
