<svg width="200" height="200" viewBox="0 0 200 200" fill="none" xmlns="http://www.w3.org/2000/svg">
<path d="M132.137 131.913H140V111.773H132.137V131.913Z" fill="#35B55A"/>
<path d="M60.0001 131.943H67.8635V111.802H60.0001V131.943Z" fill="#35B55A"/>
<path d="M104.121 169.99H111.985V162.287H104.121V169.99Z" fill="#35B55A"/>
<path d="M96.5567 170H104.42V147.716H96.5567V170Z" fill="#35B55A"/>
<path d="M104.121 169.98V162.148H89.0123V169.98H104.121Z" fill="#35B55A"/>
<path d="M68.8504 139.844H76.7139V132.141H68.8504V139.844Z" fill="#35B55A"/>
<path d="M76.7135 147.706H116.4V140.003H76.7135V147.706Z" fill="#35B55A"/>
<path d="M132.127 132.151H124.263V139.854H132.127V132.151Z" fill="#35B55A"/>
<path d="M124.263 140.013H116.4V147.715H124.263V140.013Z" fill="#35B55A"/>
<path d="M116.4 30H84.5771V37.7028H76.7136V128.28H84.5771V135.983H116.4V128.28H124.263V37.7028H116.4V30Z" fill="#333333"/>
<path d="M116.4 128.31H124.263L124.263 37.7426H116.4L116.4 128.31Z" fill="#191919"/>
<path d="M116.4 135.993V128.161H84.6467V135.993H116.4Z" fill="#191919"/>
<path d="M92.879 49.9619H100.742V42.2591H92.879V49.9619Z" fill="#97CA4E"/>
<path d="M84.7267 57.6646H92.5901V49.9618H84.7267V57.6646Z" fill="#AADAF5"/>
</svg>
