<svg width="200" height="200" viewBox="0 0 200 200" fill="none" xmlns="http://www.w3.org/2000/svg">
<path d="M130.429 40.8413V30H68.4694V40.8413H57.6814V170H142.309V40.8413H130.429Z" fill="#333333"/>
<path d="M31.085 70.0181V80.8691H20V170H57.6814V70.0181H31.085Z" fill="#191919"/>
<path d="M168.331 80.8691V70.0181H142.309V170H179.991V80.8691H168.331Z" fill="#191919"/>
<path d="M84.0193 54.0928H72.1487V66.1831H84.0193V54.0928Z" fill="#191919"/>
<path d="M103.641 54.0928H91.7703V66.1831H103.641V54.0928Z" fill="#AADAF5"/>
<path d="M123.253 54.0928H111.382V66.1831H123.253V54.0928Z" fill="#35B55A"/>
<path d="M142.309 40.8413H130.429V170H142.309V40.8413Z" fill="#191919"/>
<path d="M84.0193 73.6772H72.1487V85.7676H84.0193V73.6772Z" fill="#AADAF5"/>
<path d="M103.641 73.6772H91.7703V85.7676H103.641V73.6772Z" fill="#191919"/>
<path d="M123.253 73.6772H111.382V85.7676H123.253V73.6772Z" fill="#97CA4E"/>
<path d="M84.0193 93.262H72.1487V105.352H84.0193V93.262Z" fill="#191919"/>
<path d="M103.641 93.262H91.7703V105.352H103.641V93.262Z" fill="#35B55A"/>
<path d="M123.253 93.262H111.382V105.352H123.253V93.262Z" fill="#191919"/>
<path d="M84.0193 112.847H72.1487V124.937H84.0193V112.847Z" fill="#191919"/>
<path d="M103.641 112.847H91.7703V124.937H103.641V112.847Z" fill="#191919"/>
<path d="M109.178 145.205H90.812V169.99H109.178V145.205Z" fill="#97CA4E"/>
<path d="M123.253 112.847H111.382V124.937H123.253V112.847Z" fill="#97CA4E"/>
<path d="M30.6443 159.12H20V169.961H30.6443V159.12Z" fill="#333333"/>
<path d="M30.6443 137.437H20V148.278H30.6443V137.437Z" fill="#189647"/>
<path d="M44.9198 148.278H33.3845V159.12H44.9198V148.278Z" fill="#333333"/>
<path d="M57.6816 159.12H47.0374V169.961H57.6816V159.12Z" fill="#191919"/>
<path d="M57.6816 126.596H47.0374V137.437H57.6816V126.596Z" fill="#333333"/>
<path d="M31.8035 125.415H20.0095V137.427H31.8035V125.415Z" fill="#191919"/>
<path d="M47.0467 91.6714H20V102.513H47.0467V91.6714Z" fill="#191919"/>
<path d="M44.9198 80.8301H33.3845V91.6714H44.9198V80.8301Z" fill="#333333"/>
<path d="M31.8035 102.513H20.0095V114.525H31.8035V102.513Z" fill="#333333"/>
<path d="M152.953 159.12H142.309V169.961H152.953V159.12Z" fill="#333333"/>
<path d="M168.196 137.437H154.113V149.283H168.196V137.437Z" fill="#333333"/>
<path d="M154.113 102.513H142.319V114.525H154.113V102.513Z" fill="#AADAF5"/>
<path d="M154.113 125.415H142.319V137.427H154.113V125.415Z" fill="#333333"/>
<path d="M179.991 102.513H168.197V114.525H179.991V102.513Z" fill="#333333"/>
<path d="M179.991 125.396H168.197V137.408H179.991V125.396Z" fill="#189647"/>
<path d="M180 80.8301H152.953V91.6714H180V80.8301Z" fill="#191919"/>
<path d="M154.113 102.513H142.319V114.525H154.113V102.513Z" fill="#AADAF5"/>
<path d="M169.365 114.554H142.319V125.395H169.365V114.554Z" fill="#191919"/>
<path d="M57.6816 102.542H46.1462V114.291H57.6816V102.542Z" fill="#189647"/>
<path d="M166.98 90.5005H155.186V102.513H166.98V90.5005Z" fill="#333333"/>
<path d="M154.41 102.21H142.319V114.525H154.41V102.21Z" fill="#333333"/>
</svg>
