<svg width="200" height="200" viewBox="0 0 200 200" fill="none" xmlns="http://www.w3.org/2000/svg">
<path d="M64.0839 32.4517H145.329V36.5351L143.909 38.3855L141.271 40.6107V158.163L138.912 162.442L133.107 168.368L128.258 166.861L125.084 161.833L121.832 154.502H53.9419V42.6563L64.0839 32.4517Z" fill="#3B3735"/>
<path d="M65.1859 96.0144L130.671 96.0144V89.5183L65.1859 89.5183V96.0144Z" fill="#37AB4B"/>
<path d="M65.6512 108.913L131.136 108.913V102.417L65.6512 102.417V108.913Z" fill="#0C9039"/>
<path d="M65.6512 121.819L131.136 121.819V115.323L65.6512 115.323V121.819Z" fill="#A0C639"/>
<path d="M65.6589 134.724H103.077V128.228H65.6589V134.724Z" fill="#BBE0F8"/>
<path d="M37.4834 159.795L46.0425 169.016L128.009 167.493L127.427 163.879L123.369 159.795V154.095H37.4834V159.795Z" fill="#23201D"/>
<path d="M156.783 34.0836V38.167H160.841V34.0836H156.783Z" fill="#23201D"/>
<path d="M160.841 38.1668V48.4651H164.899V38.1668H160.841Z" fill="#23201D"/>
<path d="M60.3359 30.0001V34.0835L156.775 34.0835V30.0001L60.3359 30.0001Z" fill="#3B3735"/>
<path d="M60.3438 34.0836V38.167H64.4021V34.0836H60.3438Z" fill="#3B3735"/>
<path d="M43.1167 165.917V170H136.033V165.917H43.1167Z" fill="#23201D"/>
<path d="M56.2852 34.0836V38.167H60.3435V34.0836H56.2852Z" fill="#3B3735"/>
<path d="M143.622 44.3817V48.4651H161.726V44.3817H143.622Z" fill="#23201D"/>
<path d="M56.2852 38.1668V42.2502H60.3435V38.1668H56.2852Z" fill="#3B3735"/>
<path d="M39.0586 161.833V165.916H43.117V161.833H39.0586Z" fill="#23201D"/>
<path d="M35 157.758V161.841H39.0584V157.758H35Z" fill="#23201D"/>
<path d="M39.0586 152.058V156.141H121.336V152.058H39.0586Z" fill="#23201D"/>
<path d="M35 152.05V157.75H39.0584V152.05H35Z" fill="#23201D"/>
<path d="M125.394 161.833V165.916H129.452V161.833H125.394Z" fill="#23201D"/>
<path d="M135.505 161.833V165.916H139.563V161.833H135.505Z" fill="#23201D"/>
<path d="M121.335 157.75V161.833H125.394V157.75H121.335Z" fill="#23201D"/>
<path d="M121.335 152.05V157.75H125.394V152.05H121.335Z" fill="#23201D"/>
<path d="M143.622 34.0758V38.1592H147.68V34.0758H143.622Z" fill="#23201D"/>
<path d="M139.563 38.1671V161.833H143.622V38.1671H139.563Z" fill="#23201D"/>
<path d="M52.2266 38.167L52.2266 152.058H56.2849L56.2849 38.167H52.2266Z" fill="#3B3735"/>
<path d="M147.68 30V34.0835H156.79V30H147.68Z" fill="#23201D"/>
<path d="M143.459 46.0215L162.486 46.4275L162.051 39.2053L159.452 37.0816L155.277 32.4517L149.853 32.0457L146.819 34.9501L141.938 39.7518V46.6227L143.459 46.0215Z" fill="#23201D"/>
<path d="M91.7168 49.1916V53.0955H104.078V49.1916H91.7168Z" fill="#23201D"/>
<path d="M107.903 69.1946H111.783V56.757H107.903V69.1946Z" fill="#23201D"/>
<path d="M84.0654 69.1946H87.9453V56.757H84.0654V69.1946Z" fill="#23201D"/>
<path d="M91.7166 52.9705H87.9453V56.765H91.7166V52.9705Z" fill="#23201D"/>
<path d="M107.904 52.9705H104.132V56.765H107.904V52.9705Z" fill="#23201D"/>
<path d="M104.101 76.7684V72.8645H91.7397V76.7684H104.101Z" fill="#23201D"/>
<path d="M104.101 72.9973H107.872V69.2028H104.101V72.9973Z" fill="#23201D"/>
<path d="M87.9216 72.9973H91.6929V69.2028H87.9216V72.9973Z" fill="#23201D"/>
<path d="M86.6802 58.0063L93.928 51.1355H102.611L109.347 58.3186V67.7269L101.463 75.4175L92.7794 73.5515L91.7474 72.9892L85.3223 66.6416L86.6802 58.0063Z" fill="#23201D"/>
<path d="M120.043 127.375L117.312 125.46L115.408 128.207L118.139 130.123L120.043 127.375Z" fill="#0C9039"/>
<path d="M151.229 79.4415L148.498 77.5261L117.919 121.663L120.65 123.579L151.229 79.4415Z" fill="#23201D"/>
<path d="M159.918 85.6032L157.188 83.6877L126.609 127.825L129.339 129.74L159.918 85.6032Z" fill="#23201D"/>
<path d="M148.987 77.9312L147.083 80.679L155.862 86.8361L157.766 84.0883L148.987 77.9312Z" fill="#23201D"/>
<path d="M138.88 91.0747L136.977 93.8225L145.755 99.9796L147.659 97.2318L138.88 91.0747Z" fill="#23201D"/>
<path d="M134.843 96.9082L132.939 99.656L141.717 105.813L143.621 103.065L134.843 96.9082Z" fill="#23201D"/>
<path d="M125.777 131.388L119.437 126.941L117.533 129.689L123.874 134.136L125.777 131.388Z" fill="#0C9039"/>
<path d="M165 89.0978L162.269 87.1824L160.365 89.9301L163.096 91.8456L165 89.0978Z" fill="#3B3735"/>
<path d="M162.677 87.4767L159.946 85.5613L158.043 88.3091L160.774 90.2245L162.677 87.4767Z" fill="#3B3735"/>
<path d="M163.101 91.8493L160.37 89.9338L143.201 114.715L145.932 116.631L163.101 91.8493Z" fill="#3B3735"/>
<path d="M153.161 76.6506L150.43 74.7351L146.4 80.5509L149.131 82.4663L153.161 76.6506Z" fill="#23201D"/>
<path d="M161.052 78.1055L155.062 73.9041L153.158 76.6518L159.148 80.8533L161.052 78.1055Z" fill="#23201D"/>
<path d="M161.86 82.8752L159.129 80.9597L155.162 86.6858L157.893 88.6013L161.86 82.8752Z" fill="#23201D"/>
<path d="M119.209 135.022L116.479 133.107L114.575 135.854L117.306 137.77L119.209 135.022Z" fill="#A0C639"/>
<path d="M146.31 105.243L134.858 97.2107L117.885 121.71L129.337 129.742L146.31 105.243Z" fill="#37AB4B"/>
<path d="M158.051 88.307L146.599 80.2747L136.801 94.417L148.253 102.449L158.051 88.307Z" fill="#37AB4B"/>
<path d="M148.62 101.928L137.168 93.8953L134.075 98.3596L145.527 106.392L148.62 101.928Z" fill="#A0C639"/>
<path d="M161.897 82.7479L150.445 74.7156L146.589 80.2816L158.041 88.314L161.897 82.7479Z" fill="#3B3735"/>
<path d="M161.053 78.1027L154.662 73.6199L152.772 76.3484L159.163 80.8311L161.053 78.1027Z" fill="#A0C639"/>
<path d="M119.746 131.312L117.016 129.396L115.112 132.144L117.843 134.059L119.746 131.312Z" fill="#0C9039"/>
<path d="M122.507 133.189L119.776 131.274L117.873 134.021L120.604 135.937L122.507 133.189Z" fill="#0C9039"/>
<path d="M128.523 129.173L117.885 121.712L115.982 124.459L126.619 131.92L128.523 129.173Z" fill="#0C9039"/>
<path d="M129.342 129.735L126.611 127.82L124.707 130.568L127.438 132.483L129.342 129.735Z" fill="#0C9039"/>
</svg>
