<svg width="200" height="200" viewBox="0 0 200 200" fill="none" xmlns="http://www.w3.org/2000/svg">
<path d="M141.365 45.2739H45.1934V169.99H141.365V45.2739Z" fill="#333333"/>
<path d="M66.9066 45.2739H74.7588V37.637H66.9066V45.2739Z" fill="#35B55A"/>
<path d="M74.7689 37.6367H82.6211V29.9998H74.7689V37.6367Z" fill="#35B55A"/>
<path d="M133.513 169.99H141.365L141.365 45.2739H133.513L133.513 169.99Z" fill="#191919"/>
<path d="M140.846 170V162.363H45.0002V170H140.846Z" fill="#191919"/>
<path d="M82.6214 37.6367H90.4736V29.9998H82.6214V37.6367Z" fill="#35B55A"/>
<path d="M90.4837 37.6367H98.3359V29.9998H90.4837V37.6367Z" fill="#35B55A"/>
<path d="M98.326 37.6367H106.178V29.9998H98.326V37.6367Z" fill="#35B55A"/>
<path d="M106.178 37.6367H114.03V29.9998H106.178V37.6367Z" fill="#189647"/>
<path d="M57.0584 76.8516H64.9106V69.2147H57.0584V76.8516Z" fill="#97CA4E"/>
<path d="M64.9105 84.4785H72.7627V76.8416H64.9105V84.4785Z" fill="#AADAF5"/>
<path d="M57.0584 92.3037H64.9106V84.6668H57.0584V92.3037Z" fill="#345FAC"/>
<path d="M74.7689 52.9009H82.6211V45.264H74.7689V52.9009Z" fill="#35B55A"/>
<path d="M82.6214 52.9009H90.4736V45.264H82.6214V52.9009Z" fill="#35B55A"/>
<path d="M90.4837 52.9009H98.3359V45.264H90.4837V52.9009Z" fill="#35B55A"/>
<path d="M98.326 52.9009H106.178V45.264H98.326V52.9009Z" fill="#35B55A"/>
<path d="M106.178 52.9009H114.03V45.264H106.178V52.9009Z" fill="#35B55A"/>
<path d="M114.04 45.2739H121.893V37.637H114.04V45.2739Z" fill="#189647"/>
<path d="M66.9066 52.9009H74.7588V45.264H66.9066V52.9009Z" fill="#35B55A"/>
<path d="M114.04 52.9009H121.893V45.264H114.04V52.9009Z" fill="#189647"/>
<path d="M114.03 37.627H74.6978V49.0972H114.03V37.627Z" fill="#35B55A"/>
<path d="M106.916 142.266L118.407 148.76L121.227 144.041L109.735 137.547L106.916 142.266Z" fill="#97CA4E"/>
<path d="M105.382 147.72L109.926 150.288L112.745 145.569L108.201 143.001L105.382 147.72Z" fill="#97CA4E"/>
<path d="M104.798 153.692L109.341 156.26L112.161 151.541L107.617 148.973L104.798 153.692Z" fill="#35B55A"/>
<path d="M109.758 150.18L114.302 152.748L117.121 148.029L112.577 145.461L109.758 150.18Z" fill="#97CA4E"/>
<path d="M136.692 92.428L148.271 98.9722L155 87.7101L143.421 81.166L136.692 92.428Z" fill="#333333"/>
<path d="M109.735 137.552L121.315 144.096L148.608 98.4143L137.029 91.8702L109.735 137.552Z" fill="#35B55A"/>
</svg>
