<svg width="200" height="200" viewBox="0 0 200 200" fill="none" xmlns="http://www.w3.org/2000/svg">
<path d="M97.172 170H102.123V164.949H97.172V170Z" fill="#189647"/>
<path d="M94.7059 164.958H99.6565V159.908H94.7059V164.958Z" fill="#35B55A"/>
<path d="M99.6383 164.958H104.589V159.908H99.6383V164.958Z" fill="#189647"/>
<path d="M139.685 51.4038H132.369V58.8671H139.685V51.4038Z" fill="#191919"/>
<path d="M147 58.3794H139.685V65.8427H147V58.3794Z" fill="#191919"/>
<path d="M139.685 95.677H132.369V103.14H139.685V95.677Z" fill="#191919"/>
<path d="M146.991 88.2231V80.7598H139.675V88.2231H146.991Z" fill="#191919"/>
<path d="M147 95.6862V88.2229H139.685V95.6862H147Z" fill="#191919"/>
<path d="M146.991 80.7597V73.2964H139.675V80.7597H146.991Z" fill="#191919"/>
<path d="M147 73.3058V65.8425H139.685V73.3058H147Z" fill="#191919"/>
<path d="M59.3155 58.8674H52V66.3307H59.3155V58.8674Z" fill="#333333"/>
<path d="M59.3157 88.7016V81.2383H52.0002V88.7016H59.3157Z" fill="#333333"/>
<path d="M59.3157 96.165V88.7017H52.0002V96.165H59.3157Z" fill="#333333"/>
<path d="M59.3157 81.248V73.7847H52.0002V81.248H59.3157Z" fill="#333333"/>
<path d="M59.3157 73.7846V66.3213H52.0002V73.7846H59.3157Z" fill="#333333"/>
<path d="M94.7059 159.908H99.6565V154.858H94.7059V159.908Z" fill="#35B55A"/>
<path d="M99.6383 159.908H104.589V154.858H99.6383V159.908Z" fill="#189647"/>
<path d="M97.181 154.858H102.132V149.807H97.181V154.858Z" fill="#35B55A"/>
<path d="M102.104 154.858H107.055V149.807H102.104V154.858Z" fill="#189647"/>
<path d="M92.2305 154.858H97.1812V149.807H92.2305V154.858Z" fill="#35B55A"/>
<path d="M97.181 149.797H102.132V144.747H97.181V149.797Z" fill="#35B55A"/>
<path d="M102.104 149.797H107.055V144.747H102.104V149.797Z" fill="#189647"/>
<path d="M92.2305 149.797H97.1812V144.747H92.2305V149.797Z" fill="#35B55A"/>
<path d="M97.181 144.747H102.132V139.696H97.181V144.747Z" fill="#35B55A"/>
<path d="M102.104 144.747H107.055V139.696H102.104V144.747Z" fill="#189647"/>
<path d="M92.2305 144.747H97.1812V139.696H92.2305V144.747Z" fill="#35B55A"/>
<path d="M97.181 139.696H102.132V134.646H97.181V139.696Z" fill="#35B55A"/>
<path d="M102.104 139.696H107.055V134.646H102.104V139.696Z" fill="#189647"/>
<path d="M92.2305 139.696H97.1812V134.646H92.2305V139.696Z" fill="#35B55A"/>
<path d="M97.181 134.646H102.132V129.595H97.181V134.646Z" fill="#35B55A"/>
<path d="M102.104 134.646H107.055V129.595H102.104V134.646Z" fill="#189647"/>
<path d="M92.2305 134.646H97.1812V129.595H92.2305V134.646Z" fill="#35B55A"/>
<path d="M97.181 129.585H102.132V124.535H97.181V129.585Z" fill="#35B55A"/>
<path d="M102.104 129.585H107.055V124.535H102.104V129.585Z" fill="#189647"/>
<path d="M92.2305 129.585H97.1812V124.535H92.2305V129.585Z" fill="#35B55A"/>
<path d="M125.063 37.4634H117.748V44.9267H125.063V37.4634Z" fill="#191919"/>
<path d="M132.369 44.429H125.054V51.8923H132.369V44.429Z" fill="#191919"/>
<path d="M73.8637 44.917H81.1792V37.4537H73.8637V44.917Z" fill="#333333"/>
<path d="M66.5573 51.9016H73.8728V44.4383H66.5573V51.9016Z" fill="#333333"/>
<path d="M59.2419 58.8674H66.5574V51.4042H59.2419V58.8674Z" fill="#333333"/>
<path d="M103.126 30H95.8101V37.4633H103.126V30Z" fill="#333333"/>
<path d="M110.432 30H103.116V37.4633H110.432V30Z" fill="#333333"/>
<path d="M117.747 30H110.432V37.4633H117.747V30Z" fill="#191919"/>
<path d="M95.8101 30H88.4946V37.4633H95.8101V30Z" fill="#333333"/>
<path d="M88.4947 30H81.1792V37.4633H88.4947V30Z" fill="#333333"/>
<path d="M125.063 109.618H117.748V117.081H125.063V109.618Z" fill="#191919"/>
<path d="M132.369 102.652H125.054V110.115H132.369V102.652Z" fill="#191919"/>
<path d="M73.8637 117.081H81.1792V109.618H73.8637V117.081Z" fill="#333333"/>
<path d="M66.5573 110.106H73.8728V102.643H66.5573V110.106Z" fill="#333333"/>
<path d="M59.2419 103.14H66.5574V95.6768H59.2419V103.14Z" fill="#333333"/>
<path d="M103.126 117.081H95.8101V124.544H103.126V117.081Z" fill="#333333"/>
<path d="M110.432 117.081H103.116V124.544H110.432V117.081Z" fill="#333333"/>
<path d="M117.747 117.081H110.432V124.544H117.747V117.081Z" fill="#191919"/>
<path d="M110.432 117.081H103.116V124.544H110.432V117.081Z" fill="#333333"/>
<path d="M95.8101 117.081H88.4946V124.544H95.8101V117.081Z" fill="#333333"/>
<path d="M88.4947 117.081H81.1792V124.544H88.4947V117.081Z" fill="#333333"/>
<path d="M59.1868 58.8675H66.5575V51.8924H73.8729V44.9173H81.1792V37.4634H117.747V44.9173H125.054V51.8924H132.369V58.8675H139.685V95.677H132.369V102.652H125.054V109.618H117.747V117.081H81.1792V109.618H73.8729V102.652H66.5575V95.677H59.242L59.1868 58.8675Z" fill="#333333"/>
<path d="M77.5261 62.3503H84.8416V54.8871H77.5261V62.3503Z" fill="#35B55A"/>
<path d="M84.8322 55.375H92.1477V47.9117H84.8322V55.375Z" fill="#AADAF5"/>
<path d="M70.2104 69.3252H77.5259V61.8619H70.2104V69.3252Z" fill="#35B55A"/>
<path d="M62.895 76.291H70.2104V68.8277H62.895V76.291Z" fill="#97CA4E"/>
<path d="M62.895 83.7637H70.2104V76.3004H62.895V83.7637Z" fill="#97CA4E"/>
<path d="M103.089 117.081H95.7732V124.544H103.089V117.081Z" fill="#333333"/>
<path d="M95.8101 117.081H88.4946V124.544H95.8101V117.081Z" fill="#333333"/>
<path d="M88.4947 117.081H81.1792V124.544H88.4947V117.081Z" fill="#333333"/>
<path d="M117.747 109.618H110.432V117.081H117.747V109.618Z" fill="#333333"/>
<path d="M125.063 102.652H117.748V110.115H125.063V102.652Z" fill="#333333"/>
<path d="M132.369 95.677H125.054V103.14H132.369V95.677Z" fill="#333333"/>
<path d="M139.685 88.2134H132.369V95.6767H139.685V88.2134Z" fill="#191919"/>
</svg>
