<svg width="200" height="200" viewBox="0 0 200 200" fill="none" xmlns="http://www.w3.org/2000/svg">
<g clip-path="url(#clip0_201_572)">
<path d="M146.531 87.1174H138.062V95.5724H146.531V87.1174Z" fill="#191919"/>
<path d="M155 95.0215H146.531V103.476H155V95.0215Z" fill="#191919"/>
<path d="M155 128.834V120.379H146.531V128.834H155Z" fill="#191919"/>
<path d="M155 137.289V128.834H146.531V137.289H155Z" fill="#191919"/>
<path d="M155 120.386V111.931H146.531V120.386H155Z" fill="#191919"/>
<path d="M154.993 111.931V103.476H146.524V111.931H154.993Z" fill="#191919"/>
<path d="M53.4687 95.5723H45V104.027H53.4687V95.5723Z" fill="#333333"/>
<path d="M53.4688 129.392V120.937H45V129.392H53.4688Z" fill="#333333"/>
<path d="M53.4614 137.847V129.392H44.9927V137.847H53.4614Z" fill="#333333"/>
<path d="M53.4688 120.937V112.482H45V120.937H53.4688Z" fill="#333333"/>
<path d="M53.4688 112.482V104.027H45V112.482H53.4688Z" fill="#333333"/>
<path d="M129.594 71.3162H121.125V79.7711H129.594V71.3162Z" fill="#191919"/>
<path d="M138.062 79.2202H129.594V87.6751H138.062V79.2202Z" fill="#191919"/>
<path d="M70.3199 79.7783H78.7886V71.3234H70.3199V79.7783Z" fill="#333333"/>
<path d="M61.8584 87.6753H70.3271V79.2204H61.8584V87.6753Z" fill="#333333"/>
<path d="M70.356 63.3477H78.8247V54.8927H70.356V63.3477Z" fill="#333333"/>
<path d="M61.8584 54.8928H70.3271V46.4379H61.8584V54.8928Z" fill="#333333"/>
<path d="M61.8513 46.9099L138.062 46.9099V38.455L61.8513 38.455V46.9099Z" fill="#333333"/>
<path d="M121.125 63.3477H129.594V54.8927H121.125V63.3477Z" fill="#333333"/>
<path d="M129.594 54.8928H138.062V46.4379H129.594V54.8928Z" fill="#333333"/>
<path d="M121.125 38.4548H129.594V29.9999H121.125V38.4548Z" fill="#333333"/>
<path d="M112.664 38.4548H121.132V29.9999H112.664V38.4548Z" fill="#333333"/>
<path d="M70.3199 38.4548H78.7886V29.9999H70.3199V38.4548Z" fill="#333333"/>
<path d="M78.1153 38.4548H86.584V29.9999H78.1153V38.4548Z" fill="#333333"/>
<path d="M86.5767 38.4548H112.656V29.9999L86.5767 29.9999V38.4548Z" fill="#333333"/>
<path d="M53.3897 95.5723H61.8584V87.1173H53.3897V95.5723Z" fill="#333333"/>
<path d="M129.594 161.545H121.125V170H129.594V161.545Z" fill="#333333"/>
<path d="M138.062 161.545H129.594V170H138.062V161.545Z" fill="#333333"/>
<path d="M70.3199 169.993H78.7886V161.538H70.3199V169.993Z" fill="#333333"/>
<path d="M61.8873 169.993H70.356V161.538H61.8873V169.993Z" fill="#333333"/>
<path d="M53.3897 169.993H61.8584V161.538H53.3897V169.993Z" fill="#333333"/>
<path d="M104.195 161.545H95.7261V170H104.195V161.545Z" fill="#333333"/>
<path d="M112.664 161.545H104.195V170H112.664V161.545Z" fill="#333333"/>
<path d="M121.125 161.545H112.656V170H121.125V161.545Z" fill="#333333"/>
<path d="M112.664 161.545H104.195V170H112.664V161.545Z" fill="#333333"/>
<path d="M95.726 161.545H87.2573V170H95.726V161.545Z" fill="#333333"/>
<path d="M87.2573 161.545H78.7886V170H87.2573V161.545Z" fill="#333333"/>
<path d="M78.7886 71.7954H121.125V63.3405L78.7886 63.3405V71.7954Z" fill="#35B55A"/>
<path d="M112.664 72.0815H121.132V63.6266H112.664V72.0815Z" fill="#269249"/>
<path d="M104.159 161.545H95.6904V170H104.159V161.545Z" fill="#333333"/>
<path d="M95.726 161.545H87.2573V170H95.726V161.545Z" fill="#333333"/>
<path d="M87.2573 161.545H78.7886V170H87.2573V161.545Z" fill="#333333"/>
<path d="M53.4687 153.09H45V161.545H53.4687V153.09Z" fill="#333333"/>
<path d="M155 153.09H146.531V161.545H155V153.09Z" fill="#191919"/>
<path d="M53.4687 144.635H45V153.09H53.4687V144.635Z" fill="#333333"/>
<path d="M53.4687 136.738H45V145.193H53.4687V136.738Z" fill="#333333"/>
<path d="M155 144.635H146.531V153.09H155V144.635Z" fill="#191919"/>
<path d="M155 136.738H146.531V145.193H155V136.738Z" fill="#191919"/>
<path d="M78.7885 63.3476L78.8244 54.8927H70.3198V46.4377H129.594V54.8927H121.125V63.3476H78.7885Z" fill="#333333"/>
<path d="M53.3896 95.5722H61.8512V87.6752H70.3199V79.7711H78.7886V71.3162H121.125V79.7711H129.594V87.6752H138.062V95.5722H146.531V161.545H53.4685L53.3896 95.5722Z" fill="#333333"/>
<path d="M87.544 103.355H116.103V97.2389H87.544V103.355Z" fill="#35B55A"/>
<path d="M87.544 115.179H116.103V109.063H87.544V115.179Z" fill="#35B55A"/>
<path d="M104.488 109.07H110.614V102.954H104.488V109.07Z" fill="#35B55A"/>
<path d="M104.488 120.465H110.614V114.349H104.488V120.465Z" fill="#35B55A"/>
<path d="M98.5778 126.009H104.704V119.893H98.5778V126.009Z" fill="#35B55A"/>
<path d="M93.025 132.096H99.1509V125.98H93.025V132.096Z" fill="#35B55A"/>
<path d="M98.8429 137.804H104.969V131.688H98.8429V137.804Z" fill="#35B55A"/>
<path d="M104.131 143.519H110.256V137.403H104.131V143.519Z" fill="#35B55A"/>
<path d="M129.594 54.8855H121.125V63.3404H129.594V54.8855Z" fill="#191919"/>
<path d="M138.062 46.4448H129.594V54.8998H138.062V46.4448Z" fill="#191919"/>
<path d="M138.062 38.4548H129.594V46.9098H138.062V38.4548Z" fill="#191919"/>
<path d="M129.594 30.0071H121.125V38.462H129.594V30.0071Z" fill="#191919"/>
<path d="M146.531 161.545H53.4688V170H146.531V161.545Z" fill="#191919"/>
</g>
<defs>
<clipPath id="clip0_201_572">
<rect width="110" height="140" fill="white" transform="translate(45 30)"/>
</clipPath>
</defs>
</svg>
