<svg width="104" height="82" viewBox="0 0 104 82" fill="none" xmlns="http://www.w3.org/2000/svg">
<g clip-path="url(#clip0_201_63)">
<path d="M19.1927 42.104H13.0747V12.1567H28.1197V18.2747H19.1927V24.0595H28.1197V30.1774H19.1927V42.104Z" fill="#1A1A1A"/>
<path d="M37.0467 35.9622H42.8314V18.2747H37.0467V35.9622ZM33.9044 42.104V39.1045H30.9287V15.1324H33.9044V12.1567H45.9737V15.1324H48.9494V39.1045H45.9737V42.104H33.9044ZM31.0953 12.252H33.9044V15.1324H31.0953V12.252ZM45.9737 12.1567H48.9494V15.1323H45.9737V12.1567ZM45.9737 39.1044H48.9494V42.0087H45.9737V39.1044ZM30.9287 39.1044H33.9044V42.1039H30.9287V39.1044Z" fill="#1A1A1A"/>
<path d="M66.8036 42.104H51.7585V35.9622H63.6612V30.1774H54.7342V27.2018H51.7585V15.1324H54.7342V12.1567H69.7792V18.2747H57.8765V24.0595H66.8036V27.0351H69.7792V39.1045H66.8036V42.104ZM51.9252 12.252H54.7342V15.1324H51.9252V12.252ZM51.7585 27.2018H54.7342V30.1774H51.7585V27.2018ZM66.8036 24.0595H69.7792V27.0351H66.8036V24.0595ZM66.8036 39.1045H69.7792V42.0087H66.8036V39.1045Z" fill="#1A1A1A"/>
<path d="M87.6331 42.104H72.5881V35.9622H84.4908V30.1774H75.5638V27.2018H72.5881V15.1324H75.5638V12.1567H90.6088V18.2747H78.7061V24.0595H87.6331V27.0351H90.6088V39.1045H87.6331V42.104ZM72.7548 12.252H75.5638V15.1324H72.7548V12.252ZM72.5881 27.2018H75.5638V30.1774H72.5881V27.2018ZM87.6332 24.0595H90.6088V27.0351H87.6332V24.0595ZM87.6332 39.1045H90.6088V42.0087H87.6332V39.1045Z" fill="#1A1A1A"/>
<path d="M15.2237 69.462V67.2908H13.0732V47.7841H17.4946V65.0161H21.6751V47.7841H26.0964V67.2908H23.946V69.462H15.2237ZM13.0732 67.2908H15.2237V69.462H13.0732V67.2908ZM23.946 67.2908H26.0964V69.3931H23.946V67.2908Z" fill="#1A1A1A"/>
<path d="M32.5478 69.462H28.1265V47.7841H41.1497V69.462H36.7283V52.2127H32.5478V69.462Z" fill="#1A1A1A"/>
<path d="M47.601 69.462H43.1797V47.7841H47.601V69.462Z" fill="#1A1A1A"/>
<path d="M58.3534 69.462H53.932V52.2127H49.6311V47.7841H62.6543V52.2127H58.3534V69.462Z" fill="#1A1A1A"/>
<path d="M75.5571 69.462H64.6843V47.7841H75.5571V52.2127H69.1057V56.4001H75.5571V60.8287H69.1057V65.0161H75.5571V69.462Z" fill="#1A1A1A"/>
<path d="M82.0085 65.0161H86.189V52.2127H82.0085V65.0161ZM77.5872 69.462V47.7841H88.4599V49.9381H90.6104V67.2908H88.4599V69.462H77.5872Z" fill="#1A1A1A"/>
<path d="M101.163 2.76077H2.52075V78.858H101.163V2.76077Z" stroke="#1A1A1A" stroke-width="3.99999"/>
</g>
<defs>
<clipPath id="clip0_201_63">
<rect width="104" height="81" fill="white" transform="translate(0 0.5)"/>
</clipPath>
</defs>
</svg>
