<svg width="200" height="200" viewBox="0 0 200 200" fill="none" xmlns="http://www.w3.org/2000/svg">
<path d="M121.241 158.19H132.667V139.374H121.241V158.19Z" fill="#191919"/>
<path d="M45 30.0105V170H111.333H118.59H120.17H121.231V168.916L131.721 158.2L132.366 158.19V157.541L143.283 146.38H143.49V146.167L154.719 134.697H154.99V134.421V134.24V30.0105H45Z" fill="#333333"/>
<path d="M121.241 170H132.667V134.697H121.241V170Z" fill="#191919"/>
<path d="M132.355 158.19H143.782V139.374H132.355V158.19Z" fill="#191919"/>
<path d="M121.335 146.38H155V134.697H121.335V146.38Z" fill="#191919"/>
<path d="M143.563 137.344H154.99V30H143.563V137.344Z" fill="#191919"/>
<path d="M66.8129 64.9734L133.177 64.9734V53.2908L66.8129 53.2908V64.9734Z" fill="#35B55A"/>
<path d="M66.8129 88.2642L133.177 88.2642V76.5815L66.8129 76.5815V88.2642Z" fill="#35B55A"/>
<path d="M66.8129 111.555L133.177 111.555V99.8726L66.8129 99.8726V111.555Z" fill="#97CA4E"/>
<path d="M66.8127 134.176H95.4668V122.493H66.8127V134.176Z" fill="#AADAF5"/>
</svg>
