<svg width="80" height="80" viewBox="0 0 80 80" fill="none" xmlns="http://www.w3.org/2000/svg">
<path fill-rule="evenodd" clip-rule="evenodd" d="M23.2189 39.9857C10.929 39.9857 0.966064 30.0228 0.966064 17.7329V0.642746H40.309V39.9857H23.2189ZM10.1118 20.3143H34.0674C34.3937 24.1438 32.5528 31.8027 22.579 31.8027C12.6053 31.8027 10.1118 24.1438 10.1118 20.3143Z" fill="#1A1A1A"/>
<path fill-rule="evenodd" clip-rule="evenodd" d="M57.4305 39.9857C69.7204 39.9857 79.6833 49.9487 79.6833 62.2386V79.3287H40.3403V39.9857H57.4305ZM69.9035 60.1546C70.0313 61.655 69.3627 63.9114 67.7808 65.7997C66.2175 67.6659 63.7871 69.1409 60.4183 69.1409C57.3959 69.1409 54.808 67.6709 52.9621 65.7692C51.0975 63.8482 50.0794 61.582 50.0794 60.1069H48.9571C48.9571 61.98 50.1773 64.5114 52.1568 66.5508C54.1552 68.6097 57.0172 70.2631 60.4183 70.2631C64.1522 70.2631 66.8867 68.6147 68.6411 66.5204C70.377 64.4481 71.1792 61.907 71.0217 60.0593L69.9035 60.1546Z" fill="#1A1A1A"/>
<path fill-rule="evenodd" clip-rule="evenodd" d="M79.6833 39.9857H62.5932C50.3033 39.9857 40.3403 30.0228 40.3403 17.7329V0.642708H79.6833V39.9857ZM50.751 13.7351C50.1688 14.4284 49.9375 15.2428 49.9809 15.7503L49.0692 15.8281C49.0016 15.0367 49.3422 13.9899 50.0502 13.1467C50.7733 12.2855 51.9014 11.6092 53.4308 11.6092C54.8336 11.6092 56.0049 12.2896 56.8146 13.1218C57.6089 13.9383 58.1268 14.9772 58.1268 15.7892L57.2118 15.7892C57.2118 15.3024 56.8593 14.48 56.1587 13.7599C55.4736 13.0557 54.5257 12.5242 53.4308 12.5242C52.1982 12.5242 51.318 13.0598 50.751 13.7351ZM64.0044 15.7504C63.9611 15.2423 64.1918 14.4276 64.7716 13.7344C65.3363 13.0591 66.2125 12.5242 67.4389 12.5242C68.5282 12.5242 69.4718 13.0551 70.1542 13.7592C70.8518 14.4791 71.2032 15.3017 71.2032 15.7892H72.1182C72.1182 14.9778 71.6026 13.9391 70.8113 13.1225C70.0048 12.2902 68.8375 11.6092 67.4389 11.6092C65.9142 11.6092 64.79 12.2861 64.0697 13.1473C63.3644 13.9906 63.0254 15.0372 63.0926 15.828L64.0044 15.7504Z" fill="#22B34F"/>
<path fill-rule="evenodd" clip-rule="evenodd" d="M18.0562 39.9858H0.966064V79.3288H40.309V62.2386C40.309 49.9487 30.3461 39.9858 18.0562 39.9858ZM17.4607 55.9834C17.4607 58.0127 15.8156 59.6577 13.7863 59.6577C11.7571 59.6577 10.112 58.0127 10.112 55.9834C10.112 53.9541 11.7571 52.309 13.7863 52.309C15.8156 52.309 17.4607 53.9541 17.4607 55.9834ZM31.3237 55.9834C31.3237 58.0127 29.6787 59.6577 27.6494 59.6577C25.6201 59.6577 23.975 58.0127 23.975 55.9834C23.975 53.9541 25.6201 52.309 27.6494 52.309C29.6787 52.309 31.3237 53.9541 31.3237 55.9834Z" fill="#22B34F"/>
</svg>
