<svg width="200" height="200" viewBox="0 0 200 200" fill="none" xmlns="http://www.w3.org/2000/svg">
<path d="M131.833 46.6672H126.041V52.4775H131.833V46.6672Z" fill="#191919"/>
<path d="M137.625 52.1011H131.833V57.9114H137.625V52.1011Z" fill="#191919"/>
<path d="M131.833 81.1526H126.041V86.9629H131.833V81.1526Z" fill="#191919"/>
<path d="M137.625 75.3423V69.532H131.833V75.3423H137.625Z" fill="#191919"/>
<path d="M137.625 81.1526V75.3423H131.833V81.1526H137.625Z" fill="#191919"/>
<path d="M137.625 69.532V63.7217H131.833V69.532H137.625Z" fill="#191919"/>
<path d="M137.625 63.7217V57.9114H131.833V63.7217H137.625Z" fill="#191919"/>
<path d="M68.1783 52.4775H62.3865V58.2878H68.1783V52.4775Z" fill="#333333"/>
<path d="M68.1782 75.7185V69.9082H62.3864V75.7185H68.1782Z" fill="#333333"/>
<path d="M68.1782 81.529V75.7188H62.3864V81.529H68.1782Z" fill="#333333"/>
<path d="M68.1782 69.9084V64.0981H62.3864V69.9084H68.1782Z" fill="#333333"/>
<path d="M68.1782 64.0979V58.2876H62.3864V64.0979H68.1782Z" fill="#333333"/>
<path d="M120.249 35.8103H114.457V41.6206H120.249V35.8103Z" fill="#191919"/>
<path d="M126.041 41.2332H120.249V47.0434H126.041V41.2332Z" fill="#191919"/>
<path d="M79.6958 41.6094H85.4875V35.7991H79.6958V41.6094Z" fill="#333333"/>
<path d="M73.904 47.0547H79.6958V41.2444H73.904V47.0547Z" fill="#333333"/>
<path d="M68.112 52.4775H73.9038V46.6673H68.112V52.4775Z" fill="#333333"/>
<path d="M102.874 30H97.082V35.8103H102.874V30Z" fill="#333333"/>
<path d="M108.666 30H102.874V35.8103H108.666V30Z" fill="#333333"/>
<path d="M114.457 30H108.666V35.8103H114.457V30Z" fill="#191919"/>
<path d="M97.0821 30H91.2903V35.8103H97.0821V30Z" fill="#333333"/>
<path d="M91.2903 30H85.4985V35.8103H91.2903V30Z" fill="#333333"/>
<path d="M120.249 92.0095H114.457V97.8198H120.249V92.0095Z" fill="#191919"/>
<path d="M126.041 86.5754H120.249V92.3857H126.041V86.5754Z" fill="#191919"/>
<path d="M79.6958 97.8198H85.4875V92.0095H79.6958V97.8198Z" fill="#333333"/>
<path d="M73.904 92.397H79.6958V86.5867H73.904V92.397Z" fill="#333333"/>
<path d="M68.112 86.9629H73.9038V81.1526H68.112V86.9629Z" fill="#333333"/>
<path d="M102.874 97.8198H97.082V103.63H102.874V97.8198Z" fill="#333333"/>
<path d="M108.666 97.8198H102.874V103.63H108.666V97.8198Z" fill="#333333"/>
<path d="M114.457 97.8198H108.666V103.63H114.457V97.8198Z" fill="#191919"/>
<path d="M108.666 97.8198H102.874V103.63H108.666V97.8198Z" fill="#333333"/>
<path d="M97.0821 97.8198H91.2903V103.63H97.0821V97.8198Z" fill="#333333"/>
<path d="M91.2903 97.8198H85.4985V103.63H91.2903V97.8198Z" fill="#333333"/>
<path d="M68.0681 52.4775H73.9151V47.0435H79.7068V41.6206H85.4986V35.8103H114.458V41.6206H120.249V47.0435H126.041V52.4775H131.833V81.1526H126.041V86.5755H120.249V92.0095H114.458V97.8198H85.4986V92.0095H79.7068V86.5755H73.9151V81.1526H68.1233L68.0681 52.4775Z" fill="#333333"/>
<path d="M82.6081 55.2H88.3999V49.3897H82.6081V55.2Z" fill="#35B55A"/>
<path d="M88.3999 49.7549H94.1917V43.9446H88.3999V49.7549Z" fill="#AADAF5"/>
<path d="M76.8054 60.623H82.5972V54.8128H76.8054V60.623Z" fill="#35B55A"/>
<path d="M71.0134 66.0459H76.8052V60.2356H71.0134V66.0459Z" fill="#97CA4E"/>
<path d="M71.0134 71.8672H76.8052V66.0569H71.0134V71.8672Z" fill="#97CA4E"/>
<path d="M102.852 97.8198H97.0601V103.63H102.852V97.8198Z" fill="#333333"/>
<path d="M97.0821 97.8198H91.2903V103.63H97.0821V97.8198Z" fill="#333333"/>
<path d="M91.2903 97.8198H85.4985V103.63H91.2903V97.8198Z" fill="#333333"/>
<path d="M114.457 92.0095H108.666V97.8198H114.457V92.0095Z" fill="#333333"/>
<path d="M120.249 86.5754H114.457V92.3857H120.249V86.5754Z" fill="#333333"/>
<path d="M126.041 81.1526H120.249V86.9629H126.041V81.1526Z" fill="#333333"/>
<path d="M131.833 75.3423H126.041V81.1526H131.833V75.3423Z" fill="#191919"/>
<path d="M120.249 114.277H114.457V120.087H120.249V114.277Z" fill="#191919"/>
<path d="M126.041 114.277H120.249V120.087H126.041V114.277Z" fill="#191919"/>
<path d="M131.833 120.087H126.041V125.897H131.833V120.087Z" fill="#191919"/>
<path d="M137.625 120.087H131.833V125.897H137.625V120.087Z" fill="#191919"/>
<path d="M143.417 125.897H137.625V131.707H143.417V125.897Z" fill="#191919"/>
<path d="M149.208 131.708H143.416V137.518H149.208V131.708Z" fill="#191919"/>
<path d="M155 137.518H149.208V143.328H155V137.518Z" fill="#191919"/>
<path d="M155 143.328H149.208V169.989H155V143.328Z" fill="#191919"/>
<path d="M79.7617 120.098H85.5535V114.288H79.7617V120.098Z" fill="#333333"/>
<path d="M73.9702 120.098H79.762V114.288H73.9702V120.098Z" fill="#333333"/>
<path d="M68.1672 125.908H73.959V120.098H68.1672V125.908Z" fill="#333333"/>
<path d="M62.3752 125.908H68.167V120.098H62.3752V125.908Z" fill="#333333"/>
<path d="M56.5837 131.719H62.3755V125.908H56.5837V131.719Z" fill="#333333"/>
<path d="M50.7919 137.529H56.5837V131.719H50.7919V137.529Z" fill="#333333"/>
<path d="M45 143.339H50.7917V137.529H45V143.339Z" fill="#333333"/>
<path d="M45 170H50.7917V143.339H45V170Z" fill="#333333"/>
<path d="M155 169.989V164.179H45.0111V169.989H155Z" fill="#191919"/>
<path d="M50.803 164.179H149.208V137.518H143.416V131.707H137.625V125.897H126.041V120.087H114.457V114.277H85.5537V120.087H73.9701V125.897H62.3866V131.707H56.5948V137.518H50.803V164.832" fill="#333333"/>
</svg>
