<svg width="200" height="200" viewBox="0 0 200 200" fill="none" xmlns="http://www.w3.org/2000/svg">
<path d="M84.3051 166.947H87.0344V161.14H84.3051V166.947Z" fill="#345FAC"/>
<path d="M87.0612 163.975H89.7905V158.087H87.0612V163.975Z" fill="#345FAC"/>
<path d="M89.7906 161.013H92.52V156.093H89.7906V161.013Z" fill="#345FAC"/>
<path d="M86.9984 163.939H89.7278V160.985H86.9984V163.939Z" fill="#345FAC"/>
<path d="M84.3229 166.956H87.0522V164.003H84.3229V166.956Z" fill="#345FAC"/>
<path d="M81.5843 170H84.3137V167.047H81.5843V170Z" fill="#345FAC"/>
<path d="M87.3656 155.061H90.095V152.107H87.3656V155.061Z" fill="#60ADE0"/>
<path d="M81.5843 169.946H84.3137L84.3137 110.441H81.5843V169.946Z" fill="#345FAC"/>
<path d="M102.417 105.64H81.9067V168.768L102.229 147.831L102.516 147.432L102.417 105.64Z" fill="#35B55A"/>
<path d="M102.086 105.875H122.588V169.003L102.373 147.749L102.086 147.36V105.875Z" fill="#35B55A"/>
<path d="M122.811 109.2H120.082V169.955H122.811V109.2Z" fill="#189647"/>
<path d="M120.1 103.348H117.371V164.102H120.1V103.348Z" fill="#189647"/>
<path d="M117.344 101.536H114.614V161.04H117.344V101.536Z" fill="#189647"/>
<path d="M120.1 163.993H117.371V166.947H120.1V163.993Z" fill="#189647"/>
<path d="M114.605 158.068H111.876V161.022H114.605V158.068Z" fill="#189647"/>
<path d="M111.876 155.097H109.12V158.05H111.876V155.097Z" fill="#189647"/>
<path d="M109.084 152.107H106.355V155.06H109.084V152.107Z" fill="#189647"/>
<path d="M106.328 152.098H103.59V149.145H106.328V151.138V152.098Z" fill="#189647"/>
<path d="M109.084 154.807L109.361 155.097H109.084V154.807Z" fill="#345FAC"/>
<path d="M111.876 157.715L112.216 158.068H111.876V157.715Z" fill="#345FAC"/>
<path d="M117.353 161.031H114.605V163.984H117.353V161.031Z" fill="#189647"/>
<path d="M87.0253 113.648H84.2959V166.938H87.0253V113.648Z" fill="#97CA4E"/>
<path d="M89.7907 115.859H87.0613V164.093H89.7907V115.859Z" fill="#97CA4E"/>
<path d="M84.5109 117.227H81.5757V169.955H84.5109V117.227Z" fill="#97CA4E"/>
<path d="M99.4552 30H92.6631V36.8763H99.4552V30Z" fill="#333333"/>
<path d="M113.057 30H106.265V36.8763H113.057V30Z" fill="#333333"/>
<path d="M106.247 30H99.4551V36.8763H106.247V30Z" fill="#333333"/>
<path d="M119.849 30H113.057V36.8763H119.849V30Z" fill="#191919"/>
<path d="M92.672 30H85.8799V36.8763H92.672V30Z" fill="#333333"/>
<path d="M85.88 30H79.0879V36.8763H85.88V30Z" fill="#333333"/>
<path d="M99.4552 110.215H92.6631V117.091H99.4552V110.215Z" fill="#333333"/>
<path d="M113.057 110.215H106.265V117.091H113.057V110.215Z" fill="#333333"/>
<path d="M106.247 110.215H99.4551V117.091H106.247V110.215Z" fill="#333333"/>
<path d="M92.672 110.215H85.8799V117.091H92.672V110.215Z" fill="#333333"/>
<path d="M85.88 110.215H79.0879V117.091H85.88V110.215Z" fill="#333333"/>
<path d="M54.6309 56.6539H62.9711V50.2124H71.2398V43.7709H79.5084V36.8765H120.861V43.7709H129.129V50.2124H137.398V56.6539H145.667V90.6641H137.398V97.1056H129.129V103.547H120.861V110.441H79.5084V103.547H71.2398V97.1056H62.9711V90.6641H54.7025L54.6309 56.6539Z" fill="#333333"/>
<path d="M74.891 58.4294H81.6831V51.5531H74.891V58.4294Z" fill="#35B55A"/>
<path d="M81.683 51.3174H88.4751V44.4411H81.683V51.3174Z" fill="#35B55A"/>
<path d="M89.2626 44.4502H96.0547V37.5739H89.2626V44.4502Z" fill="#35B55A"/>
<path d="M95.9205 44.4502H102.713V37.5739H95.9205V44.4502Z" fill="#35B55A"/>
<path d="M95.1151 107.225H101.907V100.349H95.1151V107.225Z" fill="#97CA4E"/>
<path d="M101.737 107.225H108.529V100.349H101.737V107.225Z" fill="#97CA4E"/>
<path d="M102.704 44.4502H109.496V37.5739H102.704V44.4502Z" fill="#35B55A"/>
<path d="M68.1078 65.5322H74.8999V58.6559H68.1078V65.5322Z" fill="#35B55A"/>
<path d="M61.3158 72.644H68.1079V65.7677H61.3158V72.644Z" fill="#97CA4E"/>
<path d="M61.3158 79.5205H68.1079V72.6442H61.3158V79.5205Z" fill="#97CA4E"/>
<path d="M61.3158 86.415H68.1079V79.5387H61.3158V86.415Z" fill="#97CA4E"/>
<path d="M68.1078 93.4092H74.8999V86.5328H68.1078V93.4092Z" fill="#97CA4E"/>
<path d="M74.891 100.358H81.6831V93.4816H74.891V100.358Z" fill="#97CA4E"/>
<path d="M81.683 107.225H88.4751V100.349H81.683V107.225Z" fill="#97CA4E"/>
<path d="M88.4572 107.225H95.2493V100.349H88.4572V107.225Z" fill="#97CA4E"/>
<path d="M126.633 36.8765H119.841V43.7528H126.633V36.8765Z" fill="#191919"/>
<path d="M147 56.1372H140.208V63.0135H147V56.1372Z" fill="#191919"/>
<path d="M146.991 83.6337V76.7573H140.199V83.6337H146.991Z" fill="#191919"/>
<path d="M147 90.5008V83.6245H140.208V90.5008H147Z" fill="#191919"/>
<path d="M147 76.7572V69.8809H140.208V76.7572H147Z" fill="#191919"/>
<path d="M146.991 69.89V63.0137H140.199V69.89H146.991Z" fill="#191919"/>
<path d="M133.425 43.2998H126.633V50.1761H133.425V43.2998Z" fill="#191919"/>
<path d="M140.208 49.7139H133.416V56.5902H140.208V49.7139Z" fill="#191919"/>
<path d="M133.425 96.9243H126.633V103.801H133.425V96.9243Z" fill="#191919"/>
<path d="M140.208 90.501H133.416V97.3773H140.208V90.501Z" fill="#191919"/>
<path d="M72.5015 43.7437H82.1572V36.8673H72.5015V43.7437Z" fill="#333333"/>
<path d="M65.5127 50.167H74.542V43.2907H65.5127V50.167Z" fill="#333333"/>
<path d="M58.7293 56.5903H73.2532V49.714H58.7293V56.5903Z" fill="#333333"/>
<path d="M72.2958 110.215H80.4124V103.339H72.2958V110.215Z" fill="#333333"/>
<path d="M65.5128 103.792H72.3049V96.9152H65.5128V103.792Z" fill="#333333"/>
<path d="M58.7206 97.3682H65.5127V90.4918H58.7206V97.3682Z" fill="#333333"/>
<path d="M61.96 56.5903H52V63.4667H61.96V56.5903Z" fill="#333333"/>
<path d="M58.7922 84.0775V77.2012H52.0001V84.0775H58.7922Z" fill="#333333"/>
<path d="M58.7922 90.954V84.0776H52.0001V90.954H58.7922Z" fill="#333333"/>
<path d="M58.7922 77.2103V70.334H52.0001V77.2103H58.7922Z" fill="#333333"/>
<path d="M58.7922 70.3339V63.4575H52.0001V70.3339H58.7922Z" fill="#333333"/>
<path d="M126.633 103.348H119.841V110.224H126.633V103.348Z" fill="#191919"/>
<path d="M119.849 110.215H113.057V117.091H119.849V110.215Z" fill="#191919"/>
<path d="M95.3119 155.061H98.0413V152.107H95.3119V155.061Z" fill="#35B55A"/>
<path d="M98.0773 152.098H100.807V149.145H98.0773V152.098Z" fill="#35B55A"/>
<path d="M100.815 149.145H104.117V146.191H100.815V149.145Z" fill="#189647"/>
<path d="M92.5377 158.041H95.2671V155.088H92.5377V158.041Z" fill="#35B55A"/>
<path d="M89.7638 160.958H92.4932V158.005H89.7638V160.958Z" fill="#35B55A"/>
</svg>
