<svg width="466" height="90" viewBox="0 0 466 90" fill="none" xmlns="http://www.w3.org/2000/svg">
<path fill-rule="evenodd" clip-rule="evenodd" d="M25.5109 45.0001C11.6046 45.0001 0.331299 33.7268 0.331299 19.8205V0.48262H44.8488V45.0001H25.5109ZM10.6799 22.7413H37.7862C38.1554 27.0745 36.0723 35.7407 24.7868 35.7407C13.5013 35.7407 10.6799 27.0745 10.6799 22.7413Z" fill="#1A1A1A"/>
<path fill-rule="evenodd" clip-rule="evenodd" d="M64.222 44.9998C78.1283 44.9998 89.4015 56.2731 89.4015 70.1794V89.5173H44.884V44.9998H64.222ZM78.3357 67.8211C78.4803 69.5188 77.7237 72.072 75.9338 74.2086C74.1648 76.3203 71.4148 77.9893 67.6029 77.9893C64.183 77.9893 61.2547 76.326 59.1661 74.1742C57.0562 72.0004 55.9042 69.4363 55.9042 67.7672H54.6343C54.6343 69.8866 56.0149 72.7509 58.2549 75.0586C60.516 77.3882 63.7546 79.2592 67.6029 79.2592C71.8279 79.2592 74.922 77.3939 76.9072 75.0241C78.8715 72.6794 79.7791 69.804 79.601 67.7133L78.3357 67.8211Z" fill="#1A1A1A"/>
<path fill-rule="evenodd" clip-rule="evenodd" d="M89.4015 45.0001H70.0636C56.1573 45.0001 44.884 33.7269 44.884 19.8206V0.482643H89.4015V45.0001ZM56.6649 15.2969C56.0061 16.0815 55.7444 17.0029 55.7935 17.5772L54.7619 17.6653C54.6854 16.7698 55.0708 15.5853 55.8719 14.6312C56.6902 13.6567 57.9666 12.8915 59.6971 12.8915C61.2845 12.8915 62.6098 13.6613 63.526 14.6031C64.4247 15.5269 65.0108 16.7024 65.0108 17.6213H63.9754C63.9754 17.0704 63.5766 16.1398 62.7839 15.325C62.0087 14.5282 60.936 13.9269 59.6971 13.9269C58.3025 13.9269 57.3065 14.5328 56.6649 15.2969ZM71.6617 17.5774C71.6128 17.0024 71.8738 16.0806 72.5299 15.2962C73.1689 14.5321 74.1603 13.9269 75.548 13.9269C76.7806 13.9269 77.8483 14.5275 78.6204 15.3243C79.4098 16.1389 79.8074 17.0696 79.8074 17.6213H80.8427C80.8427 16.7031 80.2593 15.5278 79.3639 14.6038C78.4513 13.662 77.1305 12.8915 75.548 12.8915C73.8228 12.8915 72.5507 13.6574 71.7356 14.6319C70.9376 15.5861 70.554 16.7704 70.6301 17.6651L71.6617 17.5774Z" fill="#22B34F"/>
<path fill-rule="evenodd" clip-rule="evenodd" d="M19.669 44.9999H0.331055V89.5174H44.8486V70.1795C44.8486 56.2732 33.5753 44.9999 19.669 44.9999ZM34.6812 63.1013C34.6812 65.3975 32.8198 67.259 30.5236 67.259C28.2274 67.259 26.366 65.3975 26.366 63.1013C26.366 60.8051 28.2274 58.9437 30.5236 58.9437C32.8198 58.9437 34.6812 60.8051 34.6812 63.1013ZM18.9947 63.1014C18.9947 65.3976 17.1333 67.259 14.8371 67.259C12.5409 67.259 10.6794 65.3976 10.6794 63.1014C10.6794 60.8052 12.5409 58.9437 14.8371 58.9437C17.1333 58.9437 18.9947 60.8052 18.9947 63.1014Z" fill="#22B34F"/>
<path d="M111.16 48.3793V8.47484H137.581V15.4308H119.597V24.9393H135.827V31.8954H119.597V48.3793H111.16ZM177.731 28.4271C177.731 32.7787 176.906 36.4807 175.256 39.5333C173.62 42.5859 171.386 44.9176 168.554 46.5283C165.735 48.126 162.565 48.9249 159.045 48.9249C155.499 48.9249 152.317 48.1196 149.498 46.5088C146.679 44.8981 144.451 42.5664 142.815 39.5138C141.178 36.4613 140.36 32.7657 140.36 28.4271C140.36 24.0755 141.178 20.3734 142.815 17.3209C144.451 14.2683 146.679 11.9431 149.498 10.3454C152.317 8.73463 155.499 7.92927 159.045 7.92927C162.565 7.92927 165.735 8.73463 168.554 10.3454C171.386 11.9431 173.62 14.2683 175.256 17.3209C176.906 20.3734 177.731 24.0755 177.731 28.4271ZM169.177 28.4271C169.177 25.6083 168.755 23.2312 167.911 21.2957C167.079 19.3602 165.904 17.8924 164.384 16.8922C162.864 15.892 161.085 15.3919 159.045 15.3919C157.006 15.3919 155.226 15.892 153.706 16.8922C152.187 17.8924 151.005 19.3602 150.16 21.2957C149.329 23.2312 148.913 25.6083 148.913 28.4271C148.913 31.2459 149.329 33.623 150.16 35.5585C151.005 37.4939 152.187 38.9618 153.706 39.962C155.226 40.9622 157.006 41.4623 159.045 41.4623C161.085 41.4623 162.864 40.9622 164.384 39.962C165.904 38.9618 167.079 37.4939 167.911 35.5585C168.755 33.623 169.177 31.2459 169.177 28.4271ZM203.433 19.9513C203.278 18.3795 202.609 17.1585 201.426 16.2882C200.244 15.4179 198.64 14.9827 196.614 14.9827C195.237 14.9827 194.074 15.1775 193.126 15.5672C192.178 15.9439 191.45 16.47 190.944 17.1455C190.45 17.821 190.203 18.5874 190.203 19.4447C190.177 20.1591 190.327 20.7826 190.651 21.3152C190.989 21.8478 191.45 22.3089 192.035 22.6986C192.619 23.0753 193.295 23.4066 194.061 23.6923C194.828 23.9651 195.646 24.1989 196.516 24.3938L200.102 25.2511C201.842 25.6408 203.44 26.1604 204.895 26.8099C206.35 27.4594 207.61 28.2582 208.675 29.2065C209.74 30.1547 210.565 31.2718 211.149 32.5578C211.747 33.8438 212.052 35.3182 212.065 36.9808C212.052 39.4229 211.429 41.5402 210.195 43.3328C208.974 45.1124 207.207 46.4958 204.895 47.4831C202.596 48.4573 199.822 48.9444 196.575 48.9444C193.353 48.9444 190.548 48.4508 188.157 47.4636C185.78 46.4764 183.923 45.015 182.585 43.0795C181.26 41.1311 180.565 38.7215 180.5 35.8507H188.664C188.755 37.1887 189.138 38.3058 189.814 39.2021C190.502 40.0854 191.418 40.7544 192.561 41.209C193.717 41.6507 195.023 41.8715 196.477 41.8715C197.906 41.8715 199.147 41.6636 200.199 41.248C201.264 40.8323 202.089 40.2543 202.673 39.5138C203.258 38.7734 203.55 37.9226 203.55 36.9614C203.55 36.0651 203.284 35.3117 202.751 34.7011C202.232 34.0906 201.465 33.571 200.452 33.1424C199.452 32.7137 198.225 32.324 196.77 31.9733L192.425 30.8822C189.06 30.0638 186.404 28.7843 184.455 27.0437C182.507 25.3031 181.539 22.9584 181.552 20.0097C181.539 17.5936 182.182 15.4828 183.481 13.6772C184.793 11.8717 186.592 10.4623 188.878 9.44907C191.165 8.43587 193.763 7.92927 196.672 7.92927C199.634 7.92927 202.219 8.43587 204.427 9.44907C206.648 10.4623 208.376 11.8717 209.61 13.6772C210.844 15.4828 211.481 17.5742 211.52 19.9513H203.433ZM237.193 19.9513C237.037 18.3795 236.368 17.1585 235.186 16.2882C234.004 15.4179 232.399 14.9827 230.373 14.9827C228.996 14.9827 227.834 15.1775 226.885 15.5672C225.937 15.9439 225.21 16.47 224.703 17.1455C224.209 17.821 223.963 18.5874 223.963 19.4447C223.937 20.1591 224.086 20.7826 224.411 21.3152C224.748 21.8478 225.21 22.3089 225.794 22.6986C226.379 23.0753 227.054 23.4066 227.821 23.6923C228.587 23.9651 229.405 24.1989 230.276 24.3938L233.861 25.2511C235.601 25.6408 237.199 26.1604 238.654 26.8099C240.109 27.4594 241.369 28.2582 242.434 29.2065C243.499 30.1547 244.324 31.2718 244.909 32.5578C245.506 33.8438 245.811 35.3182 245.824 36.9808C245.811 39.4229 245.188 41.5402 243.954 43.3328C242.733 45.1124 240.966 46.4958 238.654 47.4831C236.355 48.4573 233.581 48.9444 230.334 48.9444C227.113 48.9444 224.307 48.4508 221.917 47.4636C219.54 46.4764 217.682 45.015 216.344 43.0795C215.019 41.1311 214.324 38.7215 214.259 35.8507H222.423C222.514 37.1887 222.897 38.3058 223.573 39.2021C224.261 40.0854 225.177 40.7544 226.32 41.209C227.476 41.6507 228.782 41.8715 230.237 41.8715C231.666 41.8715 232.906 41.6636 233.958 41.248C235.023 40.8323 235.848 40.2543 236.433 39.5138C237.017 38.7734 237.31 37.9226 237.31 36.9614C237.31 36.0651 237.043 35.3117 236.511 34.7011C235.991 34.0906 235.225 33.571 234.211 33.1424C233.211 32.7137 231.984 32.324 230.529 31.9733L226.184 30.8822C222.819 30.0638 220.163 28.7843 218.215 27.0437C216.266 25.3031 215.298 22.9584 215.311 20.0097C215.298 17.5936 215.941 15.4828 217.24 13.6772C218.552 11.8717 220.351 10.4623 222.638 9.44907C224.924 8.43587 227.522 7.92927 230.431 7.92927C233.393 7.92927 235.978 8.43587 238.186 9.44907C240.408 10.4623 242.135 11.8717 243.369 13.6772C244.603 15.4828 245.24 17.5742 245.279 19.9513H237.193ZM295.018 22.4453H286.483C286.327 21.3412 286.009 20.3605 285.529 19.5031C285.048 18.6328 284.431 17.8924 283.678 17.2819C282.924 16.6714 282.054 16.2037 281.067 15.879C280.092 15.5543 279.034 15.3919 277.891 15.3919C275.825 15.3919 274.026 15.905 272.493 16.9312C270.961 17.9444 269.772 19.4252 268.928 21.3737C268.083 23.3091 267.661 25.6603 267.661 28.4271C267.661 31.2718 268.083 33.662 268.928 35.5974C269.785 37.5329 270.98 38.9943 272.513 39.9815C274.046 40.9687 275.819 41.4623 277.832 41.4623C278.962 41.4623 280.008 41.3129 280.969 41.0142C281.943 40.7154 282.807 40.2802 283.561 39.7087C284.314 39.1242 284.938 38.4162 285.431 37.5849C285.938 36.7535 286.288 35.8053 286.483 34.7401L295.018 34.7791C294.797 36.6106 294.245 38.3772 293.361 40.0789C292.491 41.7676 291.315 43.2809 289.835 44.6188C288.367 45.9438 286.613 46.9959 284.574 47.7753C282.547 48.5417 280.255 48.9249 277.696 48.9249C274.137 48.9249 270.954 48.1196 268.148 46.5088C265.355 44.8981 263.147 42.5664 261.523 39.5138C259.913 36.4613 259.107 32.7657 259.107 28.4271C259.107 24.0755 259.926 20.3734 261.562 17.3209C263.199 14.2683 265.42 11.9431 268.226 10.3454C271.032 8.73463 274.188 7.92927 277.696 7.92927C280.008 7.92927 282.151 8.25401 284.126 8.9035C286.113 9.55299 287.873 10.5012 289.406 11.7483C290.939 12.9823 292.186 14.4956 293.147 16.2882C294.121 18.0808 294.745 20.1331 295.018 22.4453ZM307.017 8.47484V48.3793H298.717V8.47484H307.017ZM330.664 35.6364V18.451H338.965V48.3793H330.995V42.9431H330.684C330.008 44.6968 328.884 46.1061 327.313 47.1713C325.754 48.2365 323.851 48.769 321.604 48.769C319.603 48.769 317.843 48.3144 316.323 47.4051C314.804 46.4958 313.615 45.2034 312.758 43.5277C311.913 41.852 311.485 39.8451 311.472 37.5069V18.451H319.772V36.0261C319.785 37.7927 320.259 39.1891 321.195 40.2153C322.13 41.2415 323.383 41.7546 324.955 41.7546C325.955 41.7546 326.891 41.5273 327.761 41.0726C328.631 40.605 329.333 39.9165 329.865 39.0072C330.411 38.098 330.677 36.9743 330.664 35.6364ZM343.565 48.3793V8.47484H351.866V23.478H352.119C352.483 22.6726 353.009 21.8543 353.697 21.0229C354.399 20.1786 355.308 19.4772 356.425 18.9186C357.555 18.347 358.958 18.0613 360.634 18.0613C362.816 18.0613 364.829 18.6328 366.674 19.7759C368.518 20.906 369.993 22.6142 371.097 24.9004C372.201 27.1736 372.753 30.0248 372.753 33.4541C372.753 36.7925 372.214 39.6113 371.136 41.9105C370.071 44.1966 368.616 45.9308 366.771 47.1128C364.94 48.2819 362.887 48.8665 360.614 48.8665C359.003 48.8665 357.633 48.6002 356.503 48.0676C355.386 47.535 354.47 46.866 353.756 46.0607C353.041 45.2423 352.496 44.4175 352.119 43.5861H351.749V48.3793H343.565ZM351.69 33.4152C351.69 35.1948 351.937 36.747 352.431 38.072C352.924 39.3969 353.639 40.4296 354.574 41.17C355.509 41.8975 356.646 42.2612 357.984 42.2612C359.335 42.2612 360.478 41.891 361.413 41.1506C362.348 40.3971 363.056 39.358 363.537 38.033C364.03 36.6951 364.277 35.1558 364.277 33.4152C364.277 31.6875 364.037 30.1677 363.556 28.8558C363.076 27.5438 362.368 26.5176 361.432 25.7772C360.497 25.0368 359.348 24.6666 357.984 24.6666C356.633 24.6666 355.49 25.0238 354.554 25.7382C353.632 26.4527 352.924 27.4659 352.431 28.7778C351.937 30.0898 351.69 31.6356 351.69 33.4152Z" fill="#1A1A1A"/>
<path d="M119.538 68.3192C119.434 67.4416 119.013 66.7604 118.274 66.2754C117.535 65.7905 116.628 65.548 115.555 65.548C114.769 65.548 114.082 65.675 113.493 65.929C112.91 66.1831 112.454 66.5323 112.125 66.9769C111.802 67.4214 111.64 67.9266 111.64 68.4923C111.64 68.9658 111.753 69.3728 111.978 69.7134C112.209 70.0482 112.503 70.3282 112.861 70.5534C113.219 70.7728 113.595 70.9546 113.987 71.099C114.38 71.2375 114.741 71.3501 115.07 71.4367L116.871 71.9216C117.333 72.0429 117.847 72.2103 118.412 72.4239C118.984 72.6375 119.529 72.9291 120.049 73.2986C120.574 73.6623 121.007 74.1299 121.348 74.7014C121.689 75.273 121.859 75.9744 121.859 76.8058C121.859 77.7641 121.608 78.6301 121.105 79.4037C120.609 80.1773 119.882 80.7922 118.923 81.2483C117.971 81.7044 116.813 81.9324 115.451 81.9324C114.181 81.9324 113.081 81.7275 112.151 81.3176C111.228 80.9077 110.5 80.3361 109.969 79.6029C109.444 78.8697 109.146 78.0182 109.077 77.0483H111.294C111.352 77.718 111.577 78.2722 111.969 78.711C112.368 79.1439 112.87 79.4672 113.476 79.6809C114.088 79.8887 114.746 79.9926 115.451 79.9926C116.27 79.9926 117.007 79.8598 117.659 79.5943C118.311 79.3229 118.828 78.9477 119.209 78.4685C119.59 77.9835 119.781 77.4177 119.781 76.7711C119.781 76.1823 119.616 75.7031 119.287 75.3336C118.958 74.9641 118.525 74.6639 117.988 74.433C117.451 74.2021 116.871 74 116.247 73.8268L114.065 73.2033C112.679 72.8049 111.583 72.2363 110.774 71.4973C109.966 70.7583 109.562 69.7913 109.562 68.5963C109.562 67.6033 109.83 66.7373 110.367 65.9983C110.91 65.2536 111.637 64.6762 112.55 64.2663C113.468 63.8507 114.492 63.6428 115.624 63.6428C116.767 63.6428 117.783 63.8478 118.672 64.2577C119.561 64.6618 120.265 65.216 120.785 65.9204C121.31 66.6247 121.588 67.4243 121.616 68.3192H119.538ZM125.454 86.6087C125.107 86.6087 124.798 86.5799 124.527 86.5221C124.256 86.4702 124.068 86.4182 123.964 86.3662L124.484 84.565C124.98 84.692 125.419 84.7382 125.8 84.7036C126.181 84.6689 126.519 84.4986 126.813 84.1926C127.113 83.8924 127.388 83.4046 127.636 82.7291L128.017 81.6899L123.098 68.3192H125.315L128.987 78.9188H129.125L132.797 68.3192H135.014L129.368 83.5605C129.114 84.2475 128.799 84.8161 128.424 85.2664C128.049 85.7225 127.613 86.0603 127.116 86.2796C126.626 86.499 126.071 86.6087 125.454 86.6087ZM136.736 81.6207V68.3192H138.711V70.3975H138.884C139.161 69.6874 139.608 69.1361 140.226 68.7435C140.844 68.3451 141.586 68.146 142.452 68.146C143.329 68.146 144.06 68.3451 144.643 68.7435C145.232 69.1361 145.69 69.6874 146.02 70.3975H146.158C146.499 69.7105 147.01 69.1649 147.691 68.7608C148.372 68.3509 149.189 68.146 150.142 68.146C151.331 68.146 152.304 68.5183 153.06 69.2631C153.816 70.002 154.194 71.1538 154.194 72.7183V81.6207H152.151V72.7183C152.151 71.7369 151.882 71.0355 151.345 70.614C150.808 70.1926 150.176 69.9818 149.449 69.9818C148.514 69.9818 147.789 70.2647 147.275 70.8305C146.761 71.3905 146.505 72.1006 146.505 72.9608V81.6207H144.426V72.5105C144.426 71.7542 144.181 71.1451 143.69 70.6833C143.199 70.2157 142.567 69.9818 141.794 69.9818C141.262 69.9818 140.766 70.1233 140.304 70.4062C139.848 70.6891 139.479 71.0816 139.196 71.5839C138.919 72.0804 138.78 72.6548 138.78 73.3072V81.6207H136.736ZM157.233 81.6207V63.8853H159.277V70.4321H159.45C159.6 70.2012 159.808 69.9068 160.073 69.5488C160.345 69.1851 160.731 68.8618 161.234 68.5789C161.742 68.2903 162.429 68.146 163.295 68.146C164.415 68.146 165.402 68.426 166.256 68.986C167.111 69.546 167.778 70.3398 168.257 71.3674C168.736 72.395 168.976 73.6074 168.976 75.0045C168.976 76.4132 168.736 77.6342 168.257 78.6677C167.778 79.6953 167.114 80.492 166.265 81.0578C165.416 81.6178 164.438 81.8978 163.329 81.8978C162.475 81.8978 161.791 81.7563 161.277 81.4734C160.763 81.1848 160.368 80.8586 160.091 80.4949C159.813 80.1254 159.6 79.8194 159.45 79.5769H159.207V81.6207H157.233ZM159.242 74.9699C159.242 75.9744 159.389 76.8606 159.684 77.6285C159.978 78.3905 160.408 78.9881 160.974 79.4211C161.54 79.8483 162.232 80.0619 163.052 80.0619C163.907 80.0619 164.62 79.8367 165.191 79.3864C165.769 78.9303 166.202 78.3184 166.49 77.5505C166.785 76.7769 166.932 75.9167 166.932 74.9699C166.932 74.0346 166.788 73.1918 166.499 72.4412C166.216 71.6849 165.786 71.0874 165.209 70.6486C164.637 70.2041 163.918 69.9818 163.052 69.9818C162.221 69.9818 161.522 70.1926 160.957 70.614C160.391 71.0297 159.964 71.6128 159.675 72.3633C159.386 73.108 159.242 73.9769 159.242 74.9699ZM171.126 81.6207V68.3192H173.17V81.6207H171.126ZM172.166 66.1022C171.767 66.1022 171.424 65.9666 171.135 65.6952C170.852 65.4239 170.711 65.0977 170.711 64.7167C170.711 64.3356 170.852 64.0094 171.135 63.7381C171.424 63.4668 171.767 63.3311 172.166 63.3311C172.564 63.3311 172.904 63.4668 173.187 63.7381C173.476 64.0094 173.62 64.3356 173.62 64.7167C173.62 65.0977 173.476 65.4239 173.187 65.6952C172.904 65.9666 172.564 66.1022 172.166 66.1022ZM181.342 81.8978C180.141 81.8978 179.087 81.612 178.181 81.0404C177.28 80.4689 176.576 79.6693 176.068 78.6417C175.565 77.614 175.314 76.4132 175.314 75.0392C175.314 73.6536 175.565 72.4441 176.068 71.4107C176.576 70.3773 177.28 69.5748 178.181 69.0033C179.087 68.4317 180.141 68.146 181.342 68.146C182.542 68.146 183.593 68.4317 184.494 69.0033C185.4 69.5748 186.104 70.3773 186.607 71.4107C187.115 72.4441 187.369 73.6536 187.369 75.0392C187.369 76.4132 187.115 77.614 186.607 78.6417C186.104 79.6693 185.4 80.4689 184.494 81.0404C183.593 81.612 182.542 81.8978 181.342 81.8978ZM181.342 80.0619C182.254 80.0619 183.004 79.8281 183.593 79.3604C184.182 78.8928 184.618 78.278 184.901 77.5159C185.184 76.7538 185.325 75.9283 185.325 75.0392C185.325 74.1501 185.184 73.3216 184.901 72.5538C184.618 71.786 184.182 71.1653 183.593 70.6919C183.004 70.2185 182.254 69.9818 181.342 69.9818C180.429 69.9818 179.679 70.2185 179.09 70.6919C178.501 71.1653 178.065 71.786 177.782 72.5538C177.499 73.3216 177.358 74.1501 177.358 75.0392C177.358 75.9283 177.499 76.7538 177.782 77.5159C178.065 78.278 178.501 78.8928 179.09 79.3604C179.679 79.8281 180.429 80.0619 181.342 80.0619ZM198.935 71.2981L197.099 71.8177C196.984 71.5117 196.813 71.2144 196.588 70.9258C196.369 70.6313 196.069 70.3889 195.688 70.1983C195.306 70.0078 194.819 69.9126 194.224 69.9126C193.41 69.9126 192.732 70.1002 192.189 70.4754C191.652 70.8449 191.384 71.3155 191.384 71.887C191.384 72.395 191.568 72.7963 191.938 73.0907C192.307 73.3852 192.885 73.6305 193.67 73.8268L195.644 74.3118C196.834 74.6004 197.72 75.0421 198.303 75.6367C198.886 76.2256 199.177 76.9848 199.177 77.9142C199.177 78.6763 198.958 79.3576 198.519 79.958C198.086 80.5584 197.48 81.0318 196.701 81.3782C195.921 81.7246 195.015 81.8978 193.982 81.8978C192.625 81.8978 191.502 81.6033 190.613 81.0145C189.724 80.4256 189.161 79.5654 188.924 78.4338L190.864 77.9489C191.049 78.6648 191.398 79.2017 191.912 79.5596C192.431 79.9176 193.11 80.0965 193.947 80.0965C194.899 80.0965 195.656 79.8945 196.216 79.4903C196.782 79.0804 197.064 78.5897 197.064 78.0182C197.064 77.5563 196.903 77.1695 196.579 76.8577C196.256 76.5402 195.76 76.3035 195.09 76.1476L192.873 75.6281C191.655 75.3394 190.76 74.892 190.189 74.2858C189.623 73.6738 189.34 72.9089 189.34 71.9909C189.34 71.2404 189.551 70.5765 189.972 69.9992C190.399 69.4218 190.979 68.9686 191.713 68.6396C192.452 68.3105 193.289 68.146 194.224 68.146C195.54 68.146 196.574 68.4346 197.324 69.0119C198.081 69.5893 198.617 70.3513 198.935 71.2981ZM201.278 81.6207V68.3192H203.322V81.6207H201.278ZM202.318 66.1022C201.919 66.1022 201.576 65.9666 201.287 65.6952C201.004 65.4239 200.863 65.0977 200.863 64.7167C200.863 64.3356 201.004 64.0094 201.287 63.7381C201.576 63.4668 201.919 63.3311 202.318 63.3311C202.716 63.3311 203.057 63.4668 203.339 63.7381C203.628 64.0094 203.772 64.3356 203.772 64.7167C203.772 65.0977 203.628 65.4239 203.339 65.6952C203.057 65.9666 202.716 66.1022 202.318 66.1022ZM215.512 71.2981L213.676 71.8177C213.56 71.5117 213.39 71.2144 213.165 70.9258C212.946 70.6313 212.645 70.3889 212.264 70.1983C211.883 70.0078 211.395 69.9126 210.801 69.9126C209.987 69.9126 209.308 70.1002 208.766 70.4754C208.229 70.8449 207.96 71.3155 207.96 71.887C207.96 72.395 208.145 72.7963 208.515 73.0907C208.884 73.3852 209.461 73.6305 210.247 73.8268L212.221 74.3118C213.41 74.6004 214.297 75.0421 214.88 75.6367C215.463 76.2256 215.754 76.9848 215.754 77.9142C215.754 78.6763 215.535 79.3576 215.096 79.958C214.663 80.5584 214.057 81.0318 213.278 81.3782C212.498 81.7246 211.592 81.8978 210.558 81.8978C209.202 81.8978 208.079 81.6033 207.19 81.0145C206.301 80.4256 205.738 79.5654 205.501 78.4338L207.441 77.9489C207.626 78.6648 207.975 79.2017 208.489 79.5596C209.008 79.9176 209.687 80.0965 210.524 80.0965C211.476 80.0965 212.233 79.8945 212.793 79.4903C213.358 79.0804 213.641 78.5897 213.641 78.0182C213.641 77.5563 213.48 77.1695 213.156 76.8577C212.833 76.5402 212.337 76.3035 211.667 76.1476L209.45 75.6281C208.232 75.3394 207.337 74.892 206.765 74.2858C206.2 73.6738 205.917 72.9089 205.917 71.9909C205.917 71.2404 206.127 70.5765 206.549 69.9992C206.976 69.4218 207.556 68.9686 208.289 68.6396C209.028 68.3105 209.866 68.146 210.801 68.146C212.117 68.146 213.151 68.4346 213.901 69.0119C214.657 69.5893 215.194 70.3513 215.512 71.2981ZM226.163 63.8853V81.6207H224.015V63.8853H226.163ZM231.26 73.619V81.6207H229.217V68.3192H231.191V70.3975H231.364C231.676 69.722 232.149 69.1794 232.785 68.7695C233.42 68.3538 234.239 68.146 235.244 68.146C236.145 68.146 236.933 68.3307 237.608 68.7002C238.284 69.0639 238.809 69.6181 239.184 70.3629C239.559 71.1018 239.747 72.0371 239.747 73.1687V81.6207H237.703V73.3072C237.703 72.2623 237.432 71.4482 236.889 70.8651C236.347 70.2763 235.602 69.9818 234.655 69.9818C234.003 69.9818 233.42 70.1233 232.906 70.4062C232.398 70.6891 231.996 71.1018 231.702 71.6445C231.408 72.1872 231.26 72.8454 231.26 73.619ZM251.928 71.2981L250.092 71.8177C249.977 71.5117 249.806 71.2144 249.581 70.9258C249.362 70.6313 249.062 70.3889 248.681 70.1983C248.3 70.0078 247.812 69.9126 247.217 69.9126C246.403 69.9126 245.725 70.1002 245.182 70.4754C244.645 70.8449 244.377 71.3155 244.377 71.887C244.377 72.395 244.561 72.7963 244.931 73.0907C245.3 73.3852 245.878 73.6305 246.663 73.8268L248.637 74.3118C249.827 74.6004 250.713 75.0421 251.296 75.6367C251.879 76.2256 252.171 76.9848 252.171 77.9142C252.171 78.6763 251.951 79.3576 251.512 79.958C251.079 80.5584 250.473 81.0318 249.694 81.3782C248.914 81.7246 248.008 81.8978 246.975 81.8978C245.618 81.8978 244.495 81.6033 243.606 81.0145C242.717 80.4256 242.154 79.5654 241.917 78.4338L243.857 77.9489C244.042 78.6648 244.391 79.2017 244.905 79.5596C245.424 79.9176 246.103 80.0965 246.94 80.0965C247.893 80.0965 248.649 79.8945 249.209 79.4903C249.775 79.0804 250.058 78.5897 250.058 78.0182C250.058 77.5563 249.896 77.1695 249.573 76.8577C249.249 76.5402 248.753 76.3035 248.083 76.1476L245.866 75.6281C244.648 75.3394 243.753 74.892 243.182 74.2858C242.616 73.6738 242.333 72.9089 242.333 71.9909C242.333 71.2404 242.544 70.5765 242.965 69.9992C243.392 69.4218 243.973 68.9686 244.706 68.6396C245.445 68.3105 246.282 68.146 247.217 68.146C248.533 68.146 249.567 68.4346 250.317 69.0119C251.074 69.5893 251.611 70.3513 251.928 71.2981ZM260.056 68.3192V70.0511H253.163V68.3192H260.056ZM255.172 65.1323H257.216V77.8103C257.216 78.3877 257.3 78.8206 257.467 79.1093C257.64 79.3922 257.86 79.5827 258.125 79.6809C258.396 79.7732 258.682 79.8194 258.982 79.8194C259.208 79.8194 259.392 79.8079 259.537 79.7848C259.681 79.7559 259.796 79.7328 259.883 79.7155L260.299 81.5514C260.16 81.6033 259.967 81.6553 259.718 81.7073C259.47 81.765 259.156 81.7939 258.775 81.7939C258.197 81.7939 257.631 81.6697 257.077 81.4215C256.529 81.1732 256.073 80.7951 255.709 80.287C255.351 79.779 255.172 79.1382 255.172 78.3646V65.1323ZM262.155 81.6207V68.3192H264.199V81.6207H262.155ZM263.194 66.1022C262.796 66.1022 262.452 65.9666 262.164 65.6952C261.881 65.4239 261.739 65.0977 261.739 64.7167C261.739 64.3356 261.881 64.0094 262.164 63.7381C262.452 63.4668 262.796 63.3311 263.194 63.3311C263.593 63.3311 263.933 63.4668 264.216 63.7381C264.505 64.0094 264.649 64.3356 264.649 64.7167C264.649 65.0977 264.505 65.4239 264.216 65.6952C263.933 65.9666 263.593 66.1022 263.194 66.1022ZM272.751 68.3192V70.0511H265.858V68.3192H272.751ZM267.867 65.1323H269.911V77.8103C269.911 78.3877 269.995 78.8206 270.162 79.1093C270.335 79.3922 270.555 79.5827 270.82 79.6809C271.092 79.7732 271.377 79.8194 271.677 79.8194C271.903 79.8194 272.087 79.8079 272.232 79.7848C272.376 79.7559 272.492 79.7328 272.578 79.7155L272.994 81.5514C272.855 81.6033 272.662 81.6553 272.414 81.7073C272.165 81.765 271.851 81.7939 271.47 81.7939C270.892 81.7939 270.327 81.6697 269.772 81.4215C269.224 81.1732 268.768 80.7951 268.404 80.287C268.046 79.779 267.867 79.1382 267.867 78.3646V65.1323ZM283.233 76.1823V68.3192H285.277V81.6207H283.233V79.3691H283.094C282.783 80.0446 282.298 80.619 281.639 81.0924C280.981 81.56 280.15 81.7939 279.145 81.7939C278.314 81.7939 277.575 81.612 276.928 81.2483C276.282 80.8788 275.774 80.3246 275.404 79.5856C275.035 78.8408 274.85 77.9027 274.85 76.7711V68.3192H276.894V76.6326C276.894 77.6025 277.165 78.3761 277.708 78.9534C278.256 79.5307 278.955 79.8194 279.804 79.8194C280.312 79.8194 280.828 79.6895 281.354 79.4297C281.885 79.1699 282.329 78.7716 282.687 78.2347C283.051 77.6978 283.233 77.0136 283.233 76.1823ZM293.829 68.3192V70.0511H286.936V68.3192H293.829ZM288.945 65.1323H290.989V77.8103C290.989 78.3877 291.072 78.8206 291.24 79.1093C291.413 79.3922 291.632 79.5827 291.898 79.6809C292.169 79.7732 292.455 79.8194 292.755 79.8194C292.98 79.8194 293.165 79.8079 293.309 79.7848C293.454 79.7559 293.569 79.7328 293.656 79.7155L294.072 81.5514C293.933 81.6033 293.74 81.6553 293.491 81.7073C293.243 81.765 292.928 81.7939 292.547 81.7939C291.97 81.7939 291.404 81.6697 290.85 81.4215C290.302 81.1732 289.846 80.7951 289.482 80.287C289.124 79.779 288.945 79.1382 288.945 78.3646V65.1323ZM301.362 81.8978C300.08 81.8978 298.975 81.6149 298.045 81.0491C297.121 80.4776 296.408 79.6809 295.906 78.659C295.41 77.6314 295.161 76.4363 295.161 75.0738C295.161 73.7113 295.41 72.5105 295.906 71.4713C296.408 70.4264 297.107 69.6124 298.002 69.0293C298.903 68.4404 299.953 68.146 301.154 68.146C301.847 68.146 302.531 68.2614 303.206 68.4923C303.882 68.7233 304.497 69.0985 305.051 69.6181C305.605 70.1319 306.047 70.8132 306.376 71.6618C306.705 72.5105 306.87 73.5555 306.87 74.7967V75.6627H296.616V73.8961H304.791C304.791 73.1456 304.641 72.4759 304.341 71.887C304.046 71.2981 303.625 70.8334 303.077 70.4928C302.534 70.1521 301.893 69.9818 301.154 69.9818C300.34 69.9818 299.636 70.1839 299.041 70.588C298.452 70.9864 297.999 71.506 297.681 72.1468C297.364 72.7876 297.205 73.4746 297.205 74.2078V75.3856C297.205 76.3901 297.378 77.2417 297.725 77.9402C298.077 78.633 298.565 79.1613 299.188 79.525C299.812 79.8829 300.536 80.0619 301.362 80.0619C301.899 80.0619 302.384 79.9868 302.817 79.8367C303.256 79.6809 303.634 79.4499 303.951 79.1439C304.269 78.8322 304.514 78.4454 304.687 77.9835L306.662 78.5378C306.454 79.2074 306.105 79.7963 305.614 80.3044C305.123 80.8066 304.517 81.1992 303.795 81.4821C303.074 81.7592 302.263 81.8978 301.362 81.8978ZM320.29 81.8978C319.089 81.8978 318.035 81.612 317.129 81.0404C316.228 80.4689 315.524 79.6693 315.016 78.6417C314.514 77.614 314.263 76.4132 314.263 75.0392C314.263 73.6536 314.514 72.4441 315.016 71.4107C315.524 70.3773 316.228 69.5748 317.129 69.0033C318.035 68.4317 319.089 68.146 320.29 68.146C321.491 68.146 322.541 68.4317 323.442 69.0033C324.348 69.5748 325.053 70.3773 325.555 71.4107C326.063 72.4441 326.317 73.6536 326.317 75.0392C326.317 76.4132 326.063 77.614 325.555 78.6417C325.053 79.6693 324.348 80.4689 323.442 81.0404C322.541 81.612 321.491 81.8978 320.29 81.8978ZM320.29 80.0619C321.202 80.0619 321.953 79.8281 322.541 79.3604C323.13 78.8928 323.566 78.278 323.849 77.5159C324.132 76.7538 324.273 75.9283 324.273 75.0392C324.273 74.1501 324.132 73.3216 323.849 72.5538C323.566 71.786 323.13 71.1653 322.541 70.6919C321.953 70.2185 321.202 69.9818 320.29 69.9818C319.378 69.9818 318.627 70.2185 318.038 70.6919C317.449 71.1653 317.014 71.786 316.731 72.5538C316.448 73.3216 316.306 74.1501 316.306 75.0392C316.306 75.9283 316.448 76.7538 316.731 77.5159C317.014 78.278 317.449 78.8928 318.038 79.3604C318.627 79.8281 319.378 80.0619 320.29 80.0619ZM334.385 68.3192V70.0511H327.214V68.3192H334.385ZM329.362 81.6207V66.4833C329.362 65.7212 329.541 65.0861 329.899 64.5781C330.257 64.0701 330.722 63.689 331.293 63.435C331.865 63.181 332.468 63.054 333.103 63.054C333.605 63.054 334.015 63.0944 334.333 63.1752C334.65 63.256 334.887 63.3311 335.043 63.4004L334.454 65.167C334.35 65.1323 334.206 65.089 334.021 65.0371C333.842 64.9851 333.605 64.9591 333.311 64.9591C332.635 64.9591 332.148 65.1294 331.847 65.4701C331.553 65.8107 331.406 66.3101 331.406 66.9682V81.6207H329.362ZM341.464 65.7905V63.8853H354.765V65.7905H349.188V81.6207H347.041V65.7905H341.464ZM360.475 81.8978C359.194 81.8978 358.088 81.6149 357.159 81.0491C356.235 80.4776 355.522 79.6809 355.02 78.659C354.523 77.6314 354.275 76.4363 354.275 75.0738C354.275 73.7113 354.523 72.5105 355.02 71.4713C355.522 70.4264 356.22 69.6124 357.115 69.0293C358.016 68.4404 359.067 68.146 360.267 68.146C360.96 68.146 361.644 68.2614 362.32 68.4923C362.995 68.7233 363.61 69.0985 364.164 69.6181C364.719 70.1319 365.16 70.8132 365.489 71.6618C365.818 72.5105 365.983 73.5555 365.983 74.7967V75.6627H355.73V73.8961H363.905C363.905 73.1456 363.755 72.4759 363.454 71.887C363.16 71.2981 362.738 70.8334 362.19 70.4928C361.647 70.1521 361.006 69.9818 360.267 69.9818C359.453 69.9818 358.749 70.1839 358.154 70.588C357.566 70.9864 357.112 71.506 356.795 72.1468C356.477 72.7876 356.319 73.4746 356.319 74.2078V75.3856C356.319 76.3901 356.492 77.2417 356.838 77.9402C357.19 78.633 357.678 79.1613 358.302 79.525C358.925 79.8829 359.65 80.0619 360.475 80.0619C361.012 80.0619 361.497 79.9868 361.93 79.8367C362.369 79.6809 362.747 79.4499 363.065 79.1439C363.382 78.8322 363.627 78.4454 363.801 77.9835L365.775 78.5378C365.567 79.2074 365.218 79.7963 364.727 80.3044C364.237 80.8066 363.63 81.1992 362.909 81.4821C362.187 81.7592 361.376 81.8978 360.475 81.8978ZM373.52 81.8978C372.273 81.8978 371.199 81.6033 370.299 81.0145C369.398 80.4256 368.705 79.6145 368.22 78.5811C367.735 77.5476 367.493 76.367 367.493 75.0392C367.493 73.6882 367.741 72.4961 368.238 71.4627C368.74 70.4235 369.438 69.6124 370.333 69.0293C371.234 68.4404 372.285 68.146 373.486 68.146C374.421 68.146 375.264 68.3192 376.014 68.6655C376.765 69.0119 377.38 69.4969 377.859 70.1204C378.338 70.7439 378.635 71.4713 378.751 72.3027H376.707C376.551 71.6965 376.205 71.1596 375.668 70.6919C375.137 70.2185 374.421 69.9818 373.52 69.9818C372.723 69.9818 372.025 70.1897 371.424 70.6053C370.83 71.0152 370.365 71.5955 370.03 72.346C369.701 73.0907 369.537 73.9654 369.537 74.9699C369.537 75.9975 369.698 76.8924 370.022 77.6545C370.351 78.4165 370.812 79.0083 371.407 79.4297C372.008 79.8512 372.712 80.0619 373.52 80.0619C374.051 80.0619 374.533 79.9695 374.966 79.7848C375.399 79.6 375.766 79.3345 376.066 78.9881C376.366 78.6417 376.58 78.226 376.707 77.741H378.751C378.635 78.5262 378.349 79.2334 377.893 79.8627C377.443 80.4862 376.846 80.9827 376.101 81.3522C375.362 81.7159 374.502 81.8978 373.52 81.8978ZM382.807 73.619V81.6207H380.763V63.8853H382.807V70.3975H382.98C383.292 69.7105 383.759 69.1649 384.383 68.7608C385.012 68.3509 385.849 68.146 386.894 68.146C387.8 68.146 388.594 68.3278 389.276 68.6915C389.957 69.0495 390.485 69.6008 390.86 70.3456C391.241 71.0845 391.432 72.0256 391.432 73.1687V81.6207H389.388V73.3072C389.388 72.2507 389.114 71.4338 388.565 70.8565C388.023 70.2734 387.269 69.9818 386.305 69.9818C385.635 69.9818 385.035 70.1233 384.504 70.4062C383.979 70.6891 383.563 71.1018 383.257 71.6445C382.957 72.1872 382.807 72.8454 382.807 73.619ZM396.239 73.619V81.6207H394.195V68.3192H396.17V70.3975H396.343C396.655 69.722 397.128 69.1794 397.763 68.7695C398.398 68.3538 399.218 68.146 400.222 68.146C401.123 68.146 401.911 68.3307 402.587 68.7002C403.262 69.0639 403.787 69.6181 404.163 70.3629C404.538 71.1018 404.726 72.0371 404.726 73.1687V81.6207H402.682V73.3072C402.682 72.2623 402.411 71.4482 401.868 70.8651C401.325 70.2763 400.58 69.9818 399.634 69.9818C398.981 69.9818 398.398 70.1233 397.884 70.4062C397.376 70.6891 396.975 71.1018 396.681 71.6445C396.386 72.1872 396.239 72.8454 396.239 73.619ZM412.888 81.8978C411.688 81.8978 410.634 81.612 409.728 81.0404C408.827 80.4689 408.123 79.6693 407.615 78.6417C407.112 77.614 406.861 76.4132 406.861 75.0392C406.861 73.6536 407.112 72.4441 407.615 71.4107C408.123 70.3773 408.827 69.5748 409.728 69.0033C410.634 68.4317 411.688 68.146 412.888 68.146C414.089 68.146 415.14 68.4317 416.041 69.0033C416.947 69.5748 417.651 70.3773 418.154 71.4107C418.662 72.4441 418.916 73.6536 418.916 75.0392C418.916 76.4132 418.662 77.614 418.154 78.6417C417.651 79.6693 416.947 80.4689 416.041 81.0404C415.14 81.612 414.089 81.8978 412.888 81.8978ZM412.888 80.0619C413.801 80.0619 414.551 79.8281 415.14 79.3604C415.729 78.8928 416.165 78.278 416.448 77.5159C416.731 76.7538 416.872 75.9283 416.872 75.0392C416.872 74.1501 416.731 73.3216 416.448 72.5538C416.165 71.786 415.729 71.1653 415.14 70.6919C414.551 70.2185 413.801 69.9818 412.888 69.9818C411.976 69.9818 411.226 70.2185 410.637 70.6919C410.048 71.1653 409.612 71.786 409.329 72.5538C409.046 73.3216 408.905 74.1501 408.905 75.0392C408.905 75.9283 409.046 76.7538 409.329 77.5159C409.612 78.278 410.048 78.8928 410.637 79.3604C411.226 79.8281 411.976 80.0619 412.888 80.0619ZM423.104 63.8853V81.6207H421.06V63.8853H423.104ZM431.275 81.8978C430.074 81.8978 429.021 81.612 428.114 81.0404C427.214 80.4689 426.509 79.6693 426.001 78.6417C425.499 77.614 425.248 76.4132 425.248 75.0392C425.248 73.6536 425.499 72.4441 426.001 71.4107C426.509 70.3773 427.214 69.5748 428.114 69.0033C429.021 68.4317 430.074 68.146 431.275 68.146C432.476 68.146 433.527 68.4317 434.427 69.0033C435.334 69.5748 436.038 70.3773 436.54 71.4107C437.048 72.4441 437.302 73.6536 437.302 75.0392C437.302 76.4132 437.048 77.614 436.54 78.6417C436.038 79.6693 435.334 80.4689 434.427 81.0404C433.527 81.612 432.476 81.8978 431.275 81.8978ZM431.275 80.0619C432.187 80.0619 432.938 79.8281 433.527 79.3604C434.116 78.8928 434.551 78.278 434.834 77.5159C435.117 76.7538 435.259 75.9283 435.259 75.0392C435.259 74.1501 435.117 73.3216 434.834 72.5538C434.551 71.786 434.116 71.1653 433.527 70.6919C432.938 70.2185 432.187 69.9818 431.275 69.9818C430.363 69.9818 429.612 70.2185 429.024 70.6919C428.435 71.1653 427.999 71.786 427.716 72.5538C427.433 73.3216 427.292 74.1501 427.292 75.0392C427.292 75.9283 427.433 76.7538 427.716 77.5159C427.999 78.278 428.435 78.8928 429.024 79.3604C429.612 79.8281 430.363 80.0619 431.275 80.0619ZM444.816 86.8858C443.829 86.8858 442.98 86.7588 442.27 86.5048C441.56 86.2566 440.968 85.9275 440.495 85.5176C440.027 85.1135 439.655 84.6805 439.377 84.2186L441.005 83.0755C441.19 83.318 441.424 83.5951 441.707 83.9069C441.99 84.2244 442.377 84.4986 442.867 84.7295C443.364 84.9662 444.013 85.0846 444.816 85.0846C445.89 85.0846 446.776 84.8248 447.474 84.3052C448.173 83.7856 448.522 82.9716 448.522 81.8631V79.1613H448.349C448.199 79.4037 447.985 79.7039 447.708 80.0619C447.437 80.4141 447.044 80.7287 446.53 81.0058C446.022 81.2771 445.335 81.4128 444.469 81.4128C443.396 81.4128 442.431 81.1588 441.577 80.6508C440.728 80.1427 440.056 79.4037 439.559 78.4338C439.069 77.4639 438.823 76.2862 438.823 74.9006C438.823 73.5381 439.063 72.3517 439.542 71.3414C440.021 70.3253 440.688 69.5402 441.542 68.986C442.397 68.426 443.384 68.146 444.504 68.146C445.37 68.146 446.057 68.2903 446.565 68.5789C447.079 68.8618 447.471 69.1851 447.743 69.5488C448.02 69.9068 448.234 70.2012 448.384 70.4321H448.591V68.3192H450.566V82.0017C450.566 83.1448 450.306 84.0743 449.787 84.7902C449.273 85.5118 448.58 86.0401 447.708 86.3749C446.842 86.7155 445.878 86.8858 444.816 86.8858ZM444.747 79.5769C445.566 79.5769 446.259 79.3893 446.825 79.014C447.391 78.6388 447.821 78.099 448.115 77.3947C448.41 76.6903 448.557 75.8474 448.557 74.866C448.557 73.9076 448.413 73.0619 448.124 72.3287C447.835 71.5955 447.408 71.021 446.842 70.6053C446.276 70.1897 445.578 69.9818 444.747 69.9818C443.881 69.9818 443.159 70.2012 442.582 70.64C442.01 71.0788 441.58 71.6676 441.291 72.4066C441.008 73.1456 440.867 73.9654 440.867 74.866C440.867 75.7897 441.011 76.6066 441.3 77.3167C441.594 78.0211 442.027 78.5753 442.599 78.9794C443.176 79.3778 443.892 79.5769 444.747 79.5769ZM454.648 86.6087C454.301 86.6087 453.993 86.5799 453.721 86.5221C453.45 86.4702 453.262 86.4182 453.158 86.3662L453.678 84.565C454.174 84.692 454.613 84.7382 454.994 84.7036C455.375 84.6689 455.713 84.4986 456.007 84.1926C456.308 83.8924 456.582 83.4046 456.83 82.7291L457.211 81.6899L452.292 68.3192H454.509L458.181 78.9188H458.32L461.991 68.3192H464.208L458.562 83.5605C458.308 84.2475 457.993 84.8161 457.618 85.2664C457.243 85.7225 456.807 86.0603 456.311 86.2796C455.82 86.499 455.266 86.6087 454.648 86.6087Z" fill="#1A1A1A"/>
</svg>
