<svg width="123" height="113" viewBox="0 0 123 113" fill="none" xmlns="http://www.w3.org/2000/svg">
<path fill-rule="evenodd" clip-rule="evenodd" d="M50.6787 26.2087C42.584 26.2087 36.022 19.6467 36.022 11.552V0.285027H61.9349V26.2087H50.6787ZM42.0457 13.2469H57.8238C58.0387 15.7702 56.8262 20.8168 50.2571 20.8168C43.6879 20.8168 42.0457 15.7702 42.0457 13.2469Z" fill="#1A1A1A"/>
<path fill-rule="evenodd" clip-rule="evenodd" d="M73.2143 26.2085C81.309 26.2085 87.871 32.7705 87.871 40.8652V52.1322H61.958V26.2085H73.2143ZM81.4289 39.4979C81.5131 40.4866 81.0726 41.9735 80.0307 43.2177C79.001 44.4474 77.4003 45.4193 75.1815 45.4193C73.1909 45.4193 71.4864 44.4507 70.2706 43.1976C69.0425 41.9318 68.3718 40.4386 68.3718 39.4665H67.6327C67.6327 40.7006 68.4363 42.3685 69.7401 43.7124C71.0563 45.0689 72.9414 46.1585 75.1815 46.1585C77.6409 46.1585 79.4419 45.0722 80.5974 43.6923C81.7408 42.3269 82.2691 40.6525 82.1654 39.4352L81.4289 39.4979Z" fill="#1A1A1A"/>
<path fill-rule="evenodd" clip-rule="evenodd" d="M87.871 26.2088H76.6147C68.52 26.2088 61.958 19.6468 61.958 11.5521V0.285095H87.871V26.2088ZM68.8137 8.91173C68.4302 9.36859 68.2779 9.90524 68.3064 10.2397L67.7059 10.291C67.6614 9.76961 67.8858 9.07985 68.3521 8.52428C68.8283 7.95683 69.5713 7.51122 70.5787 7.51122C71.5027 7.51122 72.2742 7.95953 72.8075 8.50792C73.3306 9.04588 73.6717 9.73037 73.6717 10.2654H73.069C73.069 9.94448 72.8368 9.40257 72.3754 8.92809C71.9241 8.46404 71.2998 8.11389 70.5787 8.11389C69.7669 8.11389 69.1872 8.46674 68.8137 8.91173ZM77.5436 10.2398C77.5152 9.90493 77.6671 9.36808 78.049 8.91128C78.421 8.46633 78.998 8.11389 79.8058 8.11389C80.5232 8.11389 81.1447 8.46364 81.5941 8.92766C82.0536 9.40201 82.2851 9.94405 82.2851 10.2654H82.8878C82.8878 9.7308 82.5482 9.04643 82.027 8.50835C81.4958 7.95993 80.727 7.51122 79.8058 7.51122C78.8015 7.51122 78.061 7.95724 77.5866 8.52473C77.1221 9.08036 76.8988 9.76992 76.9431 10.2909L77.5436 10.2398Z" fill="#22B34F"/>
<path fill-rule="evenodd" clip-rule="evenodd" d="M47.2802 26.2087H36.0239V52.1323H61.9369V40.8653C61.9369 32.7707 55.3749 26.2087 47.2802 26.2087ZM56.0183 36.7496C56.0183 38.0868 54.9348 39.1707 53.5982 39.1707C52.2617 39.1707 51.1781 38.0868 51.1781 36.7496C51.1781 35.4125 52.2617 34.3285 53.5982 34.3285C54.9348 34.3285 56.0183 35.4125 56.0183 36.7496ZM46.888 36.7496C46.888 38.0868 45.8045 39.1707 44.468 39.1707C43.1314 39.1707 42.0479 38.0868 42.0479 36.7496C42.0479 35.4125 43.1314 34.3286 44.468 34.3286C45.8045 34.3286 46.888 35.4125 46.888 36.7496Z" fill="#22B34F"/>
<path d="M2.51987 80.5018V62.4024H14.5037V65.5574H6.34656V69.8702H13.7083V73.0252H6.34656V80.5018H2.51987ZM32.7145 71.4521C32.7145 73.4258 32.3404 75.105 31.5922 76.4895C30.8498 77.8741 29.8364 78.9317 28.552 79.6622C27.2735 80.3869 25.8359 80.7493 24.2393 80.7493C22.6308 80.7493 21.1874 80.384 19.9088 79.6534C18.6303 78.9228 17.6199 77.8653 16.8775 76.4807C16.1352 75.0961 15.764 73.4199 15.764 71.4521C15.764 69.4784 16.1352 67.7992 16.8775 66.4147C17.6199 65.0301 18.6303 63.9755 19.9088 63.2508C21.1874 62.5202 22.6308 62.1549 24.2393 62.1549C25.8359 62.1549 27.2735 62.5202 28.552 63.2508C29.8364 63.9755 30.8498 65.0301 31.5922 66.4147C32.3404 67.7992 32.7145 69.4784 32.7145 71.4521ZM28.8348 71.4521C28.8348 70.1736 28.6434 69.0954 28.2604 68.2175C27.8833 67.3397 27.3501 66.6739 26.6608 66.2202C25.9714 65.7666 25.1643 65.5397 24.2393 65.5397C23.3143 65.5397 22.5071 65.7666 21.8178 66.2202C21.1284 66.6739 20.5923 67.3397 20.2093 68.2175C19.8323 69.0954 19.6437 70.1736 19.6437 71.4521C19.6437 72.7306 19.8323 73.8088 20.2093 74.6867C20.5923 75.5645 21.1284 76.2303 21.8178 76.684C22.5071 77.1376 23.3143 77.3645 24.2393 77.3645C25.1643 77.3645 25.9714 77.1376 26.6608 76.684C27.3501 76.2303 27.8833 75.5645 28.2604 74.6867C28.6434 73.8088 28.8348 72.7306 28.8348 71.4521ZM44.3723 67.6077C44.3016 66.8948 43.9982 66.341 43.4621 65.9463C42.9259 65.5515 42.1983 65.3541 41.2792 65.3541C40.6546 65.3541 40.1273 65.4425 39.6972 65.6193C39.2671 65.7901 38.9372 66.0287 38.7074 66.3351C38.4835 66.6415 38.3716 66.9891 38.3716 67.378C38.3598 67.702 38.4276 67.9848 38.5749 68.2264C38.728 68.4679 38.9372 68.6771 39.2023 68.8538C39.4675 69.0247 39.7738 69.1749 40.1214 69.3046C40.469 69.4283 40.8402 69.5343 41.235 69.6227L42.8611 70.0116C43.6506 70.1883 44.3753 70.424 45.0351 70.7186C45.695 71.0132 46.2665 71.3755 46.7496 71.8056C47.2328 72.2357 47.6069 72.7424 47.872 73.3257C48.143 73.9089 48.2815 74.5777 48.2874 75.3318C48.2815 76.4394 47.9987 77.3998 47.439 78.2129C46.8852 79.02 46.0839 79.6475 45.0351 80.0953C43.9923 80.5372 42.7344 80.7581 41.2615 80.7581C39.8003 80.7581 38.5277 80.5342 37.4436 80.0864C36.3654 79.6387 35.5229 78.9758 34.9161 78.098C34.3151 77.2142 33.9999 76.1213 33.9705 74.8192H37.6734C37.7147 75.4261 37.8885 75.9328 38.1948 76.3393C38.5071 76.7399 38.9225 77.0434 39.4409 77.2496C39.9653 77.4499 40.5574 77.55 41.2173 77.55C41.8654 77.55 42.4281 77.4558 42.9053 77.2672C43.3884 77.0787 43.7625 76.8165 44.0277 76.4807C44.2928 76.1449 44.4254 75.759 44.4254 75.323C44.4254 74.9164 44.3046 74.5747 44.063 74.2978C43.8273 74.0209 43.4797 73.7852 43.0202 73.5908C42.5665 73.3964 42.0097 73.2196 41.3499 73.0605L39.3791 72.5656C37.8531 72.1944 36.6483 71.6141 35.7645 70.8246C34.8807 70.0351 34.4418 68.9717 34.4477 67.6342C34.4418 66.5384 34.7334 65.581 35.3226 64.762C35.9177 63.9431 36.7337 63.3038 37.7706 62.8443C38.8076 62.3847 39.9859 62.1549 41.3057 62.1549C42.649 62.1549 43.8214 62.3847 44.823 62.8443C45.8305 63.3038 46.6141 63.9431 47.1738 64.762C47.7336 65.581 48.0223 66.5295 48.0399 67.6077H44.3723ZM59.6845 67.6077C59.6138 66.8948 59.3103 66.341 58.7742 65.9463C58.238 65.5515 57.5104 65.3541 56.5913 65.3541C55.9668 65.3541 55.4395 65.4425 55.0094 65.6193C54.5793 65.7901 54.2493 66.0287 54.0196 66.3351C53.7957 66.6415 53.6837 66.9891 53.6837 67.378C53.6719 67.702 53.7397 67.9848 53.887 68.2264C54.0402 68.4679 54.2493 68.6771 54.5145 68.8538C54.7796 69.0247 55.086 69.1749 55.4336 69.3046C55.7812 69.4283 56.1524 69.5343 56.5471 69.6227L58.1732 70.0116C58.9627 70.1883 59.6874 70.424 60.3473 70.7186C61.0072 71.0132 61.5787 71.3755 62.0618 71.8056C62.5449 72.2357 62.919 72.7424 63.1842 73.3257C63.4552 73.9089 63.5936 74.5777 63.5995 75.3318C63.5936 76.4394 63.3108 77.3998 62.7511 78.2129C62.1973 79.02 61.396 79.6475 60.3473 80.0953C59.3044 80.5372 58.0466 80.7581 56.5736 80.7581C55.1125 80.7581 53.8399 80.5342 52.7558 80.0864C51.6776 79.6387 50.8351 78.9758 50.2282 78.098C49.6273 77.2142 49.312 76.1213 49.2826 74.8192H52.9855C53.0268 75.4261 53.2006 75.9328 53.507 76.3393C53.8192 76.7399 54.2346 77.0434 54.7531 77.2496C55.2774 77.4499 55.8696 77.55 56.5294 77.55C57.1775 77.55 57.7402 77.4558 58.2174 77.2672C58.7005 77.0787 59.0747 76.8165 59.3398 76.4807C59.6049 76.1449 59.7375 75.759 59.7375 75.323C59.7375 74.9164 59.6167 74.5747 59.3751 74.2978C59.1395 74.0209 58.7919 73.7852 58.3323 73.5908C57.8786 73.3964 57.3219 73.2196 56.662 73.0605L54.6912 72.5656C53.1652 72.1944 51.9604 71.6141 51.0766 70.8246C50.1929 70.0351 49.7539 68.9717 49.7598 67.6342C49.7539 66.5384 50.0456 65.581 50.6347 64.762C51.2298 63.9431 52.0458 63.3038 53.0828 62.8443C54.1197 62.3847 55.2981 62.1549 56.6178 62.1549C57.9611 62.1549 59.1336 62.3847 60.1352 62.8443C61.1427 63.3038 61.9263 63.9431 62.486 64.762C63.0457 65.581 63.3344 66.5295 63.3521 67.6077H59.6845ZM85.912 68.7389H82.0411C81.9704 68.2381 81.8261 67.7933 81.6081 67.4045C81.3901 67.0097 81.1102 66.6739 80.7685 66.397C80.4268 66.1201 80.0321 65.908 79.5843 65.7607C79.1424 65.6134 78.6622 65.5397 78.1438 65.5397C77.207 65.5397 76.391 65.7725 75.6957 66.2379C75.0005 66.6975 74.4614 67.3691 74.0785 68.2529C73.6955 69.1307 73.504 70.1971 73.504 71.4521C73.504 72.7424 73.6955 73.8265 74.0785 74.7043C74.4673 75.5822 75.0093 76.245 75.7046 76.6928C76.3998 77.1406 77.204 77.3645 78.1172 77.3645C78.6298 77.3645 79.1041 77.2967 79.5401 77.1612C79.982 77.0257 80.3738 76.8283 80.7155 76.5691C81.0572 76.3039 81.34 75.9828 81.5639 75.6058C81.7937 75.2287 81.9528 74.7986 82.0411 74.3155L85.912 74.3332C85.8119 75.1639 85.5615 75.9652 85.1608 76.737C84.7661 77.5029 84.2329 78.1893 83.5612 78.7961C82.8954 79.3971 82.1001 79.8743 81.1751 80.2278C80.2559 80.5755 79.216 80.7493 78.0554 80.7493C76.441 80.7493 74.9976 80.384 73.7249 79.6534C72.4582 78.9228 71.4566 77.8653 70.7202 76.4807C69.9896 75.0961 69.6243 73.4199 69.6243 71.4521C69.6243 69.4784 69.9955 67.7992 70.7378 66.4147C71.4802 65.0301 72.4877 63.9755 73.7603 63.2508C75.0329 62.5202 76.4646 62.1549 78.0554 62.1549C79.1041 62.1549 80.0762 62.3022 80.9718 62.5968C81.8732 62.8914 82.6716 63.3215 83.3668 63.8871C84.062 64.4468 84.6276 65.1332 85.0636 65.9463C85.5055 66.7593 85.7883 67.6902 85.912 68.7389ZM91.3547 62.4024V80.5018H87.5899V62.4024H91.3547ZM102.08 74.722V66.9272H105.845V80.5018H102.23V78.0361H102.089C101.783 78.8315 101.273 79.4707 100.56 79.9539C99.8531 80.437 98.9899 80.6786 97.9707 80.6786C97.0633 80.6786 96.265 80.4723 95.5757 80.0599C94.8863 79.6475 94.3472 79.0613 93.9584 78.3012C93.5754 77.5412 93.381 76.6309 93.3751 75.5704V66.9272H97.1399V74.8988C97.1458 75.7 97.3609 76.3334 97.7851 76.7988C98.2093 77.2643 98.7778 77.497 99.4907 77.497C99.9444 77.497 100.369 77.3939 100.763 77.1877C101.158 76.9756 101.476 76.6633 101.718 76.2509C101.965 75.8385 102.086 75.3289 102.08 74.722ZM107.932 80.5018V62.4024H111.696V69.2073H111.811C111.976 68.842 112.215 68.4709 112.527 68.0938C112.845 67.7108 113.258 67.3927 113.764 67.1393C114.277 66.8801 114.913 66.7505 115.673 66.7505C116.663 66.7505 117.576 67.0097 118.413 67.5282C119.25 68.0408 119.918 68.8155 120.419 69.8525C120.92 70.8835 121.17 72.1768 121.17 73.7322C121.17 75.2464 120.926 76.5249 120.437 77.5677C119.954 78.6047 119.294 79.3912 118.457 79.9274C117.626 80.4576 116.696 80.7227 115.665 80.7227C114.934 80.7227 114.312 80.602 113.8 80.3604C113.293 80.1188 112.878 79.8154 112.554 79.4501C112.23 79.0789 111.982 78.7048 111.811 78.3278H111.643V80.5018H107.932ZM111.617 73.7145C111.617 74.5217 111.729 75.2258 111.953 75.8267C112.177 76.4277 112.501 76.8961 112.925 77.2319C113.349 77.5618 113.865 77.7268 114.471 77.7268C115.084 77.7268 115.603 77.5589 116.027 77.2231C116.451 76.8813 116.772 76.41 116.99 75.809C117.214 75.2022 117.326 74.504 117.326 73.7145C117.326 72.9309 117.217 72.2416 116.999 71.6465C116.781 71.0515 116.46 70.586 116.036 70.2502C115.612 69.9143 115.09 69.7464 114.471 69.7464C113.859 69.7464 113.34 69.9085 112.916 70.2325C112.498 70.5565 112.177 71.0161 111.953 71.6112C111.729 72.2062 111.617 72.9074 111.617 73.7145Z" fill="#1A1A1A"/>
<path d="M14.9506 90.7881C14.9089 90.4183 14.737 90.1318 14.4349 89.9287C14.1329 89.723 13.7526 89.6201 13.2943 89.6201C12.9662 89.6201 12.6823 89.6722 12.4428 89.7764C12.2032 89.8779 12.017 90.0186 11.8842 90.1983C11.754 90.3753 11.6888 90.5772 11.6888 90.8037C11.6888 90.9938 11.7331 91.1579 11.8217 91.2959C11.9128 91.4339 12.0313 91.5498 12.1771 91.6436C12.3256 91.7347 12.4844 91.8115 12.6537 91.874C12.823 91.9339 12.9857 91.9834 13.142 92.0225L13.9232 92.2256C14.1784 92.2881 14.4401 92.3727 14.7084 92.4795C14.9766 92.5863 15.2253 92.7269 15.4545 92.9014C15.6836 93.0759 15.8685 93.292 16.0092 93.5498C16.1524 93.8076 16.224 94.1162 16.224 94.4756C16.224 94.9287 16.1068 95.3311 15.8724 95.6826C15.6407 96.0342 15.3034 96.3115 14.8607 96.5147C14.4206 96.7178 13.8881 96.8193 13.2631 96.8193C12.6641 96.8193 12.1459 96.7243 11.7084 96.5342C11.2709 96.3441 10.9284 96.0746 10.681 95.7256C10.4336 95.374 10.2969 94.9574 10.2709 94.4756H11.4818C11.5053 94.7647 11.599 95.0055 11.7631 95.1983C11.9297 95.3884 12.142 95.5303 12.3998 95.624C12.6602 95.7152 12.9454 95.7608 13.2553 95.7608C13.5964 95.7608 13.8998 95.7074 14.1654 95.6006C14.4336 95.4912 14.6446 95.3402 14.7982 95.1475C14.9519 94.9522 15.0287 94.7243 15.0287 94.4639C15.0287 94.2269 14.961 94.0329 14.8256 93.8818C14.6928 93.7308 14.5118 93.6058 14.2826 93.5068C14.056 93.4079 13.7995 93.3207 13.5131 93.2451L12.5678 92.9873C11.9271 92.8128 11.4193 92.5563 11.0443 92.2178C10.6719 91.8792 10.4857 91.4313 10.4857 90.874C10.4857 90.4131 10.6107 90.0108 10.8607 89.667C11.1107 89.3233 11.4493 89.0563 11.8763 88.8662C12.3034 88.6735 12.7852 88.5772 13.3217 88.5772C13.8633 88.5772 14.3412 88.6722 14.7553 88.8623C15.1719 89.0524 15.5 89.3141 15.7396 89.6475C15.9792 89.9782 16.1042 90.3584 16.1146 90.7881H14.9506ZM17.8709 98.9365C17.6964 98.9365 17.5376 98.9222 17.3944 98.8936C17.2511 98.8675 17.1444 98.8389 17.074 98.8076L17.3553 97.8506C17.5688 97.9079 17.7589 97.9326 17.9256 97.9248C18.0923 97.917 18.2394 97.8545 18.367 97.7373C18.4972 97.6201 18.6118 97.4287 18.7108 97.1631L18.8553 96.7647L16.66 90.6865H17.91L19.4295 95.3428H19.492L21.0115 90.6865H22.2654L19.7928 97.4873C19.6782 97.7998 19.5324 98.0641 19.3553 98.2803C19.1782 98.499 18.9673 98.6631 18.7225 98.7725C18.4777 98.8818 18.1938 98.9365 17.8709 98.9365ZM22.9231 96.6865V90.6865H24.0442V91.6631H24.1184C24.2434 91.3324 24.4478 91.0746 24.7317 90.8897C25.0156 90.7022 25.3554 90.6084 25.7512 90.6084C26.1523 90.6084 26.4882 90.7022 26.759 90.8897C27.0325 91.0772 27.2343 91.335 27.3645 91.6631H27.427C27.5702 91.3428 27.7981 91.0876 28.1106 90.8975C28.4231 90.7048 28.7955 90.6084 29.2278 90.6084C29.7721 90.6084 30.2161 90.779 30.5598 91.1201C30.9062 91.4613 31.0794 91.9756 31.0794 92.6631V96.6865H29.9114V92.7725C29.9114 92.3662 29.8007 92.072 29.5794 91.8897C29.358 91.7074 29.0937 91.6162 28.7864 91.6162C28.4062 91.6162 28.1106 91.7334 27.8997 91.9678C27.6887 92.1996 27.5833 92.4977 27.5833 92.8623V96.6865H26.4192V92.6983C26.4192 92.3727 26.3176 92.111 26.1145 91.9131C25.9114 91.7152 25.6471 91.6162 25.3215 91.6162C25.1002 91.6162 24.8958 91.6748 24.7083 91.792C24.5234 91.9066 24.3736 92.0667 24.259 92.2725C24.1471 92.4782 24.0911 92.7165 24.0911 92.9873V96.6865H22.9231ZM32.2985 96.6865V88.6865H33.4665V91.6592H33.5368C33.6045 91.5342 33.7022 91.3897 33.8298 91.2256C33.9574 91.0615 34.1345 90.9183 34.361 90.7959C34.5876 90.6709 34.8871 90.6084 35.2595 90.6084C35.7438 90.6084 36.1761 90.7308 36.5563 90.9756C36.9366 91.2204 37.2347 91.5733 37.4509 92.0342C37.6696 92.4951 37.779 93.0498 37.779 93.6983C37.779 94.3467 37.6709 94.9027 37.4548 95.3662C37.2386 95.8272 36.9418 96.1826 36.5642 96.4326C36.1866 96.68 35.7556 96.8037 35.2712 96.8037C34.9066 96.8037 34.6084 96.7425 34.3767 96.6201C34.1475 96.4977 33.9678 96.3545 33.8376 96.1904C33.7074 96.0264 33.6071 95.8805 33.5368 95.7529H33.4392V96.6865H32.2985ZM33.4431 93.6865C33.4431 94.1084 33.5043 94.4782 33.6267 94.7959C33.7491 95.1136 33.9261 95.3623 34.1579 95.542C34.3897 95.7191 34.6735 95.8076 35.0095 95.8076C35.3584 95.8076 35.6501 95.7152 35.8845 95.5303C36.1188 95.3428 36.2959 95.0889 36.4157 94.7686C36.5381 94.4483 36.5993 94.0876 36.5993 93.6865C36.5993 93.2907 36.5394 92.9352 36.4196 92.6201C36.3024 92.305 36.1254 92.0563 35.8884 91.874C35.654 91.6917 35.361 91.6006 35.0095 91.6006C34.6709 91.6006 34.3845 91.6878 34.1501 91.8623C33.9183 92.0368 33.7425 92.2803 33.6228 92.5928C33.503 92.9053 33.4431 93.2699 33.4431 93.6865ZM38.6505 96.6865V90.6865H39.8185V96.6865H38.6505ZM39.2404 89.7608C39.0372 89.7608 38.8628 89.693 38.7169 89.5576C38.5737 89.4196 38.5021 89.2555 38.5021 89.0654C38.5021 88.8727 38.5737 88.7087 38.7169 88.5733C38.8628 88.4352 39.0372 88.3662 39.2404 88.3662C39.4435 88.3662 39.6167 88.4352 39.7599 88.5733C39.9057 88.7087 39.9787 88.8727 39.9787 89.0654C39.9787 89.2555 39.9057 89.4196 39.7599 89.5576C39.6167 89.693 39.4435 89.7608 39.2404 89.7608ZM43.4771 96.8076C42.9146 96.8076 42.4237 96.6787 42.0045 96.4209C41.5852 96.1631 41.2597 95.8024 41.0279 95.3389C40.7961 94.8753 40.6803 94.3337 40.6803 93.7139C40.6803 93.0915 40.7961 92.5472 41.0279 92.0811C41.2597 91.6149 41.5852 91.2529 42.0045 90.9951C42.4237 90.7373 42.9146 90.6084 43.4771 90.6084C44.0396 90.6084 44.5305 90.7373 44.9498 90.9951C45.3691 91.2529 45.6946 91.6149 45.9263 92.0811C46.1581 92.5472 46.274 93.0915 46.274 93.7139C46.274 94.3337 46.1581 94.8753 45.9263 95.3389C45.6946 95.8024 45.3691 96.1631 44.9498 96.4209C44.5305 96.6787 44.0396 96.8076 43.4771 96.8076ZM43.481 95.8272C43.8456 95.8272 44.1477 95.7308 44.3873 95.5381C44.6269 95.3454 44.804 95.0889 44.9185 94.7686C45.0357 94.4483 45.0943 94.0954 45.0943 93.71C45.0943 93.3272 45.0357 92.9756 44.9185 92.6553C44.804 92.3324 44.6269 92.0733 44.3873 91.8779C44.1477 91.6826 43.8456 91.585 43.481 91.585C43.1138 91.585 42.8092 91.6826 42.567 91.8779C42.3274 92.0733 42.149 92.3324 42.0318 92.6553C41.9172 92.9756 41.8599 93.3272 41.8599 93.71C41.8599 94.0954 41.9172 94.4483 42.0318 94.7686C42.149 95.0889 42.3274 95.3454 42.567 95.5381C42.8092 95.7308 43.1138 95.8272 43.481 95.8272ZM51.6338 92.1514L50.5752 92.3389C50.5309 92.2035 50.4606 92.0746 50.3643 91.9522C50.2705 91.8298 50.1429 91.7295 49.9815 91.6514C49.82 91.5733 49.6182 91.5342 49.376 91.5342C49.0453 91.5342 48.7692 91.6084 48.5479 91.7568C48.3265 91.9027 48.2158 92.0915 48.2158 92.3233C48.2158 92.5238 48.2901 92.6852 48.4385 92.8076C48.5869 92.93 48.8265 93.0303 49.1572 93.1084L50.1104 93.3272C50.6625 93.4548 51.0739 93.6514 51.3447 93.917C51.6156 94.1826 51.751 94.5277 51.751 94.9522C51.751 95.3115 51.6468 95.6318 51.4385 95.9131C51.2328 96.1917 50.945 96.4105 50.5752 96.5693C50.208 96.7282 49.7822 96.8076 49.2979 96.8076C48.626 96.8076 48.0778 96.6644 47.6533 96.3779C47.2289 96.0889 46.9684 95.6787 46.8721 95.1475L48.001 94.9756C48.0713 95.2699 48.2158 95.4925 48.4346 95.6436C48.6533 95.792 48.9385 95.8662 49.2901 95.8662C49.6729 95.8662 49.9789 95.7868 50.208 95.6279C50.4372 95.4665 50.5518 95.2699 50.5518 95.0381C50.5518 94.8506 50.4815 94.693 50.3408 94.5654C50.2028 94.4378 49.9906 94.3415 49.7041 94.2764L48.6885 94.0537C48.1286 93.9261 47.7145 93.723 47.4463 93.4443C47.1807 93.1657 47.0479 92.8128 47.0479 92.3858C47.0479 92.0316 47.1468 91.7217 47.3447 91.4561C47.5427 91.1904 47.8161 90.9834 48.1651 90.835C48.514 90.6839 48.9138 90.6084 49.3643 90.6084C50.0127 90.6084 50.5231 90.749 50.8955 91.0303C51.2679 91.3089 51.514 91.6826 51.6338 92.1514ZM52.5952 96.6865V90.6865H53.7631V96.6865H52.5952ZM53.185 89.7608C52.9819 89.7608 52.8074 89.693 52.6616 89.5576C52.5183 89.4196 52.4467 89.2555 52.4467 89.0654C52.4467 88.8727 52.5183 88.7087 52.6616 88.5733C52.8074 88.4352 52.9819 88.3662 53.185 88.3662C53.3881 88.3662 53.5613 88.4352 53.7045 88.5733C53.8504 88.7087 53.9233 88.8727 53.9233 89.0654C53.9233 89.2555 53.8504 89.4196 53.7045 89.5576C53.5613 89.693 53.3881 89.7608 53.185 89.7608ZM59.3905 92.1514L58.3319 92.3389C58.2877 92.2035 58.2173 92.0746 58.121 91.9522C58.0272 91.8298 57.8996 91.7295 57.7382 91.6514C57.5767 91.5733 57.3749 91.5342 57.1327 91.5342C56.802 91.5342 56.5259 91.6084 56.3046 91.7568C56.0832 91.9027 55.9726 92.0915 55.9726 92.3233C55.9726 92.5238 56.0468 92.6852 56.1952 92.8076C56.3437 92.93 56.5832 93.0303 56.914 93.1084L57.8671 93.3272C58.4192 93.4548 58.8306 93.6514 59.1015 93.917C59.3723 94.1826 59.5077 94.5277 59.5077 94.9522C59.5077 95.3115 59.4035 95.6318 59.1952 95.9131C58.9895 96.1917 58.7017 96.4105 58.3319 96.5693C57.9647 96.7282 57.539 96.8076 57.0546 96.8076C56.3827 96.8076 55.8345 96.6644 55.4101 96.3779C54.9856 96.0889 54.7252 95.6787 54.6288 95.1475L55.7577 94.9756C55.828 95.2699 55.9726 95.4925 56.1913 95.6436C56.4101 95.792 56.6952 95.8662 57.0468 95.8662C57.4296 95.8662 57.7356 95.7868 57.9647 95.6279C58.1939 95.4665 58.3085 95.2699 58.3085 95.0381C58.3085 94.8506 58.2382 94.693 58.0976 94.5654C57.9595 94.4378 57.7473 94.3415 57.4608 94.2764L56.4452 94.0537C55.8853 93.9261 55.4713 93.723 55.203 93.4443C54.9374 93.1657 54.8046 92.8128 54.8046 92.3858C54.8046 92.0316 54.9035 91.7217 55.1015 91.4561C55.2994 91.1904 55.5728 90.9834 55.9218 90.835C56.2707 90.6839 56.6705 90.6084 57.121 90.6084C57.7694 90.6084 58.2798 90.749 58.6522 91.0303C59.0246 91.3089 59.2707 91.6826 59.3905 92.1514ZM64.1238 88.6865V96.6865H62.9168V88.6865H64.1238ZM66.5158 93.124V96.6865H65.3479V90.6865H66.469V91.6631H66.5432C66.6812 91.3454 66.8973 91.0902 67.1916 90.8975C67.4885 90.7048 67.8622 90.6084 68.3127 90.6084C68.7216 90.6084 69.0796 90.6943 69.3869 90.8662C69.6942 91.0355 69.9325 91.2881 70.1018 91.624C70.271 91.96 70.3557 92.3753 70.3557 92.8701V96.6865H69.1877V93.0108C69.1877 92.5759 69.0744 92.236 68.8479 91.9912C68.6213 91.7438 68.3101 91.6201 67.9143 91.6201C67.6434 91.6201 67.4026 91.6787 67.1916 91.7959C66.9833 91.9131 66.8179 92.085 66.6955 92.3115C66.5757 92.5355 66.5158 92.8063 66.5158 93.124ZM75.9782 92.1514L74.9196 92.3389C74.8753 92.2035 74.805 92.0746 74.7087 91.9522C74.6149 91.8298 74.4873 91.7295 74.3258 91.6514C74.1644 91.5733 73.9626 91.5342 73.7204 91.5342C73.3896 91.5342 73.1136 91.6084 72.8922 91.7568C72.6709 91.9027 72.5602 92.0915 72.5602 92.3233C72.5602 92.5238 72.6344 92.6852 72.7829 92.8076C72.9313 92.93 73.1709 93.0303 73.5016 93.1084L74.4547 93.3272C75.0068 93.4548 75.4183 93.6514 75.6891 93.917C75.96 94.1826 76.0954 94.5277 76.0954 94.9522C76.0954 95.3115 75.9912 95.6318 75.7829 95.9131C75.5771 96.1917 75.2894 96.4105 74.9196 96.5693C74.5524 96.7282 74.1266 96.8076 73.6422 96.8076C72.9704 96.8076 72.4222 96.6644 71.9977 96.3779C71.5732 96.0889 71.3128 95.6787 71.2165 95.1475L72.3454 94.9756C72.4157 95.2699 72.5602 95.4925 72.779 95.6436C72.9977 95.792 73.2829 95.8662 73.6344 95.8662C74.0172 95.8662 74.3232 95.7868 74.5524 95.6279C74.7816 95.4665 74.8962 95.2699 74.8962 95.0381C74.8962 94.8506 74.8258 94.693 74.6852 94.5654C74.5472 94.4378 74.335 94.3415 74.0485 94.2764L73.0329 94.0537C72.473 93.9261 72.0589 93.723 71.7907 93.4443C71.5251 93.1657 71.3922 92.8128 71.3922 92.3858C71.3922 92.0316 71.4912 91.7217 71.6891 91.4561C71.887 91.1904 72.1605 90.9834 72.5094 90.835C72.8584 90.6839 73.2581 90.6084 73.7087 90.6084C74.3571 90.6084 74.8675 90.749 75.2399 91.0303C75.6123 91.3089 75.8584 91.6826 75.9782 92.1514ZM79.7403 90.6865V91.624H76.463V90.6865H79.7403ZM77.3419 89.249H78.5099V94.9248C78.5099 95.1514 78.5437 95.322 78.6114 95.4365C78.6791 95.5485 78.7664 95.6253 78.8731 95.667C78.9825 95.7061 79.101 95.7256 79.2286 95.7256C79.3224 95.7256 79.4044 95.7191 79.4747 95.7061C79.545 95.693 79.5997 95.6826 79.6388 95.6748L79.8497 96.6397C79.782 96.6657 79.6856 96.6917 79.5606 96.7178C79.4356 96.7464 79.2794 96.7621 79.0919 96.7647C78.7846 96.7699 78.4981 96.7152 78.2325 96.6006C77.9669 96.486 77.752 96.3089 77.588 96.0693C77.4239 95.8298 77.3419 95.529 77.3419 95.167V89.249ZM80.5923 96.6865V90.6865H81.7603V96.6865H80.5923ZM81.1822 89.7608C80.979 89.7608 80.8046 89.693 80.6587 89.5576C80.5155 89.4196 80.4439 89.2555 80.4439 89.0654C80.4439 88.8727 80.5155 88.7087 80.6587 88.5733C80.8046 88.4352 80.979 88.3662 81.1822 88.3662C81.3853 88.3662 81.5585 88.4352 81.7017 88.5733C81.8475 88.7087 81.9204 88.8727 81.9204 89.0654C81.9204 89.2555 81.8475 89.4196 81.7017 89.5576C81.5585 89.693 81.3853 89.7608 81.1822 89.7608ZM85.6924 90.6865V91.624H82.415V90.6865H85.6924ZM83.2939 89.249H84.4619V94.9248C84.4619 95.1514 84.4958 95.322 84.5635 95.4365C84.6312 95.5485 84.7184 95.6253 84.8252 95.667C84.9346 95.7061 85.053 95.7256 85.1806 95.7256C85.2744 95.7256 85.3564 95.7191 85.4267 95.7061C85.4971 95.693 85.5517 95.6826 85.5908 95.6748L85.8017 96.6397C85.734 96.6657 85.6377 96.6917 85.5127 96.7178C85.3877 96.7464 85.2314 96.7621 85.0439 96.7647C84.7366 96.7699 84.4502 96.7152 84.1846 96.6006C83.9189 96.486 83.7041 96.3089 83.54 96.0693C83.376 95.8298 83.2939 95.529 83.2939 95.167V89.249ZM90.3451 94.1983V90.6865H91.517V96.6865H90.3686V95.6475H90.3061C90.1681 95.9678 89.9467 96.2347 89.642 96.4483C89.3399 96.6592 88.9636 96.7647 88.5131 96.7647C88.1277 96.7647 87.7865 96.68 87.4897 96.5108C87.1954 96.3389 86.9636 96.085 86.7944 95.749C86.6277 95.4131 86.5444 94.9977 86.5444 94.5029V90.6865H87.7123V94.3623C87.7123 94.7712 87.8256 95.0967 88.0522 95.3389C88.2787 95.5811 88.573 95.7022 88.935 95.7022C89.1537 95.7022 89.3712 95.6475 89.5873 95.5381C89.8061 95.4287 89.9871 95.2634 90.1303 95.042C90.2761 94.8207 90.3477 94.5394 90.3451 94.1983ZM95.4471 90.6865V91.624H92.1698V90.6865H95.4471ZM93.0487 89.249H94.2167V94.9248C94.2167 95.1514 94.2505 95.322 94.3182 95.4365C94.3859 95.5485 94.4732 95.6253 94.5799 95.667C94.6893 95.7061 94.8078 95.7256 94.9354 95.7256C95.0292 95.7256 95.1112 95.7191 95.1815 95.7061C95.2518 95.693 95.3065 95.6826 95.3456 95.6748L95.5565 96.6397C95.4888 96.6657 95.3924 96.6917 95.2674 96.7178C95.1424 96.7464 94.9862 96.7621 94.7987 96.7647C94.4914 96.7699 94.2049 96.7152 93.9393 96.6006C93.6737 96.486 93.4588 96.3089 93.2948 96.0693C93.1307 95.8298 93.0487 95.529 93.0487 95.167V89.249ZM98.8206 96.8076C98.2295 96.8076 97.7203 96.6813 97.2933 96.4287C96.8688 96.1735 96.5407 95.8154 96.3089 95.3545C96.0797 94.891 95.9651 94.348 95.9651 93.7256C95.9651 93.111 96.0797 92.5693 96.3089 92.1006C96.5407 91.6318 96.8636 91.266 97.2776 91.0029C97.6943 90.7399 98.1813 90.6084 98.7386 90.6084C99.0771 90.6084 99.4052 90.6644 99.7229 90.7764C100.041 90.8884 100.326 91.0641 100.578 91.3037C100.831 91.5433 101.03 91.8545 101.176 92.2373C101.322 92.6175 101.395 93.0798 101.395 93.624V94.0381H96.6253V93.1631H100.25C100.25 92.8558 100.188 92.5837 100.063 92.3467C99.9378 92.1071 99.762 91.9183 99.5354 91.7803C99.3115 91.6423 99.0485 91.5733 98.7464 91.5733C98.4183 91.5733 98.1318 91.654 97.887 91.8154C97.6448 91.9743 97.4573 92.1826 97.3245 92.4404C97.1943 92.6957 97.1292 92.973 97.1292 93.2725V93.9561C97.1292 94.3571 97.1995 94.6983 97.3401 94.9795C97.4834 95.2608 97.6826 95.4756 97.9378 95.624C98.193 95.7699 98.4912 95.8428 98.8323 95.8428C99.0537 95.8428 99.2555 95.8115 99.4378 95.749C99.6201 95.6839 99.7776 95.5876 99.9104 95.46C100.043 95.3324 100.145 95.1748 100.215 94.9873L101.321 95.1865C101.232 95.5121 101.073 95.7972 100.844 96.042C100.617 96.2842 100.332 96.473 99.9886 96.6084C99.6474 96.7412 99.2581 96.8076 98.8206 96.8076ZM107.249 96.8076C106.687 96.8076 106.196 96.6787 105.777 96.4209C105.357 96.1631 105.032 95.8024 104.8 95.3389C104.568 94.8753 104.452 94.3337 104.452 93.7139C104.452 93.0915 104.568 92.5472 104.8 92.0811C105.032 91.6149 105.357 91.2529 105.777 90.9951C106.196 90.7373 106.687 90.6084 107.249 90.6084C107.812 90.6084 108.303 90.7373 108.722 90.9951C109.141 91.2529 109.467 91.6149 109.698 92.0811C109.93 92.5472 110.046 93.0915 110.046 93.7139C110.046 94.3337 109.93 94.8753 109.698 95.3389C109.467 95.8024 109.141 96.1631 108.722 96.4209C108.303 96.6787 107.812 96.8076 107.249 96.8076ZM107.253 95.8272C107.618 95.8272 107.92 95.7308 108.159 95.5381C108.399 95.3454 108.576 95.0889 108.691 94.7686C108.808 94.4483 108.866 94.0954 108.866 93.71C108.866 93.3272 108.808 92.9756 108.691 92.6553C108.576 92.3324 108.399 92.0733 108.159 91.8779C107.92 91.6826 107.618 91.585 107.253 91.585C106.886 91.585 106.581 91.6826 106.339 91.8779C106.099 92.0733 105.921 92.3324 105.804 92.6553C105.689 92.9756 105.632 93.3272 105.632 93.71C105.632 94.0954 105.689 94.4483 105.804 94.7686C105.921 95.0889 106.099 95.3454 106.339 95.5381C106.581 95.7308 106.886 95.8272 107.253 95.8272ZM113.765 90.6865V91.624H110.375V90.6865H113.765ZM111.304 96.6865V89.9912C111.304 89.6162 111.386 89.305 111.55 89.0576C111.714 88.8076 111.932 88.6214 112.203 88.499C112.474 88.374 112.768 88.3115 113.086 88.3115C113.32 88.3115 113.52 88.3311 113.687 88.3701C113.854 88.4066 113.977 88.4404 114.058 88.4717L113.785 89.417C113.73 89.4014 113.66 89.3832 113.574 89.3623C113.488 89.3389 113.384 89.3272 113.261 89.3272C112.977 89.3272 112.774 89.3975 112.652 89.5381C112.532 89.6787 112.472 89.8818 112.472 90.1475V96.6865H111.304ZM33.812 102.726V101.687H40.0034V102.726H37.5073V109.687H36.3042V102.726H33.812ZM42.5537 109.808C41.9625 109.808 41.4534 109.681 41.0263 109.429C40.6018 109.174 40.2737 108.815 40.042 108.355C39.8128 107.891 39.6982 107.348 39.6982 106.726C39.6982 106.111 39.8128 105.569 40.042 105.101C40.2737 104.632 40.5966 104.266 41.0107 104.003C41.4274 103.74 41.9143 103.608 42.4716 103.608C42.8102 103.608 43.1383 103.664 43.456 103.776C43.7737 103.888 44.0589 104.064 44.3115 104.304C44.5641 104.543 44.7633 104.855 44.9091 105.237C45.055 105.618 45.1279 106.08 45.1279 106.624V107.038H40.3584V106.163H43.9834C43.9834 105.856 43.9209 105.584 43.7959 105.347C43.6709 105.107 43.4951 104.918 43.2685 104.78C43.0446 104.642 42.7815 104.573 42.4795 104.573C42.1513 104.573 41.8649 104.654 41.6201 104.815C41.3779 104.974 41.1904 105.183 41.0576 105.44C40.9274 105.696 40.8623 105.973 40.8623 106.272V106.956C40.8623 107.357 40.9326 107.698 41.0732 107.98C41.2164 108.261 41.4157 108.476 41.6709 108.624C41.9261 108.77 42.2242 108.843 42.5654 108.843C42.7867 108.843 42.9886 108.812 43.1709 108.749C43.3532 108.684 43.5107 108.588 43.6435 108.46C43.7763 108.332 43.8779 108.175 43.9482 107.987L45.0537 108.187C44.9651 108.512 44.8063 108.797 44.5771 109.042C44.3505 109.284 44.0654 109.473 43.7216 109.608C43.3805 109.741 42.9912 109.808 42.5537 109.808ZM48.5111 109.808C47.9304 109.808 47.4304 109.676 47.0111 109.413C46.5945 109.147 46.2742 108.782 46.0502 108.315C45.8262 107.849 45.7143 107.315 45.7143 106.714C45.7143 106.105 45.8288 105.567 46.058 105.101C46.2872 104.632 46.6101 104.266 47.0268 104.003C47.4434 103.74 47.9343 103.608 48.4994 103.608C48.9551 103.608 49.3614 103.693 49.7182 103.862C50.0749 104.029 50.3627 104.263 50.5814 104.565C50.8028 104.868 50.9343 105.22 50.976 105.624H49.8393C49.7768 105.343 49.6335 105.101 49.4096 104.897C49.1882 104.694 48.8913 104.593 48.5189 104.593C48.1934 104.593 47.9083 104.679 47.6635 104.851C47.4213 105.02 47.2325 105.262 47.0971 105.577C46.9617 105.89 46.8939 106.259 46.8939 106.687C46.8939 107.124 46.9604 107.502 47.0932 107.819C47.226 108.137 47.4135 108.383 47.6557 108.558C47.9005 108.732 48.1882 108.819 48.5189 108.819C48.7403 108.819 48.9408 108.779 49.1205 108.698C49.3028 108.615 49.4551 108.496 49.5775 108.343C49.7025 108.189 49.7898 108.004 49.8393 107.788H50.976C50.9343 108.176 50.808 108.522 50.5971 108.827C50.3861 109.132 50.1036 109.371 49.7494 109.546C49.3979 109.72 48.9851 109.808 48.5111 109.808ZM52.953 106.124V109.687H51.785V101.687H52.9373V104.663H53.0116C53.1522 104.34 53.367 104.084 53.6561 103.894C53.9452 103.703 54.3228 103.608 54.7889 103.608C55.2004 103.608 55.5597 103.693 55.867 103.862C56.1769 104.032 56.4165 104.284 56.5858 104.62C56.7577 104.953 56.8436 105.37 56.8436 105.87V109.687H55.6756V106.011C55.6756 105.571 55.5623 105.23 55.3358 104.987C55.1092 104.743 54.7941 104.62 54.3905 104.62C54.1144 104.62 53.867 104.679 53.6483 104.796C53.4321 104.913 53.2616 105.085 53.1366 105.312C53.0142 105.535 52.953 105.806 52.953 106.124ZM59.1302 106.124V109.687H57.9622V103.687H59.0833V104.663H59.1575C59.2955 104.345 59.5117 104.09 59.8059 103.897C60.1028 103.705 60.4765 103.608 60.927 103.608C61.3359 103.608 61.694 103.694 62.0013 103.866C62.3085 104.035 62.5468 104.288 62.7161 104.624C62.8854 104.96 62.97 105.375 62.97 105.87V109.687H61.802V106.011C61.802 105.576 61.6888 105.236 61.4622 104.991C61.2356 104.744 60.9244 104.62 60.5286 104.62C60.2578 104.62 60.0169 104.679 59.8059 104.796C59.5976 104.913 59.4322 105.085 59.3098 105.312C59.1901 105.535 59.1302 105.806 59.1302 106.124ZM66.6237 109.808C66.0612 109.808 65.5704 109.679 65.1511 109.421C64.7318 109.163 64.4063 108.802 64.1745 108.339C63.9428 107.875 63.8269 107.334 63.8269 106.714C63.8269 106.091 63.9428 105.547 64.1745 105.081C64.4063 104.615 64.7318 104.253 65.1511 103.995C65.5704 103.737 66.0612 103.608 66.6237 103.608C67.1862 103.608 67.6771 103.737 68.0964 103.995C68.5157 104.253 68.8412 104.615 69.073 105.081C69.3047 105.547 69.4206 106.091 69.4206 106.714C69.4206 107.334 69.3047 107.875 69.073 108.339C68.8412 108.802 68.5157 109.163 68.0964 109.421C67.6771 109.679 67.1862 109.808 66.6237 109.808ZM66.6277 108.827C66.9922 108.827 67.2943 108.731 67.5339 108.538C67.7735 108.345 67.9506 108.089 68.0652 107.769C68.1823 107.448 68.2409 107.095 68.2409 106.71C68.2409 106.327 68.1823 105.976 68.0652 105.655C67.9506 105.332 67.7735 105.073 67.5339 104.878C67.2943 104.683 66.9922 104.585 66.6277 104.585C66.2605 104.585 65.9558 104.683 65.7136 104.878C65.474 105.073 65.2956 105.332 65.1784 105.655C65.0639 105.976 65.0066 106.327 65.0066 106.71C65.0066 107.095 65.0639 107.448 65.1784 107.769C65.2956 108.089 65.474 108.345 65.7136 108.538C65.9558 108.731 66.2605 108.827 66.6277 108.827ZM71.4523 101.687V109.687H70.2843V101.687H71.4523ZM75.1109 109.808C74.5484 109.808 74.0575 109.679 73.6383 109.421C73.219 109.163 72.8935 108.802 72.6617 108.339C72.4299 107.875 72.3141 107.334 72.3141 106.714C72.3141 106.091 72.4299 105.547 72.6617 105.081C72.8935 104.615 73.219 104.253 73.6383 103.995C74.0575 103.737 74.5484 103.608 75.1109 103.608C75.6734 103.608 76.1643 103.737 76.5836 103.995C77.0029 104.253 77.3284 104.615 77.5602 105.081C77.7919 105.547 77.9078 106.091 77.9078 106.714C77.9078 107.334 77.7919 107.875 77.5602 108.339C77.3284 108.802 77.0029 109.163 76.5836 109.421C76.1643 109.679 75.6734 109.808 75.1109 109.808ZM75.1148 108.827C75.4794 108.827 75.7815 108.731 76.0211 108.538C76.2607 108.345 76.4378 108.089 76.5523 107.769C76.6695 107.448 76.7281 107.095 76.7281 106.71C76.7281 106.327 76.6695 105.976 76.5523 105.655C76.4378 105.332 76.2607 105.073 76.0211 104.878C75.7815 104.683 75.4794 104.585 75.1148 104.585C74.7477 104.585 74.443 104.683 74.2008 104.878C73.9612 105.073 73.7828 105.332 73.6656 105.655C73.551 105.976 73.4937 106.327 73.4937 106.71C73.4937 107.095 73.551 107.448 73.6656 107.769C73.7828 108.089 73.9612 108.345 74.2008 108.538C74.443 108.731 74.7477 108.827 75.1148 108.827ZM81.2871 112.062C80.8106 112.062 80.4004 111.999 80.0567 111.874C79.7155 111.749 79.4369 111.584 79.2207 111.378C79.0046 111.172 78.8431 110.947 78.7364 110.702L79.7403 110.288C79.8106 110.403 79.9043 110.524 80.0215 110.651C80.1413 110.782 80.3028 110.892 80.5059 110.983C80.7116 111.075 80.9759 111.12 81.2989 111.12C81.7416 111.12 82.1075 111.012 82.3965 110.796C82.6856 110.582 82.8301 110.241 82.8301 109.772V108.593H82.7559C82.6856 108.72 82.584 108.862 82.4512 109.019C82.321 109.175 82.1413 109.31 81.9121 109.425C81.683 109.539 81.3848 109.597 81.0176 109.597C80.5437 109.597 80.1166 109.486 79.7364 109.265C79.3588 109.041 79.0593 108.711 78.8379 108.276C78.6192 107.839 78.5098 107.301 78.5098 106.663C78.5098 106.025 78.6179 105.478 78.834 105.022C79.0528 104.567 79.3523 104.218 79.7325 103.976C80.1127 103.731 80.5437 103.608 81.0254 103.608C81.3978 103.608 81.6986 103.671 81.9278 103.796C82.1569 103.918 82.3353 104.062 82.4629 104.226C82.5931 104.39 82.6934 104.534 82.7637 104.659H82.8496V103.687H83.9942V109.819C83.9942 110.335 83.8744 110.758 83.6348 111.089C83.3952 111.42 83.071 111.664 82.6621 111.823C82.2559 111.982 81.7976 112.062 81.2871 112.062ZM81.2754 108.628C81.6114 108.628 81.8952 108.55 82.127 108.394C82.3614 108.235 82.5384 108.008 82.6582 107.714C82.7806 107.417 82.8418 107.062 82.8418 106.647C82.8418 106.244 82.7819 105.888 82.6621 105.581C82.5424 105.274 82.3666 105.034 82.1348 104.862C81.903 104.688 81.6166 104.601 81.2754 104.601C80.9239 104.601 80.6309 104.692 80.3965 104.874C80.1621 105.054 79.9851 105.299 79.8653 105.608C79.7481 105.918 79.6895 106.265 79.6895 106.647C79.6895 107.041 79.7494 107.386 79.8692 107.683C79.989 107.98 80.1661 108.211 80.4004 108.378C80.6374 108.545 80.9291 108.628 81.2754 108.628ZM85.8589 111.937C85.6844 111.937 85.5255 111.922 85.3823 111.894C85.2391 111.868 85.1323 111.839 85.062 111.808L85.3432 110.851C85.5568 110.908 85.7469 110.933 85.9136 110.925C86.0802 110.917 86.2274 110.855 86.355 110.737C86.4852 110.62 86.5998 110.429 86.6987 110.163L86.8432 109.765L84.6479 103.687H85.8979L87.4175 108.343H87.48L88.9995 103.687H90.2534L87.7807 110.487C87.6662 110.8 87.5203 111.064 87.3432 111.28C87.1662 111.499 86.9552 111.663 86.7104 111.772C86.4656 111.882 86.1818 111.937 85.8589 111.937Z" fill="#1A1A1A"/>
</svg>
