<svg width="467" height="90" viewBox="0 0 467 90" fill="none" xmlns="http://www.w3.org/2000/svg">
<path fill-rule="evenodd" clip-rule="evenodd" d="M25.871 45.0001C11.9647 45.0001 0.691406 33.7268 0.691406 19.8205V0.482613H45.2089V45.0001H25.871ZM11.04 22.7413H38.1463C38.5155 27.0745 36.4324 35.7407 25.1469 35.7407C13.8614 35.7407 11.04 27.0745 11.04 22.7413Z" fill="#C8C7C7"/>
<path fill-rule="evenodd" clip-rule="evenodd" d="M64.5821 44.9998C78.4884 44.9998 89.7616 56.2731 89.7616 70.1794V89.5173H45.2441V44.9998H64.5821ZM78.6957 67.8211C78.8404 69.5189 78.0838 72.072 76.2938 74.2087C74.5249 76.3203 71.7749 77.9893 67.963 77.9893C64.5431 77.9893 61.6148 76.326 59.5262 74.1742C57.4163 72.0005 56.2643 69.4363 56.2643 67.7672H54.9944C54.9944 69.8866 56.375 72.7509 58.6149 75.0586C60.8761 77.3882 64.1146 79.2592 67.963 79.2592C72.188 79.2592 75.2821 77.3939 77.2673 75.0241C79.2315 72.6794 80.1392 69.804 79.961 67.7133L78.6957 67.8211Z" fill="#C8C7C7"/>
<path fill-rule="evenodd" clip-rule="evenodd" d="M89.7616 45.0002H70.4237C56.5174 45.0002 45.2441 33.7269 45.2441 19.8206V0.482658H89.7616V45.0002ZM57.0252 15.2969C56.3665 16.0815 56.1048 17.0029 56.1538 17.5772L55.1222 17.6653C55.0457 16.7698 55.4312 15.5852 56.2323 14.6312C57.0505 13.6567 58.3269 12.8915 60.0574 12.8915C61.6448 12.8915 62.9702 13.6613 63.8863 14.6031C64.7851 15.5269 65.3711 16.7024 65.3711 17.6213H64.3357C64.3357 17.0704 63.9369 16.1398 63.1442 15.325C62.369 14.5282 61.2963 13.9268 60.0574 13.9268C58.6628 13.9268 57.6668 14.5328 57.0252 15.2969ZM72.0221 17.5774C71.9732 17.0024 72.2341 16.0806 72.8902 15.2962C73.5292 14.5321 74.5206 13.9268 75.9083 13.9268C77.1409 13.9268 78.2086 14.5275 78.9807 15.3243C79.7701 16.1389 80.1677 17.0696 80.1677 17.6213H81.203C81.203 16.7031 80.6197 15.5278 79.7243 14.6038C78.8116 13.662 77.4908 12.8915 75.9083 12.8915C74.1831 12.8915 72.911 13.6574 72.096 14.6319C71.2979 15.5861 70.9143 16.7703 70.9904 17.6651L72.0221 17.5774Z" fill="white"/>
<path fill-rule="evenodd" clip-rule="evenodd" d="M20.0293 44.9999H0.691406V89.5174H45.2089V70.1795C45.2089 56.2732 33.9356 44.9999 20.0293 44.9999ZM35.0411 63.1014C35.0411 65.3976 33.1796 67.259 30.8834 67.259C28.5872 67.259 26.7258 65.3976 26.7258 63.1014C26.7258 60.8052 28.5872 58.9437 30.8834 58.9437C33.1796 58.9437 35.0411 60.8052 35.0411 63.1014ZM19.3552 63.1014C19.3552 65.3976 17.4937 67.259 15.1976 67.259C12.9014 67.259 11.0399 65.3976 11.0399 63.1014C11.0399 60.8052 12.9014 58.9438 15.1976 58.9438C17.4937 58.9438 19.3552 60.8052 19.3552 63.1014Z" fill="white"/>
<path d="M111.52 48.3794V8.47484H137.941V15.4309H119.956V24.9394H136.187V31.8954H119.956V48.3794H111.52ZM178.091 28.4271C178.091 32.7787 177.266 36.4807 175.616 39.5333C173.98 42.5859 171.745 44.9176 168.914 46.5283C166.095 48.1261 162.925 48.9249 159.405 48.9249C155.859 48.9249 152.676 48.1196 149.858 46.5088C147.039 44.8981 144.811 42.5664 143.174 39.5139C141.538 36.4613 140.719 32.7657 140.719 28.4271C140.719 24.0755 141.538 20.3735 143.174 17.3209C144.811 14.2683 147.039 11.9431 149.858 10.3454C152.676 8.73464 155.859 7.92927 159.405 7.92927C162.925 7.92927 166.095 8.73464 168.914 10.3454C171.745 11.9431 173.98 14.2683 175.616 17.3209C177.266 20.3735 178.091 24.0755 178.091 28.4271ZM169.537 28.4271C169.537 25.6083 169.115 23.2312 168.271 21.2957C167.439 19.3603 166.264 17.8924 164.744 16.8922C163.224 15.892 161.445 15.3919 159.405 15.3919C157.366 15.3919 155.586 15.892 154.066 16.8922C152.547 17.8924 151.364 19.3603 150.52 21.2957C149.689 23.2312 149.273 25.6083 149.273 28.4271C149.273 31.2459 149.689 33.623 150.52 35.5585C151.364 37.4939 152.547 38.9618 154.066 39.962C155.586 40.9622 157.366 41.4623 159.405 41.4623C161.445 41.4623 163.224 40.9622 164.744 39.962C166.264 38.9618 167.439 37.4939 168.271 35.5585C169.115 33.623 169.537 31.2459 169.537 28.4271ZM203.793 19.9513C203.637 18.3795 202.968 17.1585 201.786 16.2882C200.604 15.4179 199 14.9827 196.974 14.9827C195.597 14.9827 194.434 15.1776 193.486 15.5672C192.538 15.944 191.81 16.47 191.304 17.1455C190.81 17.821 190.563 18.5874 190.563 19.4447C190.537 20.1591 190.687 20.7826 191.011 21.3152C191.349 21.8478 191.81 22.3089 192.395 22.6986C192.979 23.0753 193.655 23.4066 194.421 23.6923C195.188 23.9651 196.006 24.1989 196.876 24.3938L200.461 25.2511C202.202 25.6408 203.8 26.1604 205.255 26.8099C206.709 27.4594 207.969 28.2582 209.035 29.2065C210.1 30.1547 210.925 31.2719 211.509 32.5578C212.107 33.8438 212.412 35.3182 212.425 36.9809C212.412 39.4229 211.788 41.5403 210.554 43.3328C209.333 45.1124 207.567 46.4958 205.255 47.4831C202.955 48.4573 200.182 48.9444 196.935 48.9444C193.713 48.9444 190.907 48.4508 188.517 47.4636C186.14 46.4764 184.283 45.015 182.945 43.0795C181.62 41.1311 180.925 38.7215 180.86 35.8507H189.024C189.115 37.1887 189.498 38.3058 190.174 39.2021C190.862 40.0854 191.778 40.7544 192.921 41.209C194.077 41.6507 195.382 41.8715 196.837 41.8715C198.266 41.8715 199.507 41.6637 200.559 41.248C201.624 40.8323 202.449 40.2543 203.033 39.5139C203.618 38.7734 203.91 37.9226 203.91 36.9614C203.91 36.0651 203.644 35.3117 203.111 34.7011C202.592 34.0906 201.825 33.571 200.812 33.1424C199.812 32.7137 198.584 32.324 197.13 31.9733L192.784 30.8822C189.42 30.0638 186.764 28.7843 184.815 27.0437C182.867 25.3031 181.899 22.9584 181.912 20.0097C181.899 17.5936 182.542 15.4828 183.841 13.6772C185.153 11.8717 186.952 10.4623 189.238 9.44908C191.524 8.43588 194.122 7.92927 197.032 7.92927C199.994 7.92927 202.579 8.43588 204.787 9.44908C207.008 10.4623 208.736 11.8717 209.97 13.6772C211.204 15.4828 211.84 17.5742 211.879 19.9513H203.793ZM237.553 19.9513C237.397 18.3795 236.728 17.1585 235.546 16.2882C234.364 15.4179 232.759 14.9827 230.733 14.9827C229.356 14.9827 228.193 15.1776 227.245 15.5672C226.297 15.944 225.569 16.47 225.063 17.1455C224.569 17.821 224.322 18.5874 224.322 19.4447C224.296 20.1591 224.446 20.7826 224.771 21.3152C225.108 21.8478 225.569 22.3089 226.154 22.6986C226.739 23.0753 227.414 23.4066 228.18 23.6923C228.947 23.9651 229.765 24.1989 230.635 24.3938L234.221 25.2511C235.961 25.6408 237.559 26.1604 239.014 26.8099C240.469 27.4594 241.729 28.2582 242.794 29.2065C243.859 30.1547 244.684 31.2719 245.268 32.5578C245.866 33.8438 246.171 35.3182 246.184 36.9809C246.171 39.4229 245.548 41.5403 244.314 43.3328C243.093 45.1124 241.326 46.4958 239.014 47.4831C236.715 48.4573 233.941 48.9444 230.694 48.9444C227.472 48.9444 224.667 48.4508 222.277 47.4636C219.899 46.4764 218.042 45.015 216.704 43.0795C215.379 41.1311 214.684 38.7215 214.619 35.8507H222.783C222.874 37.1887 223.257 38.3058 223.933 39.2021C224.621 40.0854 225.537 40.7544 226.68 41.209C227.836 41.6507 229.142 41.8715 230.596 41.8715C232.025 41.8715 233.266 41.6637 234.318 41.248C235.383 40.8323 236.208 40.2543 236.793 39.5139C237.377 38.7734 237.669 37.9226 237.669 36.9614C237.669 36.0651 237.403 35.3117 236.871 34.7011C236.351 34.0906 235.585 33.571 234.571 33.1424C233.571 32.7137 232.344 32.324 230.889 31.9733L226.544 30.8822C223.179 30.0638 220.523 28.7843 218.574 27.0437C216.626 25.3031 215.658 22.9584 215.671 20.0097C215.658 17.5936 216.301 15.4828 217.6 13.6772C218.912 11.8717 220.711 10.4623 222.997 9.44908C225.284 8.43588 227.882 7.92927 230.791 7.92927C233.753 7.92927 236.338 8.43588 238.546 9.44908C240.767 10.4623 242.495 11.8717 243.729 13.6772C244.963 15.4828 245.6 17.5742 245.639 19.9513H237.553ZM295.377 22.4453H286.843C286.687 21.3412 286.369 20.3605 285.888 19.5031C285.408 18.6328 284.791 17.8924 284.037 17.2819C283.284 16.6714 282.414 16.2037 281.426 15.879C280.452 15.5543 279.394 15.3919 278.25 15.3919C276.185 15.3919 274.386 15.905 272.853 16.9312C271.32 17.9444 270.132 19.4252 269.288 21.3737C268.443 23.3091 268.021 25.6603 268.021 28.4271C268.021 31.2719 268.443 33.662 269.288 35.5974C270.145 37.5329 271.34 38.9943 272.873 39.9815C274.405 40.9687 276.179 41.4623 278.192 41.4623C279.322 41.4623 280.368 41.3129 281.329 41.0142C282.303 40.7154 283.167 40.2802 283.92 39.7087C284.674 39.1242 285.297 38.4162 285.791 37.5849C286.298 36.7535 286.648 35.8053 286.843 34.7401L295.377 34.7791C295.157 36.6106 294.605 38.3772 293.721 40.0789C292.851 41.7676 291.675 43.2809 290.195 44.6188C288.727 45.9438 286.973 46.9959 284.934 47.7753C282.907 48.5417 280.615 48.9249 278.056 48.9249C274.496 48.9249 271.314 48.1196 268.508 46.5088C265.715 44.8981 263.507 42.5664 261.883 39.5139C260.273 36.4613 259.467 32.7657 259.467 28.4271C259.467 24.0755 260.286 20.3735 261.922 17.3209C263.559 14.2683 265.78 11.9431 268.586 10.3454C271.392 8.73464 274.548 7.92927 278.056 7.92927C280.368 7.92927 282.511 8.25402 284.486 8.90351C286.473 9.55299 288.233 10.5012 289.766 11.7483C291.299 12.9823 292.546 14.4956 293.507 16.2882C294.481 18.0808 295.105 20.1331 295.377 22.4453ZM307.377 8.47484V48.3794H299.077V8.47484H307.377ZM331.024 35.6364V18.451H339.324V48.3794H331.355V42.9431H331.043C330.368 44.6968 329.244 46.1062 327.673 47.1713C326.114 48.2365 324.211 48.769 321.964 48.769C319.963 48.769 318.203 48.3144 316.683 47.4051C315.163 46.4958 313.975 45.2034 313.118 43.5277C312.273 41.852 311.845 39.8451 311.832 37.5069V18.451H320.132V36.0261C320.145 37.7927 320.619 39.1891 321.554 40.2153C322.49 41.2415 323.743 41.7546 325.315 41.7546C326.315 41.7546 327.25 41.5273 328.121 41.0726C328.991 40.605 329.693 39.9165 330.225 39.0073C330.771 38.098 331.037 36.9744 331.024 35.6364ZM343.925 48.3794V8.47484H352.225V23.478H352.479C352.842 22.6726 353.368 21.8543 354.057 21.0229C354.758 20.1786 355.668 19.4772 356.785 18.9186C357.915 18.3471 359.318 18.0613 360.993 18.0613C363.176 18.0613 365.189 18.6328 367.034 19.7759C368.878 20.906 370.353 22.6142 371.457 24.9004C372.561 27.1736 373.113 30.0248 373.113 33.4541C373.113 36.7925 372.574 39.6113 371.496 41.9105C370.431 44.1967 368.976 45.9308 367.131 47.1129C365.3 48.2819 363.247 48.8665 360.974 48.8665C359.363 48.8665 357.993 48.6002 356.863 48.0676C355.746 47.535 354.83 46.8661 354.115 46.0607C353.401 45.2423 352.855 44.4175 352.479 43.5861H352.108V48.3794H343.925ZM352.05 33.4152C352.05 35.1948 352.297 36.747 352.79 38.072C353.284 39.3969 353.998 40.4296 354.934 41.17C355.869 41.8975 357.006 42.2612 358.344 42.2612C359.694 42.2612 360.838 41.891 361.773 41.1506C362.708 40.3972 363.416 39.358 363.897 38.033C364.39 36.6951 364.637 35.1558 364.637 33.4152C364.637 31.6875 364.397 30.1677 363.916 28.8558C363.436 27.5438 362.728 26.5176 361.792 25.7772C360.857 25.0368 359.707 24.6666 358.344 24.6666C356.993 24.6666 355.85 25.0238 354.914 25.7382C353.992 26.4527 353.284 27.4659 352.79 28.7778C352.297 30.0898 352.05 31.6356 352.05 33.4152Z" fill="white"/>
<path d="M119.898 68.3192C119.794 67.4416 119.373 66.7604 118.634 66.2754C117.895 65.7905 116.988 65.548 115.914 65.548C115.129 65.548 114.442 65.675 113.853 65.929C113.27 66.1831 112.814 66.5323 112.485 66.9769C112.162 67.4214 112 67.9266 112 68.4924C112 68.9658 112.113 69.3728 112.338 69.7134C112.569 70.0482 112.863 70.3282 113.221 70.5534C113.579 70.7728 113.954 70.9546 114.347 71.099C114.74 71.2375 115.1 71.3501 115.429 71.4367L117.231 71.9216C117.693 72.0429 118.206 72.2103 118.772 72.4239C119.344 72.6375 119.889 72.9291 120.409 73.2986C120.934 73.6623 121.367 74.1299 121.708 74.7015C122.048 75.273 122.219 75.9745 122.219 76.8058C122.219 77.7641 121.968 78.6301 121.465 79.4037C120.969 80.1774 120.241 80.7922 119.283 81.2483C118.33 81.7044 117.173 81.9324 115.81 81.9324C114.54 81.9324 113.441 81.7275 112.511 81.3176C111.587 80.9077 110.86 80.3361 110.329 79.6029C109.803 78.8697 109.506 78.0182 109.437 77.0483H111.654C111.711 77.718 111.937 78.2722 112.329 78.711C112.728 79.144 113.23 79.4673 113.836 79.6809C114.448 79.8887 115.106 79.9926 115.81 79.9926C116.63 79.9926 117.366 79.8598 118.019 79.5943C118.671 79.3229 119.188 78.9477 119.569 78.4685C119.95 77.9835 120.14 77.4178 120.14 76.7712C120.14 76.1823 119.976 75.7031 119.647 75.3336C119.318 74.9641 118.885 74.6639 118.348 74.433C117.811 74.2021 117.231 74 116.607 73.8268L114.425 73.2033C113.039 72.805 111.942 72.2363 111.134 71.4973C110.326 70.7583 109.922 69.7913 109.922 68.5963C109.922 67.6033 110.19 66.7373 110.727 65.9983C111.27 65.2536 111.997 64.6763 112.909 64.2664C113.827 63.8507 114.852 63.6428 115.984 63.6428C117.127 63.6428 118.143 63.8478 119.032 64.2577C119.921 64.6618 120.625 65.2161 121.145 65.9204C121.67 66.6247 121.947 67.4243 121.976 68.3192H119.898ZM125.814 86.6087C125.467 86.6087 125.158 86.5799 124.887 86.5221C124.616 86.4702 124.428 86.4182 124.324 86.3663L124.844 84.565C125.34 84.692 125.779 84.7382 126.16 84.7036C126.541 84.6689 126.879 84.4986 127.173 84.1926C127.473 83.8924 127.748 83.4046 127.996 82.7291L128.377 81.6899L123.458 68.3192H125.675L129.347 78.9188H129.485L133.157 68.3192H135.374L129.728 83.5605C129.474 84.2475 129.159 84.8161 128.784 85.2665C128.409 85.7225 127.973 86.0603 127.476 86.2797C126.986 86.499 126.431 86.6087 125.814 86.6087ZM137.096 81.6207V68.3192H139.071V70.3975H139.244C139.521 69.6874 139.968 69.1361 140.586 68.7435C141.204 68.3451 141.946 68.146 142.812 68.146C143.689 68.146 144.419 68.3451 145.003 68.7435C145.591 69.1361 146.05 69.6874 146.379 70.3975H146.518C146.859 69.7105 147.37 69.1649 148.051 68.7608C148.732 68.3509 149.549 68.146 150.502 68.146C151.691 68.146 152.664 68.5183 153.42 69.2631C154.176 70.0021 154.554 71.1538 154.554 72.7184V81.6207H152.511V72.7184C152.511 71.7369 152.242 71.0355 151.705 70.614C151.168 70.1926 150.536 69.9818 149.809 69.9818C148.873 69.9818 148.149 70.2647 147.635 70.8305C147.121 71.3905 146.864 72.1006 146.864 72.9608V81.6207H144.786V72.5105C144.786 71.7542 144.541 71.1452 144.05 70.6833C143.559 70.2157 142.927 69.9818 142.153 69.9818C141.622 69.9818 141.126 70.1233 140.664 70.4062C140.208 70.6891 139.838 71.0816 139.555 71.5839C139.278 72.0804 139.14 72.6548 139.14 73.3072V81.6207H137.096ZM157.593 81.6207V63.8853H159.636V70.4322H159.81C159.96 70.2012 160.168 69.9068 160.433 69.5489C160.704 69.1851 161.091 68.8618 161.594 68.579C162.102 68.2903 162.789 68.146 163.655 68.146C164.775 68.146 165.762 68.426 166.616 68.986C167.471 69.546 168.137 70.3398 168.617 71.3674C169.096 72.3951 169.335 73.6074 169.335 75.0046C169.335 76.4132 169.096 77.6343 168.617 78.6677C168.137 79.6953 167.474 80.492 166.625 81.0578C165.776 81.6178 164.798 81.8978 163.689 81.8978C162.835 81.8978 162.151 81.7563 161.637 81.4734C161.123 81.1848 160.728 80.8586 160.45 80.4949C160.173 80.1254 159.96 79.8194 159.81 79.5769H159.567V81.6207H157.593ZM159.602 74.9699C159.602 75.9745 159.749 76.8606 160.043 77.6285C160.338 78.3905 160.768 78.9881 161.334 79.4211C161.9 79.8483 162.592 80.0619 163.412 80.0619C164.267 80.0619 164.98 79.8367 165.551 79.3864C166.128 78.9303 166.561 78.3184 166.85 77.5505C167.145 76.7769 167.292 75.9167 167.292 74.9699C167.292 74.0346 167.147 73.1918 166.859 72.4412C166.576 71.6849 166.146 71.0874 165.568 70.6487C164.997 70.2041 164.278 69.9818 163.412 69.9818C162.581 69.9818 161.882 70.1926 161.316 70.614C160.751 71.0297 160.323 71.6128 160.035 72.3633C159.746 73.108 159.602 73.9769 159.602 74.9699ZM171.486 81.6207V68.3192H173.53V81.6207H171.486ZM172.525 66.1022C172.127 66.1022 171.784 65.9666 171.495 65.6952C171.212 65.4239 171.071 65.0977 171.071 64.7167C171.071 64.3356 171.212 64.0094 171.495 63.7381C171.784 63.4668 172.127 63.3311 172.525 63.3311C172.924 63.3311 173.264 63.4668 173.547 63.7381C173.836 64.0094 173.98 64.3356 173.98 64.7167C173.98 65.0977 173.836 65.4239 173.547 65.6952C173.264 65.9666 172.924 66.1022 172.525 66.1022ZM181.701 81.8978C180.501 81.8978 179.447 81.612 178.541 81.0405C177.64 80.4689 176.936 79.6693 176.428 78.6417C175.925 77.614 175.674 76.4132 175.674 75.0392C175.674 73.6536 175.925 72.4441 176.428 71.4107C176.936 70.3773 177.64 69.5748 178.541 69.0033C179.447 68.4317 180.501 68.146 181.701 68.146C182.902 68.146 183.953 68.4317 184.854 69.0033C185.76 69.5748 186.464 70.3773 186.967 71.4107C187.475 72.4441 187.729 73.6536 187.729 75.0392C187.729 76.4132 187.475 77.614 186.967 78.6417C186.464 79.6693 185.76 80.4689 184.854 81.0405C183.953 81.612 182.902 81.8978 181.701 81.8978ZM181.701 80.0619C182.614 80.0619 183.364 79.8281 183.953 79.3604C184.542 78.8928 184.978 78.278 185.261 77.5159C185.544 76.7538 185.685 75.9283 185.685 75.0392C185.685 74.1501 185.544 73.3217 185.261 72.5538C184.978 71.786 184.542 71.1654 183.953 70.692C183.364 70.2185 182.614 69.9818 181.701 69.9818C180.789 69.9818 180.039 70.2185 179.45 70.692C178.861 71.1654 178.425 71.786 178.142 72.5538C177.859 73.3217 177.718 74.1501 177.718 75.0392C177.718 75.9283 177.859 76.7538 178.142 77.5159C178.425 78.278 178.861 78.8928 179.45 79.3604C180.039 79.8281 180.789 80.0619 181.701 80.0619ZM199.295 71.2981L197.459 71.8177C197.343 71.5117 197.173 71.2144 196.948 70.9258C196.729 70.6313 196.428 70.3889 196.047 70.1983C195.666 70.0078 195.179 69.9126 194.584 69.9126C193.77 69.9126 193.091 70.1002 192.549 70.4755C192.012 70.8449 191.743 71.3155 191.743 71.887C191.743 72.3951 191.928 72.7963 192.298 73.0907C192.667 73.3852 193.244 73.6305 194.03 73.8268L196.004 74.3118C197.193 74.6004 198.08 75.0421 198.663 75.6367C199.246 76.2256 199.537 76.9848 199.537 77.9143C199.537 78.6763 199.318 79.3576 198.879 79.958C198.446 80.5584 197.84 81.0318 197.061 81.3782C196.281 81.7246 195.375 81.8978 194.341 81.8978C192.985 81.8978 191.862 81.6033 190.973 81.0145C190.084 80.4256 189.521 79.5654 189.284 78.4338L191.224 77.9489C191.409 78.6648 191.758 79.2017 192.272 79.5596C192.791 79.9176 193.47 80.0965 194.307 80.0965C195.259 80.0965 196.016 79.8945 196.576 79.4903C197.141 79.0804 197.424 78.5897 197.424 78.0182C197.424 77.5563 197.263 77.1695 196.939 76.8578C196.616 76.5402 196.12 76.3035 195.45 76.1476L193.233 75.6281C192.015 75.3394 191.12 74.892 190.548 74.2858C189.983 73.6738 189.7 72.9089 189.7 71.9909C189.7 71.2404 189.91 70.5765 190.332 69.9992C190.759 69.4218 191.339 68.9686 192.073 68.6396C192.811 68.3105 193.649 68.146 194.584 68.146C195.9 68.146 196.934 68.4346 197.684 69.0119C198.44 69.5893 198.977 70.3513 199.295 71.2981ZM201.638 81.6207V68.3192H203.682V81.6207H201.638ZM202.677 66.1022C202.279 66.1022 201.936 65.9666 201.647 65.6952C201.364 65.4239 201.223 65.0977 201.223 64.7167C201.223 64.3356 201.364 64.0094 201.647 63.7381C201.936 63.4668 202.279 63.3311 202.677 63.3311C203.076 63.3311 203.416 63.4668 203.699 63.7381C203.988 64.0094 204.132 64.3356 204.132 64.7167C204.132 65.0977 203.988 65.4239 203.699 65.6952C203.416 65.9666 203.076 66.1022 202.677 66.1022ZM215.872 71.2981L214.036 71.8177C213.92 71.5117 213.75 71.2144 213.525 70.9258C213.305 70.6313 213.005 70.3889 212.624 70.1983C212.243 70.0078 211.755 69.9126 211.161 69.9126C210.347 69.9126 209.668 70.1002 209.126 70.4755C208.589 70.8449 208.32 71.3155 208.32 71.887C208.32 72.3951 208.505 72.7963 208.875 73.0907C209.244 73.3852 209.821 73.6305 210.606 73.8268L212.581 74.3118C213.77 74.6004 214.656 75.0421 215.239 75.6367C215.823 76.2256 216.114 76.9848 216.114 77.9143C216.114 78.6763 215.895 79.3576 215.456 79.958C215.023 80.5584 214.417 81.0318 213.637 81.3782C212.858 81.7246 211.952 81.8978 210.918 81.8978C209.562 81.8978 208.439 81.6033 207.55 81.0145C206.66 80.4256 206.098 79.5654 205.861 78.4338L207.801 77.9489C207.985 78.6648 208.335 79.2017 208.849 79.5596C209.368 79.9176 210.046 80.0965 210.884 80.0965C211.836 80.0965 212.592 79.8945 213.152 79.4903C213.718 79.0804 214.001 78.5897 214.001 78.0182C214.001 77.5563 213.839 77.1695 213.516 76.8578C213.193 76.5402 212.696 76.3035 212.027 76.1476L209.81 75.6281C208.592 75.3394 207.697 74.892 207.125 74.2858C206.559 73.6738 206.277 72.9089 206.277 71.9909C206.277 71.2404 206.487 70.5765 206.909 69.9992C207.336 69.4218 207.916 68.9686 208.649 68.6396C209.388 68.3105 210.225 68.146 211.161 68.146C212.477 68.146 213.51 68.4346 214.261 69.0119C215.017 69.5893 215.554 70.3513 215.872 71.2981ZM226.523 63.8853V81.6207H224.375V63.8853H226.523ZM231.62 73.619V81.6207H229.577V68.3192H231.551V70.3975H231.724C232.036 69.7221 232.509 69.1794 233.144 68.7695C233.779 68.3538 234.599 68.146 235.604 68.146C236.504 68.146 237.292 68.3307 237.968 68.7002C238.643 69.0639 239.169 69.6181 239.544 70.3629C239.919 71.1019 240.107 72.0371 240.107 73.1687V81.6207H238.063V73.3072C238.063 72.2623 237.792 71.4482 237.249 70.8651C236.706 70.2763 235.962 69.9818 235.015 69.9818C234.363 69.9818 233.779 70.1233 233.266 70.4062C232.758 70.6891 232.356 71.1019 232.062 71.6445C231.767 72.1872 231.62 72.8454 231.62 73.619ZM252.288 71.2981L250.452 71.8177C250.337 71.5117 250.166 71.2144 249.941 70.9258C249.722 70.6313 249.421 70.3889 249.04 70.1983C248.659 70.0078 248.172 69.9126 247.577 69.9126C246.763 69.9126 246.085 70.1002 245.542 70.4755C245.005 70.8449 244.737 71.3155 244.737 71.887C244.737 72.3951 244.921 72.7963 245.291 73.0907C245.66 73.3852 246.238 73.6305 247.023 73.8268L248.997 74.3118C250.186 74.6004 251.073 75.0421 251.656 75.6367C252.239 76.2256 252.53 76.9848 252.53 77.9143C252.53 78.6763 252.311 79.3576 251.872 79.958C251.439 80.5584 250.833 81.0318 250.054 81.3782C249.274 81.7246 248.368 81.8978 247.334 81.8978C245.978 81.8978 244.855 81.6033 243.966 81.0145C243.077 80.4256 242.514 79.5654 242.277 78.4338L244.217 77.9489C244.402 78.6648 244.751 79.2017 245.265 79.5596C245.784 79.9176 246.463 80.0965 247.3 80.0965C248.252 80.0965 249.009 79.8945 249.569 79.4903C250.134 79.0804 250.417 78.5897 250.417 78.0182C250.417 77.5563 250.256 77.1695 249.932 76.8578C249.609 76.5402 249.113 76.3035 248.443 76.1476L246.226 75.6281C245.008 75.3394 244.113 74.892 243.541 74.2858C242.976 73.6738 242.693 72.9089 242.693 71.9909C242.693 71.2404 242.904 70.5765 243.325 69.9992C243.752 69.4218 244.332 68.9686 245.066 68.6396C245.805 68.3105 246.642 68.146 247.577 68.146C248.893 68.146 249.927 68.4346 250.677 69.0119C251.433 69.5893 251.97 70.3513 252.288 71.2981ZM260.416 68.3192V70.0511H253.523V68.3192H260.416ZM255.532 65.1323H257.576V77.8103C257.576 78.3877 257.659 78.8206 257.827 79.1093C258 79.3922 258.219 79.5827 258.485 79.6809C258.756 79.7732 259.042 79.8194 259.342 79.8194C259.567 79.8194 259.752 79.8079 259.897 79.7848C260.041 79.7559 260.156 79.7328 260.243 79.7155L260.659 81.5514C260.52 81.6033 260.327 81.6553 260.078 81.7073C259.83 81.765 259.515 81.7939 259.134 81.7939C258.557 81.7939 257.991 81.6697 257.437 81.4215C256.889 81.1732 256.433 80.7951 256.069 80.287C255.711 79.779 255.532 79.1382 255.532 78.3646V65.1323ZM262.515 81.6207V68.3192H264.559V81.6207H262.515ZM263.554 66.1022C263.156 66.1022 262.812 65.9666 262.524 65.6952C262.241 65.4239 262.099 65.0977 262.099 64.7167C262.099 64.3356 262.241 64.0094 262.524 63.7381C262.812 63.4668 263.156 63.3311 263.554 63.3311C263.952 63.3311 264.293 63.4668 264.576 63.7381C264.865 64.0094 265.009 64.3356 265.009 64.7167C265.009 65.0977 264.865 65.4239 264.576 65.6952C264.293 65.9666 263.952 66.1022 263.554 66.1022ZM273.111 68.3192V70.0511H266.218V68.3192H273.111ZM268.227 65.1323H270.271V77.8103C270.271 78.3877 270.354 78.8206 270.522 79.1093C270.695 79.3922 270.914 79.5827 271.18 79.6809C271.451 79.7732 271.737 79.8194 272.037 79.8194C272.263 79.8194 272.447 79.8079 272.592 79.7848C272.736 79.7559 272.851 79.7328 272.938 79.7155L273.354 81.5514C273.215 81.6033 273.022 81.6553 272.773 81.7073C272.525 81.765 272.211 81.7939 271.83 81.7939C271.252 81.7939 270.686 81.6697 270.132 81.4215C269.584 81.1732 269.128 80.7951 268.764 80.287C268.406 79.779 268.227 79.1382 268.227 78.3646V65.1323ZM283.593 76.1823V68.3192H285.636V81.6207H283.593V79.3691H283.454C283.142 80.0446 282.657 80.619 281.999 81.0924C281.341 81.56 280.51 81.7939 279.505 81.7939C278.674 81.7939 277.935 81.612 277.288 81.2483C276.642 80.8788 276.134 80.3246 275.764 79.5856C275.395 78.8409 275.21 77.9027 275.21 76.7712V68.3192H277.254V76.6326C277.254 77.6025 277.525 78.3761 278.068 78.9534C278.616 79.5308 279.315 79.8194 280.163 79.8194C280.671 79.8194 281.188 79.6895 281.713 79.4297C282.245 79.1699 282.689 78.7716 283.047 78.2347C283.411 77.6978 283.593 77.0136 283.593 76.1823ZM294.189 68.3192V70.0511H287.296V68.3192H294.189ZM289.305 65.1323H291.349V77.8103C291.349 78.3877 291.432 78.8206 291.6 79.1093C291.773 79.3922 291.992 79.5827 292.258 79.6809C292.529 79.7732 292.815 79.8194 293.115 79.8194C293.34 79.8194 293.525 79.8079 293.669 79.7848C293.814 79.7559 293.929 79.7328 294.016 79.7155L294.431 81.5514C294.293 81.6033 294.099 81.6553 293.851 81.7073C293.603 81.765 293.288 81.7939 292.907 81.7939C292.33 81.7939 291.764 81.6697 291.21 81.4215C290.661 81.1732 290.205 80.7951 289.842 80.287C289.484 79.779 289.305 79.1382 289.305 78.3646V65.1323ZM301.722 81.8978C300.44 81.8978 299.335 81.6149 298.405 81.0491C297.481 80.4776 296.768 79.6809 296.266 78.659C295.77 77.6314 295.521 76.4363 295.521 75.0738C295.521 73.7113 295.77 72.5105 296.266 71.4713C296.768 70.4264 297.467 69.6124 298.362 69.0293C299.262 68.4404 300.313 68.146 301.514 68.146C302.207 68.146 302.891 68.2614 303.566 68.4924C304.242 68.7233 304.857 69.0985 305.411 69.6181C305.965 70.1319 306.407 70.8132 306.736 71.6619C307.065 72.5105 307.229 73.5555 307.229 74.7967V75.6627H296.976V73.8961H305.151C305.151 73.1456 305.001 72.4759 304.701 71.887C304.406 71.2981 303.985 70.8334 303.436 70.4928C302.894 70.1522 302.253 69.9818 301.514 69.9818C300.7 69.9818 299.996 70.1839 299.401 70.588C298.812 70.9864 298.359 71.506 298.041 72.1468C297.724 72.7876 297.565 73.4746 297.565 74.2078V75.3856C297.565 76.3901 297.738 77.2417 298.085 77.9402C298.437 78.633 298.925 79.1613 299.548 79.525C300.172 79.8829 300.896 80.0619 301.722 80.0619C302.259 80.0619 302.744 79.9868 303.177 79.8367C303.615 79.6809 303.994 79.4499 304.311 79.144C304.629 78.8322 304.874 78.4454 305.047 77.9835L307.022 78.5378C306.814 79.2075 306.464 79.7963 305.974 80.3044C305.483 80.8066 304.877 81.1992 304.155 81.4821C303.434 81.7592 302.622 81.8978 301.722 81.8978ZM320.65 81.8978C319.449 81.8978 318.395 81.612 317.489 81.0405C316.588 80.4689 315.884 79.6693 315.376 78.6417C314.874 77.614 314.623 76.4132 314.623 75.0392C314.623 73.6536 314.874 72.4441 315.376 71.4107C315.884 70.3773 316.588 69.5748 317.489 69.0033C318.395 68.4317 319.449 68.146 320.65 68.146C321.851 68.146 322.901 68.4317 323.802 69.0033C324.708 69.5748 325.413 70.3773 325.915 71.4107C326.423 72.4441 326.677 73.6536 326.677 75.0392C326.677 76.4132 326.423 77.614 325.915 78.6417C325.413 79.6693 324.708 80.4689 323.802 81.0405C322.901 81.612 321.851 81.8978 320.65 81.8978ZM320.65 80.0619C321.562 80.0619 322.312 79.8281 322.901 79.3604C323.49 78.8928 323.926 78.278 324.209 77.5159C324.492 76.7538 324.633 75.9283 324.633 75.0392C324.633 74.1501 324.492 73.3217 324.209 72.5538C323.926 71.786 323.49 71.1654 322.901 70.692C322.312 70.2185 321.562 69.9818 320.65 69.9818C319.738 69.9818 318.987 70.2185 318.398 70.692C317.809 71.1654 317.373 71.786 317.091 72.5538C316.808 73.3217 316.666 74.1501 316.666 75.0392C316.666 75.9283 316.808 76.7538 317.091 77.5159C317.373 78.278 317.809 78.8928 318.398 79.3604C318.987 79.8281 319.738 80.0619 320.65 80.0619ZM334.745 68.3192V70.0511H327.574V68.3192H334.745ZM329.722 81.6207V66.4833C329.722 65.7212 329.901 65.0862 330.259 64.5781C330.617 64.0701 331.081 63.689 331.653 63.435C332.225 63.181 332.828 63.054 333.463 63.054C333.965 63.054 334.375 63.0944 334.693 63.1752C335.01 63.256 335.247 63.3311 335.403 63.4004L334.814 65.167C334.71 65.1323 334.566 65.089 334.381 65.0371C334.202 64.9851 333.965 64.9591 333.671 64.9591C332.995 64.9591 332.507 65.1295 332.207 65.4701C331.913 65.8107 331.766 66.3101 331.766 66.9682V81.6207H329.722ZM341.824 65.7905V63.8853H355.125V65.7905H349.548V81.6207H347.401V65.7905H341.824ZM360.835 81.8978C359.554 81.8978 358.448 81.6149 357.518 81.0491C356.595 80.4776 355.882 79.6809 355.379 78.659C354.883 77.6314 354.635 76.4363 354.635 75.0738C354.635 73.7113 354.883 72.5105 355.379 71.4713C355.882 70.4264 356.58 69.6124 357.475 69.0293C358.376 68.4404 359.427 68.146 360.627 68.146C361.32 68.146 362.004 68.2614 362.68 68.4924C363.355 68.7233 363.97 69.0985 364.524 69.6181C365.079 70.1319 365.52 70.8132 365.849 71.6619C366.178 72.5105 366.343 73.5555 366.343 74.7967V75.6627H356.09V73.8961H364.264C364.264 73.1456 364.114 72.4759 363.814 71.887C363.52 71.2981 363.098 70.8334 362.55 70.4928C362.007 70.1522 361.366 69.9818 360.627 69.9818C359.813 69.9818 359.109 70.1839 358.514 70.588C357.925 70.9864 357.472 71.506 357.155 72.1468C356.837 72.7876 356.678 73.4746 356.678 74.2078V75.3856C356.678 76.3901 356.852 77.2417 357.198 77.9402C357.55 78.633 358.038 79.1613 358.662 79.525C359.285 79.8829 360.01 80.0619 360.835 80.0619C361.372 80.0619 361.857 79.9868 362.29 79.8367C362.729 79.6809 363.107 79.4499 363.424 79.144C363.742 78.8322 363.987 78.4454 364.161 77.9835L366.135 78.5378C365.927 79.2075 365.578 79.7963 365.087 80.3044C364.596 80.8066 363.99 81.1992 363.269 81.4821C362.547 81.7592 361.736 81.8978 360.835 81.8978ZM373.88 81.8978C372.633 81.8978 371.559 81.6033 370.659 81.0145C369.758 80.4256 369.065 79.6145 368.58 78.5811C368.095 77.5477 367.853 76.367 367.853 75.0392C367.853 73.6883 368.101 72.4961 368.598 71.4627C369.1 70.4235 369.798 69.6124 370.693 69.0293C371.594 68.4404 372.645 68.146 373.845 68.146C374.781 68.146 375.624 68.3192 376.374 68.6656C377.125 69.0119 377.739 69.4969 378.219 70.1204C378.698 70.7439 378.995 71.4713 379.111 72.3027H377.067C376.911 71.6965 376.565 71.1596 376.028 70.692C375.497 70.2185 374.781 69.9818 373.88 69.9818C373.083 69.9818 372.385 70.1897 371.784 70.6054C371.19 71.0153 370.725 71.5955 370.39 72.346C370.061 73.0907 369.896 73.9654 369.896 74.9699C369.896 75.9975 370.058 76.8924 370.381 77.6545C370.711 78.4165 371.172 79.0083 371.767 79.4297C372.367 79.8512 373.072 80.0619 373.88 80.0619C374.411 80.0619 374.893 79.9695 375.326 79.7848C375.759 79.6 376.126 79.3345 376.426 78.9881C376.726 78.6417 376.94 78.226 377.067 77.7411H379.111C378.995 78.5262 378.709 79.2334 378.253 79.8627C377.803 80.4862 377.205 80.9827 376.461 81.3522C375.722 81.7159 374.861 81.8978 373.88 81.8978ZM383.166 73.619V81.6207H381.123V63.8853H383.166V70.3975H383.34C383.651 69.7105 384.119 69.1649 384.743 68.7608C385.372 68.3509 386.209 68.146 387.254 68.146C388.16 68.146 388.954 68.3278 389.635 68.6915C390.317 69.0495 390.845 69.6008 391.22 70.3456C391.601 71.0845 391.792 72.0256 391.792 73.1687V81.6207H389.748V73.3072C389.748 72.2507 389.474 71.4338 388.925 70.8565C388.383 70.2734 387.629 69.9818 386.665 69.9818C385.995 69.9818 385.395 70.1233 384.864 70.4062C384.338 70.6891 383.923 71.1019 383.617 71.6445C383.317 72.1872 383.166 72.8454 383.166 73.619ZM396.599 73.619V81.6207H394.555V68.3192H396.53V70.3975H396.703C397.014 69.7221 397.488 69.1794 398.123 68.7695C398.758 68.3538 399.578 68.146 400.582 68.146C401.483 68.146 402.271 68.3307 402.946 68.7002C403.622 69.0639 404.147 69.6181 404.523 70.3629C404.898 71.1019 405.085 72.0371 405.085 73.1687V81.6207H403.042V73.3072C403.042 72.2623 402.77 71.4482 402.228 70.8651C401.685 70.2763 400.94 69.9818 399.993 69.9818C399.341 69.9818 398.758 70.1233 398.244 70.4062C397.736 70.6891 397.335 71.1019 397.04 71.6445C396.746 72.1872 396.599 72.8454 396.599 73.619ZM413.248 81.8978C412.047 81.8978 410.994 81.612 410.087 81.0405C409.187 80.4689 408.483 79.6693 407.974 78.6417C407.472 77.614 407.221 76.4132 407.221 75.0392C407.221 73.6536 407.472 72.4441 407.974 71.4107C408.483 70.3773 409.187 69.5748 410.087 69.0033C410.994 68.4317 412.047 68.146 413.248 68.146C414.449 68.146 415.5 68.4317 416.401 69.0033C417.307 69.5748 418.011 70.3773 418.513 71.4107C419.022 72.4441 419.276 73.6536 419.276 75.0392C419.276 76.4132 419.022 77.614 418.513 78.6417C418.011 79.6693 417.307 80.4689 416.401 81.0405C415.5 81.612 414.449 81.8978 413.248 81.8978ZM413.248 80.0619C414.16 80.0619 414.911 79.8281 415.5 79.3604C416.089 78.8928 416.525 78.278 416.808 77.5159C417.09 76.7538 417.232 75.9283 417.232 75.0392C417.232 74.1501 417.09 73.3217 416.808 72.5538C416.525 71.786 416.089 71.1654 415.5 70.692C414.911 70.2185 414.16 69.9818 413.248 69.9818C412.336 69.9818 411.586 70.2185 410.997 70.692C410.408 71.1654 409.972 71.786 409.689 72.5538C409.406 73.3217 409.265 74.1501 409.265 75.0392C409.265 75.9283 409.406 76.7538 409.689 77.5159C409.972 78.278 410.408 78.8928 410.997 79.3604C411.586 79.8281 412.336 80.0619 413.248 80.0619ZM423.464 63.8853V81.6207H421.42V63.8853H423.464ZM431.635 81.8978C430.434 81.8978 429.381 81.612 428.474 81.0405C427.574 80.4689 426.869 79.6693 426.361 78.6417C425.859 77.614 425.608 76.4132 425.608 75.0392C425.608 73.6536 425.859 72.4441 426.361 71.4107C426.869 70.3773 427.574 69.5748 428.474 69.0033C429.381 68.4317 430.434 68.146 431.635 68.146C432.836 68.146 433.887 68.4317 434.787 69.0033C435.694 69.5748 436.398 70.3773 436.9 71.4107C437.408 72.4441 437.662 73.6536 437.662 75.0392C437.662 76.4132 437.408 77.614 436.9 78.6417C436.398 79.6693 435.694 80.4689 434.787 81.0405C433.887 81.612 432.836 81.8978 431.635 81.8978ZM431.635 80.0619C432.547 80.0619 433.298 79.8281 433.887 79.3604C434.475 78.8928 434.911 78.278 435.194 77.5159C435.477 76.7538 435.619 75.9283 435.619 75.0392C435.619 74.1501 435.477 73.3217 435.194 72.5538C434.911 71.786 434.475 71.1654 433.887 70.692C433.298 70.2185 432.547 69.9818 431.635 69.9818C430.723 69.9818 429.972 70.2185 429.383 70.692C428.795 71.1654 428.359 71.786 428.076 72.5538C427.793 73.3217 427.652 74.1501 427.652 75.0392C427.652 75.9283 427.793 76.7538 428.076 77.5159C428.359 78.278 428.795 78.8928 429.383 79.3604C429.972 79.8281 430.723 80.0619 431.635 80.0619ZM445.176 86.8858C444.188 86.8858 443.34 86.7588 442.63 86.5048C441.92 86.2566 441.328 85.9275 440.854 85.5176C440.387 85.1135 440.014 84.6805 439.737 84.2186L441.365 83.0755C441.55 83.318 441.784 83.5951 442.067 83.9069C442.35 84.2244 442.736 84.4986 443.227 84.7295C443.724 84.9662 444.373 85.0846 445.176 85.0846C446.249 85.0846 447.136 84.8248 447.834 84.3052C448.533 83.7856 448.882 82.9716 448.882 81.8631V79.1613H448.709C448.559 79.4037 448.345 79.704 448.068 80.0619C447.797 80.4141 447.404 80.7287 446.89 81.0058C446.382 81.2772 445.695 81.4128 444.829 81.4128C443.755 81.4128 442.791 81.1588 441.937 80.6508C441.088 80.1427 440.416 79.4037 439.919 78.4338C439.428 77.4639 439.183 76.2862 439.183 74.9006C439.183 73.5382 439.423 72.3518 439.902 71.3414C440.381 70.3254 441.048 69.5402 441.902 68.986C442.757 68.426 443.744 68.146 444.864 68.146C445.73 68.146 446.417 68.2903 446.925 68.579C447.439 68.8618 447.831 69.1851 448.103 69.5489C448.38 69.9068 448.593 70.2012 448.744 70.4322H448.951V68.3192H450.926V82.0017C450.926 83.1448 450.666 84.0743 450.146 84.7902C449.633 85.5118 448.94 86.0401 448.068 86.3749C447.202 86.7155 446.238 86.8858 445.176 86.8858ZM445.106 79.5769C445.926 79.5769 446.619 79.3893 447.185 79.0141C447.751 78.6388 448.181 78.099 448.475 77.3947C448.769 76.6903 448.917 75.8474 448.917 74.866C448.917 73.9076 448.772 73.0619 448.484 72.3287C448.195 71.5955 447.768 71.021 447.202 70.6054C446.636 70.1897 445.938 69.9818 445.106 69.9818C444.24 69.9818 443.519 70.2012 442.941 70.64C442.37 71.0788 441.94 71.6676 441.651 72.4066C441.368 73.1456 441.227 73.9654 441.227 74.866C441.227 75.7897 441.371 76.6066 441.66 77.3167C441.954 78.0211 442.387 78.5753 442.959 78.9794C443.536 79.3778 444.252 79.5769 445.106 79.5769ZM455.008 86.6087C454.661 86.6087 454.352 86.5799 454.081 86.5221C453.81 86.4702 453.622 86.4182 453.518 86.3663L454.038 84.565C454.534 84.692 454.973 84.7382 455.354 84.7036C455.735 84.6689 456.073 84.4986 456.367 84.1926C456.667 83.8924 456.942 83.4046 457.19 82.7291L457.571 81.6899L452.652 68.3192H454.869L458.541 78.9188H458.679L462.351 68.3192H464.568L458.922 83.5605C458.668 84.2475 458.353 84.8161 457.978 85.2665C457.603 85.7225 457.167 86.0603 456.67 86.2797C456.18 86.499 455.625 86.6087 455.008 86.6087Z" fill="white"/>
</svg>
