<svg width="123" height="113" viewBox="0 0 123 113" fill="none" xmlns="http://www.w3.org/2000/svg">
<path fill-rule="evenodd" clip-rule="evenodd" d="M50.6792 26.2088C42.5845 26.2088 36.0225 19.6468 36.0225 11.5521V0.285126H61.9354V26.2088H50.6792ZM42.0462 13.247H57.8243C58.0392 15.7703 56.8267 20.8169 50.2576 20.8169C43.6884 20.8169 42.0462 15.7703 42.0462 13.247Z" fill="#C8C7C7"/>
<path fill-rule="evenodd" clip-rule="evenodd" d="M73.2138 26.2086C81.3085 26.2086 87.8705 32.7706 87.8705 40.8652V52.1322H61.9575V26.2086H73.2138ZM81.4284 39.4979C81.5126 40.4867 81.0721 41.9735 80.0302 43.2178C79.0005 44.4474 77.3998 45.4193 75.181 45.4193C73.1904 45.4193 71.4859 44.4508 70.2701 43.1977C69.042 41.9319 68.3713 40.4386 68.3713 39.4666H67.6322C67.6322 40.7006 68.4358 42.3686 69.7396 43.7124C71.0558 45.069 72.9409 46.1585 75.181 46.1585C77.6404 46.1585 79.4414 45.0723 80.5969 43.6923C81.7403 42.3269 82.2686 40.6526 82.1649 39.4352L81.4284 39.4979Z" fill="#C8C7C7"/>
<path fill-rule="evenodd" clip-rule="evenodd" d="M87.8705 26.2088H76.6142C68.5195 26.2088 61.9575 19.6468 61.9575 11.5521V0.285141H87.8705V26.2088ZM68.8126 8.9118C68.4291 9.36866 68.2767 9.90532 68.3053 10.2398L67.7048 10.2911C67.6603 9.76968 67.8846 9.07993 68.3509 8.52436C68.8272 7.95691 69.5702 7.51129 70.5775 7.51129C71.5016 7.51129 72.273 7.95961 72.8063 8.508C73.3295 9.04595 73.6705 9.73045 73.6705 10.2654L73.0679 10.2654C73.0679 9.94455 72.8357 9.40264 72.3743 8.92816C71.923 8.46411 71.2986 8.11397 70.5775 8.11397C69.7658 8.11397 69.186 8.46681 68.8126 8.9118ZM77.5435 10.2399C77.515 9.90499 77.667 9.36815 78.0489 8.91135C78.4208 8.4664 78.9979 8.11396 79.8056 8.11396C80.5231 8.11396 81.1445 8.46371 81.594 8.92773C82.0535 9.40208 82.285 9.94411 82.285 10.2654L82.8876 10.2654C82.8876 9.73087 82.5481 9.0465 82.0269 8.50842C81.4957 7.96 80.7269 7.51129 79.8056 7.51129C78.8014 7.51129 78.0609 7.95731 77.5865 8.5248C77.122 9.08043 76.8987 9.76999 76.943 10.291L77.5435 10.2399Z" fill="white"/>
<path fill-rule="evenodd" clip-rule="evenodd" d="M47.2788 26.2085H36.0225V52.1322H61.9354V40.8652C61.9354 32.7705 55.3734 26.2085 47.2788 26.2085ZM56.0173 36.7495C56.0173 38.0866 54.9338 39.1706 53.5972 39.1706C52.2606 39.1706 51.1771 38.0866 51.1771 36.7495C51.1771 35.4124 52.2606 34.3284 53.5972 34.3284C54.9338 34.3284 56.0173 35.4124 56.0173 36.7495ZM46.8867 36.7495C46.8867 38.0866 45.8032 39.1706 44.4666 39.1706C43.1301 39.1706 42.0465 38.0866 42.0465 36.7495C42.0465 35.4124 43.1301 34.3284 44.4666 34.3284C45.8032 34.3284 46.8867 35.4124 46.8867 36.7495Z" fill="white"/>
<path d="M2.51987 80.5017V62.4023H14.5037V65.5573H6.34656V69.87H13.7083V73.0251H6.34656V80.5017H2.51987ZM32.7145 71.452C32.7145 73.4257 32.3404 75.1049 31.5922 76.4894C30.8498 77.874 29.8364 78.9315 28.552 79.6621C27.2735 80.3868 25.8359 80.7491 24.2393 80.7491C22.6308 80.7491 21.1874 80.3839 19.9088 79.6533C18.6303 78.9227 17.6199 77.8651 16.8775 76.4806C16.1352 75.096 15.764 73.4198 15.764 71.452C15.764 69.4782 16.1352 67.7991 16.8775 66.4145C17.6199 65.03 18.6303 63.9754 19.9088 63.2507C21.1874 62.5201 22.6308 62.1548 24.2393 62.1548C25.8359 62.1548 27.2735 62.5201 28.552 63.2507C29.8364 63.9754 30.8498 65.03 31.5922 66.4145C32.3404 67.7991 32.7145 69.4782 32.7145 71.452ZM28.8348 71.452C28.8348 70.1735 28.6434 69.0953 28.2604 68.2174C27.8833 67.3395 27.3501 66.6738 26.6608 66.2201C25.9714 65.7665 25.1643 65.5396 24.2393 65.5396C23.3143 65.5396 22.5071 65.7665 21.8178 66.2201C21.1284 66.6738 20.5923 67.3395 20.2093 68.2174C19.8323 69.0953 19.6437 70.1735 19.6437 71.452C19.6437 72.7305 19.8323 73.8087 20.2093 74.6865C20.5923 75.5644 21.1284 76.2302 21.8178 76.6838C22.5071 77.1375 23.3143 77.3643 24.2393 77.3643C25.1643 77.3643 25.9714 77.1375 26.6608 76.6838C27.3501 76.2302 27.8833 75.5644 28.2604 74.6865C28.6434 73.8087 28.8348 72.7305 28.8348 71.452ZM44.3723 67.6076C44.3016 66.8947 43.9982 66.3409 43.4621 65.9461C42.9259 65.5514 42.1983 65.354 41.2792 65.354C40.6546 65.354 40.1273 65.4424 39.6972 65.6192C39.2671 65.79 38.9372 66.0286 38.7074 66.335C38.4835 66.6414 38.3716 66.989 38.3716 67.3778C38.3598 67.7019 38.4276 67.9847 38.5749 68.2263C38.728 68.4678 38.9372 68.677 39.2023 68.8537C39.4675 69.0246 39.7738 69.1748 40.1214 69.3044C40.469 69.4282 40.8402 69.5342 41.235 69.6226L42.8611 70.0114C43.6506 70.1882 44.3753 70.4239 45.0351 70.7185C45.695 71.013 46.2665 71.3754 46.7496 71.8055C47.2328 72.2356 47.6069 72.7423 47.872 73.3256C48.143 73.9088 48.2815 74.5775 48.2874 75.3317C48.2815 76.4393 47.9987 77.3997 47.439 78.2128C46.8852 79.0199 46.0839 79.6474 45.0351 80.0952C43.9923 80.537 42.7344 80.758 41.2615 80.758C39.8003 80.758 38.5277 80.5341 37.4436 80.0863C36.3654 79.6386 35.5229 78.9757 34.9161 78.0979C34.3151 77.2141 33.9999 76.1212 33.9705 74.8191H37.6734C37.7147 75.426 37.8885 75.9326 38.1948 76.3392C38.5071 76.7398 38.9225 77.0432 39.4409 77.2495C39.9653 77.4498 40.5574 77.5499 41.2173 77.5499C41.8654 77.5499 42.4281 77.4557 42.9053 77.2671C43.3884 77.0786 43.7625 76.8164 44.0277 76.4806C44.2928 76.1448 44.4254 75.7588 44.4254 75.3229C44.4254 74.9163 44.3046 74.5746 44.063 74.2977C43.8273 74.0208 43.4797 73.7851 43.0202 73.5907C42.5665 73.3963 42.0097 73.2195 41.3499 73.0604L39.3791 72.5655C37.8531 72.1943 36.6483 71.614 35.7645 70.8245C34.8807 70.035 34.4418 68.9716 34.4477 67.6341C34.4418 66.5383 34.7334 65.5809 35.3226 64.7619C35.9177 63.943 36.7337 63.3037 37.7706 62.8441C38.8076 62.3846 39.9859 62.1548 41.3057 62.1548C42.649 62.1548 43.8214 62.3846 44.823 62.8441C45.8305 63.3037 46.6141 63.943 47.1738 64.7619C47.7336 65.5809 48.0223 66.5294 48.0399 67.6076H44.3723ZM59.6845 67.6076C59.6138 66.8947 59.3103 66.3409 58.7742 65.9461C58.238 65.5514 57.5104 65.354 56.5913 65.354C55.9668 65.354 55.4395 65.4424 55.0094 65.6192C54.5793 65.79 54.2493 66.0286 54.0196 66.335C53.7957 66.6414 53.6837 66.989 53.6837 67.3778C53.6719 67.7019 53.7397 67.9847 53.887 68.2263C54.0402 68.4678 54.2493 68.677 54.5145 68.8537C54.7796 69.0246 55.086 69.1748 55.4336 69.3044C55.7812 69.4282 56.1524 69.5342 56.5471 69.6226L58.1732 70.0114C58.9627 70.1882 59.6874 70.4239 60.3473 70.7185C61.0072 71.013 61.5787 71.3754 62.0618 71.8055C62.5449 72.2356 62.919 72.7423 63.1842 73.3256C63.4552 73.9088 63.5936 74.5775 63.5995 75.3317C63.5936 76.4393 63.3108 77.3997 62.7511 78.2128C62.1973 79.0199 61.396 79.6474 60.3473 80.0952C59.3044 80.537 58.0466 80.758 56.5736 80.758C55.1125 80.758 53.8399 80.5341 52.7558 80.0863C51.6776 79.6386 50.8351 78.9757 50.2282 78.0979C49.6273 77.2141 49.312 76.1212 49.2826 74.8191H52.9855C53.0268 75.426 53.2006 75.9326 53.507 76.3392C53.8192 76.7398 54.2346 77.0432 54.7531 77.2495C55.2774 77.4498 55.8696 77.5499 56.5294 77.5499C57.1775 77.5499 57.7402 77.4557 58.2174 77.2671C58.7005 77.0786 59.0747 76.8164 59.3398 76.4806C59.6049 76.1448 59.7375 75.7588 59.7375 75.3229C59.7375 74.9163 59.6167 74.5746 59.3751 74.2977C59.1395 74.0208 58.7919 73.7851 58.3323 73.5907C57.8786 73.3963 57.3219 73.2195 56.662 73.0604L54.6912 72.5655C53.1652 72.1943 51.9604 71.614 51.0766 70.8245C50.1929 70.035 49.7539 68.9716 49.7598 67.6341C49.7539 66.5383 50.0456 65.5809 50.6347 64.7619C51.2298 63.943 52.0458 63.3037 53.0828 62.8441C54.1197 62.3846 55.2981 62.1548 56.6178 62.1548C57.9611 62.1548 59.1336 62.3846 60.1352 62.8441C61.1427 63.3037 61.9263 63.943 62.486 64.7619C63.0457 65.5809 63.3344 66.5294 63.3521 67.6076H59.6845ZM85.912 68.7388H82.0411C81.9704 68.238 81.8261 67.7932 81.6081 67.4044C81.3901 67.0096 81.1102 66.6738 80.7685 66.3969C80.4268 66.12 80.0321 65.9079 79.5843 65.7606C79.1424 65.6133 78.6622 65.5396 78.1438 65.5396C77.207 65.5396 76.391 65.7723 75.6957 66.2378C75.0005 66.6973 74.4614 67.369 74.0785 68.2528C73.6955 69.1306 73.504 70.197 73.504 71.452C73.504 72.7423 73.6955 73.8264 74.0785 74.7042C74.4673 75.5821 75.0093 76.2449 75.7046 76.6927C76.3998 77.1405 77.204 77.3643 78.1172 77.3643C78.6298 77.3643 79.1041 77.2966 79.5401 77.1611C79.982 77.0256 80.3738 76.8282 80.7155 76.569C81.0572 76.3038 81.34 75.9827 81.5639 75.6057C81.7937 75.2286 81.9528 74.7985 82.0411 74.3154L85.912 74.333C85.8119 75.1638 85.5615 75.9651 85.1608 76.7369C84.7661 77.5028 84.2329 78.1892 83.5612 78.796C82.8954 79.397 82.1001 79.8742 81.1751 80.2277C80.2559 80.5753 79.216 80.7491 78.0554 80.7491C76.441 80.7491 74.9976 80.3839 73.7249 79.6533C72.4582 78.9227 71.4566 77.8651 70.7202 76.4806C69.9896 75.096 69.6243 73.4198 69.6243 71.452C69.6243 69.4782 69.9955 67.7991 70.7378 66.4145C71.4802 65.03 72.4877 63.9754 73.7603 63.2507C75.0329 62.5201 76.4646 62.1548 78.0554 62.1548C79.1041 62.1548 80.0762 62.3021 80.9718 62.5967C81.8732 62.8913 82.6716 63.3214 83.3668 63.887C84.062 64.4467 84.6276 65.1331 85.0636 65.9461C85.5055 66.7592 85.7883 67.6901 85.912 68.7388ZM91.3547 62.4023V80.5017H87.5899V62.4023H91.3547ZM102.08 74.7219V66.9271H105.845V80.5017H102.23V78.036H102.089C101.783 78.8314 101.273 79.4706 100.56 79.9538C99.8531 80.4369 98.9899 80.6784 97.9707 80.6784C97.0633 80.6784 96.265 80.4722 95.5757 80.0598C94.8863 79.6474 94.3472 79.0612 93.9584 78.3011C93.5754 77.5411 93.381 76.6308 93.3751 75.5703V66.9271H97.1399V74.8986C97.1458 75.6999 97.3609 76.3333 97.7851 76.7987C98.2093 77.2642 98.7778 77.4969 99.4907 77.4969C99.9444 77.4969 100.369 77.3938 100.763 77.1876C101.158 76.9755 101.476 76.6632 101.718 76.2508C101.965 75.8384 102.086 75.3287 102.08 74.7219ZM107.932 80.5017V62.4023H111.696V69.2072H111.811C111.976 68.8419 112.215 68.4708 112.527 68.0937C112.845 67.7107 113.258 67.3926 113.764 67.1392C114.277 66.88 114.913 66.7504 115.673 66.7504C116.663 66.7504 117.576 67.0096 118.413 67.5281C119.25 68.0407 119.918 68.8154 120.419 69.8524C120.92 70.8834 121.17 72.1767 121.17 73.7321C121.17 75.2463 120.926 76.5248 120.437 77.5676C119.954 78.6046 119.294 79.3911 118.457 79.9272C117.626 80.4575 116.696 80.7226 115.665 80.7226C114.934 80.7226 114.312 80.6019 113.8 80.3603C113.293 80.1187 112.878 79.8153 112.554 79.45C112.23 79.0788 111.982 78.7047 111.811 78.3276H111.643V80.5017H107.932ZM111.617 73.7144C111.617 74.5216 111.729 75.2256 111.953 75.8266C112.177 76.4276 112.501 76.8959 112.925 77.2318C113.349 77.5617 113.865 77.7267 114.471 77.7267C115.084 77.7267 115.603 77.5588 116.027 77.2229C116.451 76.8812 116.772 76.4099 116.99 75.8089C117.214 75.2021 117.326 74.5039 117.326 73.7144C117.326 72.9308 117.217 72.2415 116.999 71.6464C116.781 71.0513 116.46 70.5859 116.036 70.2501C115.612 69.9142 115.09 69.7463 114.471 69.7463C113.859 69.7463 113.34 69.9083 112.916 70.2324C112.498 70.5564 112.177 71.016 111.953 71.6111C111.729 72.2061 111.617 72.9072 111.617 73.7144Z" fill="white"/>
<path d="M14.691 90.7554C14.6491 90.3836 14.4762 90.0955 14.1725 89.8913C13.8687 89.6844 13.4864 89.581 13.0256 89.581C12.6956 89.581 12.4102 89.6334 12.1693 89.7381C11.9284 89.8402 11.7412 89.9816 11.6076 90.1623C11.4767 90.3404 11.4112 90.5433 11.4112 90.7711C11.4112 90.9623 11.4558 91.1272 11.5448 91.266C11.6364 91.4048 11.7556 91.5213 11.9022 91.6156C12.0515 91.7073 12.2112 91.7845 12.3814 91.8473C12.5516 91.9076 12.7153 91.9573 12.8724 91.9966L13.658 92.2008C13.9146 92.2637 14.1777 92.3488 14.4474 92.4562C14.7172 92.5635 14.9672 92.7049 15.1977 92.8804C15.4281 93.0558 15.614 93.2731 15.7554 93.5324C15.8994 93.7916 15.9714 94.1019 15.9714 94.4633C15.9714 94.9189 15.8536 95.3235 15.6179 95.677C15.3849 96.0305 15.0458 96.3094 14.6006 96.5136C14.1581 96.7178 13.6226 96.82 12.9941 96.82C12.3919 96.82 11.8708 96.7244 11.4309 96.5332C10.991 96.3421 10.6466 96.0711 10.3979 95.7202C10.1491 95.3667 10.0116 94.9477 9.98543 94.4633H11.2031C11.2266 94.7539 11.3209 94.9962 11.4859 95.1899C11.6535 95.3811 11.8669 95.5238 12.1261 95.6181C12.388 95.7097 12.6747 95.7555 12.9863 95.7555C13.3293 95.7555 13.6344 95.7019 13.9015 95.5945C14.1712 95.4845 14.3833 95.3326 14.5378 95.1389C14.6923 94.9425 14.7695 94.7133 14.7695 94.4515C14.7695 94.2132 14.7014 94.0181 14.5653 93.8662C14.4317 93.7144 14.2497 93.5887 14.0193 93.4892C13.7915 93.3897 13.5336 93.3019 13.2455 93.226L12.295 92.9668C11.6508 92.7913 11.1402 92.5334 10.7631 92.193C10.3887 91.8526 10.2015 91.4022 10.2015 90.8418C10.2015 90.3783 10.3272 89.9738 10.5785 89.6281C10.8299 89.2825 11.1703 89.0141 11.5998 88.8229C12.0292 88.6291 12.5136 88.5323 13.0531 88.5323C13.5977 88.5323 14.0782 88.6278 14.4946 88.819C14.9135 89.0101 15.2435 89.2733 15.4844 89.6085C15.7253 89.941 15.851 90.3233 15.8615 90.7554H14.691ZM17.6275 98.9489C17.452 98.9489 17.2923 98.9345 17.1483 98.9056C17.0042 98.8795 16.8969 98.8507 16.8262 98.8192L17.109 97.8569C17.3237 97.9145 17.5149 97.9394 17.6824 97.9315C17.85 97.9237 17.998 97.8608 18.1263 97.743C18.2572 97.6252 18.3724 97.4327 18.4719 97.1656L18.6173 96.765L16.4098 90.6533H17.6667L19.1947 95.3353H19.2575L20.7854 90.6533H22.0463L19.5599 97.4916C19.4447 97.8059 19.2981 98.0716 19.12 98.289C18.942 98.5089 18.7299 98.6739 18.4837 98.7839C18.2376 98.8939 17.9522 98.9489 17.6275 98.9489ZM22.7075 96.6864V90.6533H23.8348V91.6352H23.9095C24.0352 91.3027 24.2407 91.0434 24.5261 90.8575C24.8116 90.669 25.1533 90.5747 25.5513 90.5747C25.9546 90.5747 26.2923 90.669 26.5647 90.8575C26.8396 91.0461 27.0426 91.3053 27.1735 91.6352H27.2363C27.3804 91.3132 27.6095 91.0565 27.9237 90.8654C28.2379 90.6716 28.6124 90.5747 29.0471 90.5747C29.5943 90.5747 30.0408 90.7462 30.3865 91.0893C30.7347 91.4323 30.9089 91.9495 30.9089 92.6408V96.6864H29.7344V92.7507C29.7344 92.3422 29.6231 92.0464 29.4006 91.8631C29.178 91.6798 28.9122 91.5881 28.6032 91.5881C28.2209 91.5881 27.9237 91.7059 27.7116 91.9416C27.4995 92.1747 27.3934 92.4745 27.3934 92.8411V96.6864H26.223V92.6761C26.223 92.3488 26.1208 92.0856 25.9166 91.8866C25.7123 91.6876 25.4466 91.5881 25.1192 91.5881C24.8967 91.5881 24.6911 91.647 24.5026 91.7649C24.3166 91.8801 24.1661 92.0411 24.0509 92.248C23.9383 92.4548 23.882 92.6944 23.882 92.9668V96.6864H22.7075ZM32.1348 96.6864V88.6422H33.3092V91.6313H33.3799C33.448 91.5056 33.5462 91.3603 33.6745 91.1953C33.8028 91.0304 33.9808 90.8863 34.2087 90.7633C34.4365 90.6376 34.7376 90.5747 35.1121 90.5747C35.5991 90.5747 36.0338 90.6978 36.4161 90.9439C36.7984 91.1901 37.0982 91.5449 37.3156 92.0084C37.5355 92.4719 37.6455 93.0296 37.6455 93.6816C37.6455 94.3337 37.5368 94.8927 37.3195 95.3588C37.1022 95.8223 36.8036 96.1797 36.424 96.4311C36.0443 96.6799 35.6109 96.8043 35.1238 96.8043C34.7572 96.8043 34.4574 96.7427 34.2244 96.6197C33.9939 96.4966 33.8133 96.3526 33.6823 96.1876C33.5514 96.0226 33.4506 95.876 33.3799 95.7477H33.2817V96.6864H32.1348ZM33.2856 93.6699C33.2856 94.0941 33.3472 94.4659 33.4702 94.7854C33.5933 95.1048 33.7714 95.3549 34.0044 95.5356C34.2375 95.7136 34.5229 95.8027 34.8607 95.8027C35.2116 95.8027 35.5048 95.7097 35.7405 95.5238C35.9762 95.3353 36.1542 95.0799 36.2747 94.7579C36.3978 94.4358 36.4593 94.0731 36.4593 93.6699C36.4593 93.2718 36.3991 92.9144 36.2786 92.5976C36.1608 92.2807 35.9827 92.0306 35.7444 91.8473C35.5088 91.664 35.2142 91.5724 34.8607 91.5724C34.5203 91.5724 34.2322 91.6601 33.9966 91.8356C33.7635 92.011 33.5868 92.2558 33.4663 92.5701C33.3458 92.8843 33.2856 93.2509 33.2856 93.6699ZM38.5218 96.6864V90.6533H39.6963V96.6864H38.5218ZM39.1149 89.7224C38.9107 89.7224 38.7353 89.6543 38.5886 89.5181C38.4446 89.3794 38.3726 89.2144 38.3726 89.0232C38.3726 88.8295 38.4446 88.6645 38.5886 88.5283C38.7353 88.3895 38.9107 88.3202 39.1149 88.3202C39.3192 88.3202 39.4933 88.3895 39.6373 88.5283C39.784 88.6645 39.8573 88.8295 39.8573 89.0232C39.8573 89.2144 39.784 89.3794 39.6373 89.5181C39.4933 89.6543 39.3192 89.7224 39.1149 89.7224ZM43.3751 96.8082C42.8095 96.8082 42.3159 96.6786 41.8943 96.4193C41.4727 96.1601 41.1454 95.7974 40.9124 95.3313C40.6793 94.8652 40.5628 94.3206 40.5628 93.6973C40.5628 93.0715 40.6793 92.5242 40.9124 92.0555C41.1454 91.5868 41.4727 91.2228 41.8943 90.9636C42.3159 90.7043 42.8095 90.5747 43.3751 90.5747C43.9407 90.5747 44.4343 90.7043 44.8559 90.9636C45.2775 91.2228 45.6048 91.5868 45.8379 92.0555C46.0709 92.5242 46.1874 93.0715 46.1874 93.6973C46.1874 94.3206 46.0709 94.8652 45.8379 95.3313C45.6048 95.7974 45.2775 96.1601 44.8559 96.4193C44.4343 96.6786 43.9407 96.8082 43.3751 96.8082ZM43.379 95.8223C43.7456 95.8223 44.0494 95.7254 44.2903 95.5316C44.5312 95.3379 44.7093 95.0799 44.8245 94.7579C44.9423 94.4358 45.0012 94.081 45.0012 93.6934C45.0012 93.3085 44.9423 92.955 44.8245 92.6329C44.7093 92.3082 44.5312 92.0477 44.2903 91.8513C44.0494 91.6549 43.7456 91.5567 43.379 91.5567C43.0098 91.5567 42.7034 91.6549 42.4599 91.8513C42.219 92.0477 42.0396 92.3082 41.9218 92.6329C41.8066 92.955 41.749 93.3085 41.749 93.6934C41.749 94.081 41.8066 94.4358 41.9218 94.7579C42.0396 95.0799 42.219 95.3379 42.4599 95.5316C42.7034 95.7254 43.0098 95.8223 43.379 95.8223ZM51.5768 92.1262L50.5124 92.3148C50.4679 92.1786 50.3972 92.049 50.3003 91.9259C50.206 91.8028 50.0777 91.702 49.9154 91.6235C49.753 91.5449 49.5501 91.5056 49.3066 91.5056C48.974 91.5056 48.6964 91.5803 48.4739 91.7295C48.2513 91.8761 48.14 92.066 48.14 92.299C48.14 92.5007 48.2146 92.663 48.3639 92.7861C48.5131 92.9092 48.754 93.01 49.0866 93.0885L50.045 93.3085C50.6001 93.4368 51.0139 93.6345 51.2862 93.9016C51.5585 94.1687 51.6947 94.5156 51.6947 94.9425C51.6947 95.3038 51.5899 95.6259 51.3805 95.9087C51.1736 96.1889 50.8842 96.4089 50.5124 96.5686C50.1432 96.7283 49.7151 96.8082 49.228 96.8082C48.5524 96.8082 48.0012 96.6642 47.5744 96.3761C47.1476 96.0855 46.8857 95.673 46.7888 95.1389L47.924 94.966C47.9947 95.2619 48.14 95.4858 48.36 95.6377C48.5799 95.787 48.8666 95.8616 49.2201 95.8616C49.6051 95.8616 49.9128 95.7817 50.1432 95.622C50.3736 95.4596 50.4888 95.2619 50.4888 95.0289C50.4888 94.8403 50.4181 94.6819 50.2767 94.5536C50.138 94.4253 49.9245 94.3284 49.6365 94.263L48.6153 94.0391C48.0523 93.9108 47.6359 93.7065 47.3662 93.4263C47.0991 93.1461 46.9656 92.7913 46.9656 92.3619C46.9656 92.0058 47.0651 91.6942 47.2641 91.4271C47.4631 91.16 47.738 90.9518 48.0889 90.8025C48.4398 90.6507 48.8418 90.5747 49.2948 90.5747C49.9468 90.5747 50.46 90.7161 50.8345 90.9989C51.2089 91.2791 51.4564 91.6549 51.5768 92.1262ZM52.5435 96.6864V90.6533H53.7179V96.6864H52.5435ZM53.1366 89.7224C52.9324 89.7224 52.7569 89.6543 52.6103 89.5181C52.4663 89.3794 52.3943 89.2144 52.3943 89.0232C52.3943 88.8295 52.4663 88.6645 52.6103 88.5283C52.7569 88.3895 52.9324 88.3202 53.1366 88.3202C53.3409 88.3202 53.515 88.3895 53.659 88.5283C53.8057 88.6645 53.879 88.8295 53.879 89.0232C53.879 89.2144 53.8057 89.3794 53.659 89.5181C53.515 89.6543 53.3409 89.7224 53.1366 89.7224ZM59.3764 92.1262L58.312 92.3148C58.2675 92.1786 58.1968 92.049 58.0999 91.9259C58.0056 91.8028 57.8773 91.702 57.7149 91.6235C57.5526 91.5449 57.3497 91.5056 57.1061 91.5056C56.7736 91.5056 56.496 91.5803 56.2734 91.7295C56.0508 91.8761 55.9396 92.066 55.9396 92.299C55.9396 92.5007 56.0142 92.663 56.1634 92.7861C56.3127 92.9092 56.5536 93.01 56.8862 93.0885L57.8446 93.3085C58.3997 93.4368 58.8134 93.6345 59.0858 93.9016C59.3581 94.1687 59.4942 94.5156 59.4942 94.9425C59.4942 95.3038 59.3895 95.6259 59.18 95.9087C58.9732 96.1889 58.6838 96.4089 58.312 96.5686C57.9428 96.7283 57.5146 96.8082 57.0276 96.8082C56.352 96.8082 55.8008 96.6642 55.374 96.3761C54.9471 96.0855 54.6853 95.673 54.5884 95.1389L55.7235 94.966C55.7942 95.2619 55.9396 95.4858 56.1595 95.6377C56.3795 95.787 56.6662 95.8616 57.0197 95.8616C57.4046 95.8616 57.7123 95.7817 57.9428 95.622C58.1732 95.4596 58.2884 95.2619 58.2884 95.0289C58.2884 94.8403 58.2177 94.6819 58.0763 94.5536C57.9375 94.4253 57.7241 94.3284 57.4361 94.263L56.4148 94.0391C55.8518 93.9108 55.4355 93.7065 55.1658 93.4263C54.8987 93.1461 54.7651 92.7913 54.7651 92.3619C54.7651 92.0058 54.8646 91.6942 55.0637 91.4271C55.2627 91.16 55.5376 90.9518 55.8885 90.8025C56.2394 90.6507 56.6413 90.5747 57.0943 90.5747C57.7464 90.5747 58.2596 90.7161 58.634 90.9989C59.0085 91.2791 59.256 91.6549 59.3764 92.1262ZM64.1358 88.6422V96.6864H62.9221V88.6422H64.1358ZM66.5411 93.1042V96.6864H65.3667V90.6533H66.4939V91.6352H66.5686C66.7074 91.3158 66.9247 91.0592 67.2206 90.8654C67.5191 90.6716 67.8949 90.5747 68.3479 90.5747C68.759 90.5747 69.119 90.6611 69.428 90.834C69.737 91.0042 69.9766 91.2582 70.1468 91.596C70.317 91.9338 70.4021 92.3514 70.4021 92.8489V96.6864H69.2277V92.9903C69.2277 92.553 69.1138 92.2113 68.886 91.9652C68.6582 91.7164 68.3453 91.592 67.9472 91.592C67.6749 91.592 67.4327 91.651 67.2206 91.7688C67.0111 91.8866 66.8448 92.0594 66.7218 92.2873C66.6013 92.5125 66.5411 92.7848 66.5411 93.1042ZM76.0557 92.1262L74.9913 92.3148C74.9467 92.1786 74.876 92.049 74.7791 91.9259C74.6849 91.8028 74.5566 91.702 74.3942 91.6235C74.2319 91.5449 74.0289 91.5056 73.7854 91.5056C73.4529 91.5056 73.1753 91.5803 72.9527 91.7295C72.7301 91.8761 72.6188 92.066 72.6188 92.299C72.6188 92.5007 72.6935 92.663 72.8427 92.7861C72.992 92.9092 73.2329 93.01 73.5654 93.0885L74.5238 93.3085C75.079 93.4368 75.4927 93.6345 75.765 93.9016C76.0374 94.1687 76.1735 94.5156 76.1735 94.9425C76.1735 95.3038 76.0688 95.6259 75.8593 95.9087C75.6524 96.1889 75.3631 96.4089 74.9913 96.5686C74.622 96.7283 74.1939 96.8082 73.7069 96.8082C73.0313 96.8082 72.4801 96.6642 72.0532 96.3761C71.6264 96.0855 71.3646 95.673 71.2677 95.1389L72.4028 94.966C72.4735 95.2619 72.6188 95.4858 72.8388 95.6377C73.0588 95.787 73.3455 95.8616 73.699 95.8616C74.0839 95.8616 74.3916 95.7817 74.622 95.622C74.8525 95.4596 74.9677 95.2619 74.9677 95.0289C74.9677 94.8403 74.897 94.6819 74.7556 94.5536C74.6168 94.4253 74.4034 94.3284 74.1153 94.263L73.0941 94.0391C72.5311 93.9108 72.1148 93.7065 71.8451 93.4263C71.578 93.1461 71.4444 92.7913 71.4444 92.3619C71.4444 92.0058 71.5439 91.6942 71.7429 91.4271C71.9419 91.16 72.2169 90.9518 72.5678 90.8025C72.9187 90.6507 73.3206 90.5747 73.7736 90.5747C74.4256 90.5747 74.9389 90.7161 75.3133 90.9989C75.6878 91.2791 75.9352 91.6549 76.0557 92.1262ZM79.8386 90.6533V91.596H76.5432V90.6533H79.8386ZM77.4269 89.2078H78.6014V94.915C78.6014 95.1428 78.6354 95.3143 78.7035 95.4295C78.7716 95.5421 78.8593 95.6194 78.9666 95.6613C79.0766 95.7005 79.1958 95.7202 79.3241 95.7202C79.4183 95.7202 79.5008 95.7136 79.5715 95.7005C79.6422 95.6874 79.6972 95.677 79.7365 95.6691L79.9486 96.6393C79.8805 96.6655 79.7836 96.6917 79.6579 96.7178C79.5323 96.7467 79.3751 96.7624 79.1866 96.765C78.8776 96.7702 78.5896 96.7152 78.3225 96.6C78.0554 96.4848 77.8394 96.3067 77.6744 96.0658C77.5094 95.8249 77.4269 95.5225 77.4269 95.1585V89.2078ZM80.6953 96.6864V90.6533H81.8697V96.6864H80.6953ZM81.2884 89.7224C81.0842 89.7224 80.9087 89.6543 80.7621 89.5181C80.6181 89.3794 80.5461 89.2144 80.5461 89.0232C80.5461 88.8295 80.6181 88.6645 80.7621 88.5283C80.9087 88.3895 81.0842 88.3202 81.2884 88.3202C81.4927 88.3202 81.6668 88.3895 81.8108 88.5283C81.9575 88.6645 82.0308 88.8295 82.0308 89.0232C82.0308 89.2144 81.9575 89.3794 81.8108 89.5181C81.6668 89.6543 81.4927 89.7224 81.2884 89.7224ZM85.8235 90.6533V91.596H82.5281V90.6533H85.8235ZM83.4118 89.2078H84.5863V94.915C84.5863 95.1428 84.6203 95.3143 84.6884 95.4295C84.7565 95.5421 84.8442 95.6194 84.9516 95.6613C85.0615 95.7005 85.1807 95.7202 85.309 95.7202C85.4033 95.7202 85.4857 95.7136 85.5564 95.7005C85.6271 95.6874 85.6821 95.677 85.7214 95.6691L85.9335 96.6393C85.8654 96.6655 85.7685 96.6917 85.6429 96.7178C85.5172 96.7467 85.3601 96.7624 85.1715 96.765C84.8625 96.7702 84.5745 96.7152 84.3074 96.6C84.0403 96.4848 83.8243 96.3067 83.6593 96.0658C83.4943 95.8249 83.4118 95.5225 83.4118 95.1585V89.2078ZM90.502 94.1844V90.6533H91.6803V96.6864H90.5256V95.6416H90.4627C90.3239 95.9637 90.1014 96.2321 89.795 96.4468C89.4912 96.6589 89.1129 96.765 88.6599 96.765C88.2723 96.765 87.9293 96.6799 87.6308 96.5097C87.3349 96.3368 87.1018 96.0815 86.9316 95.7437C86.764 95.406 86.6802 94.9883 86.6802 94.4908V90.6533H87.8546V94.3494C87.8546 94.7605 87.9686 95.0878 88.1964 95.3313C88.4242 95.5749 88.7201 95.6966 89.0841 95.6966C89.304 95.6966 89.5227 95.6416 89.74 95.5316C89.96 95.4217 90.142 95.2554 90.286 95.0328C90.4326 94.8102 90.5046 94.5274 90.502 94.1844ZM95.6322 90.6533V91.596H92.3367V90.6533H95.6322ZM93.2205 89.2078H94.3949V94.915C94.3949 95.1428 94.4289 95.3143 94.497 95.4295C94.5651 95.5421 94.6528 95.6194 94.7602 95.6613C94.8702 95.7005 94.9893 95.7202 95.1176 95.7202C95.2119 95.7202 95.2944 95.7136 95.3651 95.7005C95.4358 95.6874 95.4908 95.677 95.5301 95.6691L95.7422 96.6393C95.6741 96.6655 95.5772 96.6917 95.4515 96.7178C95.3258 96.7467 95.1687 96.7624 94.9802 96.765C94.6712 96.7702 94.3831 96.7152 94.116 96.6C93.8489 96.4848 93.6329 96.3067 93.4679 96.0658C93.303 95.8249 93.2205 95.5225 93.2205 95.1585V89.2078ZM99.0243 96.8082C98.4299 96.8082 97.9179 96.6812 97.4885 96.4272C97.0617 96.1706 96.7317 95.8105 96.4987 95.347C96.2683 94.8809 96.153 94.335 96.153 93.7091C96.153 93.0912 96.2683 92.5465 96.4987 92.0752C96.7317 91.6038 97.0564 91.2359 97.4728 90.9714C97.8918 90.707 98.3814 90.5747 98.9418 90.5747C99.2822 90.5747 99.6121 90.631 99.9316 90.7436C100.251 90.8562 100.538 91.033 100.792 91.2739C101.046 91.5148 101.246 91.8277 101.393 92.2126C101.539 92.5949 101.613 93.0597 101.613 93.607V94.0234H96.8168V93.1435H100.462C100.462 92.8345 100.399 92.5609 100.273 92.3226C100.148 92.0817 99.9709 91.8919 99.7431 91.7531C99.5179 91.6143 99.2534 91.5449 98.9497 91.5449C98.6197 91.5449 98.3317 91.6261 98.0855 91.7884C97.842 91.9482 97.6535 92.1576 97.5199 92.4169C97.389 92.6735 97.3235 92.9524 97.3235 93.2535V93.9409C97.3235 94.3441 97.3942 94.6872 97.5356 94.97C97.6797 95.2528 97.88 95.4688 98.1366 95.6181C98.3932 95.7647 98.693 95.838 99.0361 95.838C99.2586 95.838 99.4616 95.8066 99.6449 95.7437C99.8282 95.6783 99.9866 95.5814 100.12 95.4531C100.254 95.3248 100.356 95.1664 100.427 94.9778L101.538 95.1781C101.449 95.5055 101.289 95.7922 101.059 96.0383C100.831 96.2819 100.544 96.4717 100.199 96.6079C99.8557 96.7414 99.4642 96.8082 99.0243 96.8082ZM107.499 96.8082C106.934 96.8082 106.44 96.6786 106.019 96.4193C105.597 96.1601 105.27 95.7974 105.037 95.3313C104.804 94.8652 104.687 94.3206 104.687 93.6973C104.687 93.0715 104.804 92.5242 105.037 92.0555C105.27 91.5868 105.597 91.2228 106.019 90.9636C106.44 90.7043 106.934 90.5747 107.499 90.5747C108.065 90.5747 108.559 90.7043 108.98 90.9636C109.402 91.2228 109.729 91.5868 109.962 92.0555C110.195 92.5242 110.312 93.0715 110.312 93.6973C110.312 94.3206 110.195 94.8652 109.962 95.3313C109.729 95.7974 109.402 96.1601 108.98 96.4193C108.559 96.6786 108.065 96.8082 107.499 96.8082ZM107.503 95.8223C107.87 95.8223 108.174 95.7254 108.415 95.5316C108.656 95.3379 108.834 95.0799 108.949 94.7579C109.067 94.4358 109.126 94.081 109.126 93.6934C109.126 93.3085 109.067 92.955 108.949 92.6329C108.834 92.3082 108.656 92.0477 108.415 91.8513C108.174 91.6549 107.87 91.5567 107.503 91.5567C107.134 91.5567 106.828 91.6549 106.584 91.8513C106.343 92.0477 106.164 92.3082 106.046 92.6329C105.931 92.955 105.873 93.3085 105.873 93.6934C105.873 94.081 105.931 94.4358 106.046 94.7579C106.164 95.0799 106.343 95.3379 106.584 95.5316C106.828 95.7254 107.134 95.8223 107.503 95.8223ZM114.051 90.6533V91.596H110.642V90.6533H114.051ZM111.577 96.6864V89.9541C111.577 89.5771 111.659 89.2641 111.824 89.0154C111.989 88.764 112.208 88.5768 112.48 88.4537C112.753 88.328 113.049 88.2652 113.368 88.2652C113.604 88.2652 113.805 88.2848 113.973 88.3241C114.141 88.3607 114.265 88.3948 114.346 88.4262L114.071 89.3767C114.016 89.361 113.945 89.3427 113.859 89.3218C113.773 89.2982 113.668 89.2864 113.545 89.2864C113.259 89.2864 113.055 89.3571 112.932 89.4985C112.812 89.6399 112.751 89.8442 112.751 90.1112V96.6864H111.577ZM33.6566 102.687V101.642H39.8822V102.687H37.3723V109.686H36.1626V102.687H33.6566ZM42.4466 109.808C41.8521 109.808 41.3402 109.681 40.9108 109.427C40.4839 109.171 40.154 108.811 39.921 108.347C39.6905 107.881 39.5753 107.335 39.5753 106.709C39.5753 106.091 39.6905 105.546 39.921 105.075C40.154 104.604 40.4787 104.236 40.8951 103.971C41.314 103.707 41.8037 103.575 42.3641 103.575C42.7045 103.575 43.0344 103.631 43.3539 103.744C43.6733 103.856 43.9601 104.033 44.2141 104.274C44.4681 104.515 44.6684 104.828 44.815 105.213C44.9617 105.595 45.035 106.06 45.035 106.607V107.023H40.2391V106.144H43.8841C43.8841 105.835 43.8213 105.561 43.6956 105.323C43.5699 105.082 43.3932 104.892 43.1653 104.753C42.9401 104.614 42.6757 104.545 42.3719 104.545C42.042 104.545 41.7539 104.626 41.5078 104.788C41.2643 104.948 41.0757 105.158 40.9422 105.417C40.8113 105.673 40.7458 105.952 40.7458 106.254V106.941C40.7458 107.344 40.8165 107.687 40.9579 107.97C41.1019 108.253 41.3022 108.469 41.5589 108.618C41.8155 108.765 42.1153 108.838 42.4583 108.838C42.6809 108.838 42.8838 108.807 43.0671 108.744C43.2504 108.678 43.4089 108.581 43.5424 108.453C43.676 108.325 43.7781 108.166 43.8488 107.978L44.9604 108.178C44.8713 108.505 44.7116 108.792 44.4812 109.038C44.2534 109.282 43.9666 109.472 43.621 109.608C43.2779 109.741 42.8865 109.808 42.4466 109.808ZM48.4369 109.808C47.853 109.808 47.3502 109.676 46.9286 109.411C46.5097 109.144 46.1876 108.776 45.9624 108.308C45.7372 107.839 45.6246 107.302 45.6246 106.697C45.6246 106.085 45.7398 105.544 45.9702 105.075C46.2007 104.604 46.5254 104.236 46.9443 103.971C47.3633 103.707 47.8569 103.575 48.4251 103.575C48.8834 103.575 49.2919 103.66 49.6506 103.83C50.0094 103.998 50.2987 104.233 50.5187 104.537C50.7412 104.841 50.8735 105.196 50.9154 105.601H49.7724C49.7095 105.319 49.5655 105.075 49.3403 104.871C49.1177 104.667 48.8192 104.565 48.4448 104.565C48.1175 104.565 47.8307 104.651 47.5846 104.824C47.3411 104.994 47.1512 105.238 47.015 105.554C46.8789 105.869 46.8108 106.24 46.8108 106.67C46.8108 107.11 46.8776 107.489 47.0111 107.809C47.1447 108.128 47.3332 108.376 47.5767 108.551C47.8229 108.727 48.1122 108.814 48.4448 108.814C48.6674 108.814 48.869 108.774 49.0497 108.693C49.233 108.609 49.3861 108.49 49.5092 108.335C49.6349 108.181 49.7226 107.995 49.7724 107.778H50.9154C50.8735 108.168 50.7465 108.516 50.5344 108.822C50.3223 109.129 50.0382 109.37 49.682 109.545C49.3285 109.72 48.9135 109.808 48.4369 109.808ZM52.9033 106.104V109.686H51.7289V101.642H52.8876V104.635H52.9622C53.1036 104.311 53.3196 104.053 53.6103 103.861C53.901 103.67 54.2806 103.575 54.7494 103.575C55.1631 103.575 55.5245 103.66 55.8334 103.83C56.1451 104 56.386 104.254 56.5562 104.592C56.729 104.927 56.8154 105.346 56.8154 105.849V109.686H55.641V105.99C55.641 105.548 55.5271 105.205 55.2993 104.961C55.0715 104.715 54.7546 104.592 54.3487 104.592C54.0712 104.592 53.8224 104.651 53.6024 104.769C53.3851 104.887 53.2136 105.059 53.0879 105.287C52.9648 105.512 52.9033 105.785 52.9033 106.104ZM59.1146 106.104V109.686H57.9402V103.653H59.0675V104.635H59.1421C59.2809 104.316 59.4982 104.059 59.7941 103.865C60.0926 103.672 60.4684 103.575 60.9214 103.575C61.3325 103.575 61.6926 103.661 62.0016 103.834C62.3105 104.004 62.5501 104.258 62.7203 104.596C62.8905 104.934 62.9757 105.351 62.9757 105.849V109.686H61.8012V105.99C61.8012 105.553 61.6873 105.211 61.4595 104.965C61.2317 104.716 60.9188 104.592 60.5208 104.592C60.2484 104.592 60.0062 104.651 59.7941 104.769C59.5846 104.887 59.4183 105.059 59.2953 105.287C59.1748 105.512 59.1146 105.785 59.1146 106.104ZM66.6496 109.808C66.084 109.808 65.5904 109.679 65.1688 109.419C64.7472 109.16 64.4199 108.797 64.1868 108.331C63.9538 107.865 63.8373 107.321 63.8373 106.697C63.8373 106.072 63.9538 105.524 64.1868 105.056C64.4199 104.587 64.7472 104.223 65.1688 103.964C65.5904 103.704 66.084 103.575 66.6496 103.575C67.2152 103.575 67.7088 103.704 68.1304 103.964C68.552 104.223 68.8793 104.587 69.1123 105.056C69.3454 105.524 69.4619 106.072 69.4619 106.697C69.4619 107.321 69.3454 107.865 69.1123 108.331C68.8793 108.797 68.552 109.16 68.1304 109.419C67.7088 109.679 67.2152 109.808 66.6496 109.808ZM66.6535 108.822C67.0201 108.822 67.3239 108.725 67.5648 108.532C67.8057 108.338 67.9837 108.08 68.099 107.758C68.2168 107.436 68.2757 107.081 68.2757 106.693C68.2757 106.308 68.2168 105.955 68.099 105.633C67.9837 105.308 67.8057 105.048 67.5648 104.851C67.3239 104.655 67.0201 104.557 66.6535 104.557C66.2843 104.557 65.9779 104.655 65.7344 104.851C65.4935 105.048 65.3141 105.308 65.1963 105.633C65.0811 105.955 65.0235 106.308 65.0235 106.693C65.0235 107.081 65.0811 107.436 65.1963 107.758C65.3141 108.08 65.4935 108.338 65.7344 108.532C65.9779 108.725 66.2843 108.822 66.6535 108.822ZM71.5048 101.642V109.686H70.3304V101.642H71.5048ZM75.1837 109.808C74.618 109.808 74.1244 109.679 73.7029 109.419C73.2813 109.16 72.954 108.797 72.7209 108.331C72.4879 107.865 72.3713 107.321 72.3713 106.697C72.3713 106.072 72.4879 105.524 72.7209 105.056C72.954 104.587 73.2813 104.223 73.7029 103.964C74.1244 103.704 74.618 103.575 75.1837 103.575C75.7493 103.575 76.2429 103.704 76.6644 103.964C77.086 104.223 77.4133 104.587 77.6464 105.056C77.8795 105.524 77.996 106.072 77.996 106.697C77.996 107.321 77.8795 107.865 77.6464 108.331C77.4133 108.797 77.086 109.16 76.6644 109.419C76.2429 109.679 75.7493 109.808 75.1837 109.808ZM75.1876 108.822C75.5542 108.822 75.8579 108.725 76.0988 108.532C76.3397 108.338 76.5178 108.08 76.633 107.758C76.7509 107.436 76.8098 107.081 76.8098 106.693C76.8098 106.308 76.7509 105.955 76.633 105.633C76.5178 105.308 76.3397 105.048 76.0988 104.851C75.8579 104.655 75.5542 104.557 75.1876 104.557C74.8184 104.557 74.512 104.655 74.2685 104.851C74.0276 105.048 73.8482 105.308 73.7304 105.633C73.6151 105.955 73.5575 106.308 73.5575 106.693C73.5575 107.081 73.6151 107.436 73.7304 107.758C73.8482 108.08 74.0276 108.338 74.2685 108.532C74.512 108.725 74.8184 108.822 75.1876 108.822ZM81.394 112.075C80.9148 112.075 80.5024 112.012 80.1567 111.886C79.8137 111.76 79.5335 111.594 79.3162 111.387C79.0988 111.18 78.9365 110.954 78.8291 110.708L79.8386 110.291C79.9093 110.407 80.0035 110.528 80.1214 110.657C80.2418 110.788 80.4042 110.899 80.6084 110.99C80.8153 111.082 81.0811 111.128 81.4058 111.128C81.8509 111.128 82.2188 111.019 82.5095 110.802C82.8001 110.587 82.9455 110.244 82.9455 109.773V108.587H82.8708C82.8001 108.715 82.698 108.858 82.5645 109.015C82.4335 109.172 82.2529 109.308 82.0224 109.423C81.792 109.538 81.4922 109.596 81.123 109.596C80.6464 109.596 80.2169 109.485 79.8346 109.262C79.4549 109.037 79.1538 108.706 78.9312 108.268C78.7113 107.829 78.6013 107.288 78.6013 106.646C78.6013 106.005 78.71 105.455 78.9273 104.997C79.1473 104.538 79.4484 104.187 79.8307 103.944C80.213 103.698 80.6464 103.575 81.1308 103.575C81.5053 103.575 81.8077 103.638 82.0381 103.763C82.2686 103.886 82.4479 104.03 82.5763 104.195C82.7072 104.36 82.808 104.506 82.8787 104.631H82.9651V103.653H84.116V109.82C84.116 110.338 83.9955 110.764 83.7546 111.097C83.5137 111.429 83.1877 111.675 82.7766 111.835C82.3681 111.995 81.9072 112.075 81.394 112.075ZM81.3822 108.622C81.72 108.622 82.0054 108.543 82.2385 108.386C82.4741 108.227 82.6522 107.999 82.7726 107.703C82.8957 107.404 82.9573 107.047 82.9573 106.631C82.9573 106.225 82.897 105.867 82.7766 105.558C82.6561 105.249 82.4794 105.008 82.2463 104.836C82.0133 104.66 81.7252 104.572 81.3822 104.572C81.0287 104.572 80.7341 104.664 80.4984 104.847C80.2628 105.028 80.0847 105.274 79.9643 105.586C79.8464 105.897 79.7875 106.246 79.7875 106.631C79.7875 107.026 79.8477 107.373 79.9682 107.671C80.0886 107.97 80.2667 108.203 80.5024 108.371C80.7407 108.538 81.0339 108.622 81.3822 108.622ZM85.991 111.949C85.8155 111.949 85.6558 111.934 85.5118 111.906C85.3677 111.879 85.2604 111.851 85.1897 111.819L85.4725 110.857C85.6872 110.915 85.8784 110.939 86.0459 110.932C86.2135 110.924 86.3615 110.861 86.4898 110.743C86.6207 110.625 86.7359 110.433 86.8354 110.166L86.9808 109.765L84.7733 103.653H86.0302L87.5582 108.335H87.621L89.1489 103.653H90.4098L87.9234 110.492C87.8082 110.806 87.6616 111.072 87.4835 111.289C87.3055 111.509 87.0934 111.674 86.8472 111.784C86.6011 111.894 86.3157 111.949 85.991 111.949Z" fill="white"/>
</svg>
